<svg width="353" height="509" viewBox="0 0 353 509" fill="none" xmlns="http://www.w3.org/2000/svg">
<path fill-rule="evenodd" clip-rule="evenodd" d="M280.217 298.232C284.266 308.326 289.113 319.783 293.572 329.616C293.215 332.731 291.875 335.917 292.923 339.036C288.302 336.036 283.106 334.153 277.802 332.729L277.504 334.723C276.914 334.704 275.85 334.693 275.252 334.685C275.345 333.892 275.471 332.478 275.529 331.679L275.53 331.68C276.27 323.089 274.888 314.293 273.2 305.897C272.789 302.868 273.793 298.161 277.619 298.084C278.188 298.17 279.125 296.635 279.47 296.338L280.217 298.232ZM226.71 414.348C245.986 415.427 257.007 399.687 266.326 384.96C267.308 385.609 268.394 386.334 269.385 386.921C270.909 389.365 274.012 390.106 276.691 390.377C286.238 390.864 288.283 382.308 290.653 374.948C291.105 375.264 292.114 376.873 292.874 376.52C297.161 375.571 301.335 374.437 305.88 374.721C311.097 373.609 338.13 385.492 335.635 375.129C334.416 370.622 327.709 368.487 324.255 365.376C319.232 359.673 320.455 352.335 318.056 345.543C316.061 338.73 313.73 332.311 309.416 326.047C309.027 302.637 308.148 273.985 302.076 253.165C298.204 238.553 293.408 223.447 295.251 208.115L296.299 208.087C296.757 207.828 297.461 207.632 298.023 207.719C298.497 207.196 299.376 207.355 300.02 207.143C301.181 196.314 301.629 187.045 300.155 177.221C298.787 160.999 288.53 154.364 273.548 150.831C257.085 145.441 245.913 139.948 237.383 126.547C235.77 123.827 234.79 120.607 232.64 118.314C227.303 111.572 211.953 112.683 207.988 119.782C206.257 123.935 206.108 128.782 204.791 133.099C199.614 151.436 175.803 149.276 163.197 159.302C157.648 163.409 155.86 169.75 155.14 176.205C154.234 184.321 152.502 192.136 152.724 200.204C152.145 200.313 150.82 199.901 150.595 200.73C151.122 202.472 157.882 202.466 159.767 202.775C157.288 215.879 159.536 229.039 157.543 242.185C154.471 256.955 148.427 270.673 143.679 284.942C141.852 289.658 140.629 294.713 137.911 299.008L137.96 299.045C137.53 299.757 137.059 300.45 136.569 301.117C136.066 301.299 135.541 301.594 135.044 301.775L134.933 301.589L134.665 301.949L133.876 301.616C132.717 302.194 131.459 302.864 130.223 303.568C115.034 312.767 105.094 322.102 93.1845 333.661L94.7645 334.94C94.1894 335.739 93.4927 336.797 92.9339 337.639C92.4676 337.228 91.472 336.536 90.8983 336.299C80.7441 348.346 79.5025 369.228 84.448 381.923C86.0211 385.727 88.5098 388.85 91.5155 391.481C92.7566 393.343 94.9875 395.915 97.8381 397.15C97.8381 397.15 98.1975 397.657 98.2096 397.675C98.3617 397.695 99.2953 397.909 99.3499 398.126C106.938 399.403 114.547 402.736 122.41 402.784C135.234 402.672 146.253 392.281 156.539 385.418C163.046 380.787 170.627 377.606 177.653 374.51C177.129 377.179 177.278 378.095 180.186 379.104C182.776 380.133 185.893 379.328 188.302 378.198C188.239 382.622 187.886 387.04 188.008 391.759C188.009 397.471 187.818 404.494 193.985 407.13C204.486 411.259 216.352 414.224 226.71 414.348V414.348Z" fill="#D08B5B"/>
<path fill-rule="evenodd" clip-rule="evenodd" d="M253.482 144.241C253.563 144.418 253.512 144.65 253.272 144.699C252.884 144.778 252.598 144.988 252.386 145.275C252.292 145.751 252.154 146.222 251.966 146.682C251.927 146.775 251.878 146.859 251.823 146.932C251.729 147.618 251.719 148.321 251.67 148.816C251.507 150.493 251.203 152.132 250.742 153.753C249.814 157.012 248.359 160.146 246.437 162.941C242.578 168.548 236.814 172.83 230.194 174.561C223.511 176.306 216.1 175.575 210.092 172.081C204.534 168.85 200.228 163.501 198.967 157.141C198.296 153.761 198.404 150.32 199.036 146.944C199.138 146.403 199.251 145.847 199.377 145.287C195.14 148.921 189.705 151.151 184.462 152.871L183.901 153.054C178.476 154.812 172.943 156.322 168.007 159.268C165.655 160.671 163.423 162.418 161.789 164.639C159.761 167.396 158.886 170.605 158.337 173.94C157.6 178.419 157.064 182.939 156.558 187.449C156.305 189.717 156.07 191.989 155.856 194.261C155.744 195.464 155.636 196.668 155.536 197.873L155.515 198.112C155.445 198.853 155.354 199.463 155.103 200.047C156.707 200.475 158.331 200.797 159.967 201.086C161.899 201.43 163.866 201.629 165.824 201.749C166.834 201.811 167.846 201.831 168.858 201.847C169.361 201.855 169.865 201.843 170.369 201.847C170.657 201.849 170.892 201.927 171.142 201.978C170.918 194.817 173.773 196.97 174.35 205.263L174.394 205.901C174.968 214.24 175.569 222.58 176.075 230.925L176.118 231.644C176.548 239.077 176.671 246.573 175.4 253.936C174.759 257.646 173.703 261.243 172.203 264.699C170.726 268.105 168.639 271.183 166.94 274.475C165.385 277.491 164.282 280.777 164.977 283.998C165.218 285.124 165.626 286.237 166.183 287.103C166.183 287.2 166.203 287.304 166.252 287.41C166.807 288.617 168.133 289.32 169.28 289.863C170.508 290.446 171.771 290.957 173.015 291.506L173.48 291.714C175.565 292.657 177.703 293.39 179.894 293.913C179.935 293.929 179.976 293.948 180.019 293.964C183.587 295.393 187.241 296.601 190.945 297.629C198.453 299.716 206.158 301.049 213.898 301.921C221.396 302.764 228.948 303.246 236.488 303.474C243.332 303.684 250.285 303.533 257.034 302.285C261.867 301.391 266.616 299.913 270.971 297.667C271.322 297.118 271.814 296.647 272.226 296.132C272.175 295.304 272.677 294.379 273.436 294.086C273.73 293.433 273.96 292.753 274.123 292.054C273.946 290.344 273.707 288.642 273.358 286.932C272.747 283.953 271.97 281.011 271.172 278.077L270.871 276.978C268.99 270.094 267.487 263.233 267.236 256.076C266.981 248.828 267.711 241.604 268.711 234.435C269.674 227.521 270.822 220.63 272.055 213.759L272.251 212.675C272.9 209.078 275.659 204.087 275.384 206.658C275.943 206.53 276.547 206.605 277.2 206.618C278.271 206.64 279.342 206.628 280.413 206.634L283.624 206.647L286.837 206.662C290.519 206.679 294.216 206.734 297.892 206.998C298.119 206.943 298.347 206.888 298.578 206.819C299.457 206.554 299.738 205.927 299.796 205.05C299.944 202.847 299.628 200.562 299.59 198.351C299.553 196.237 299.561 194.122 299.616 192.009L299.636 191.305C299.683 189.768 299.532 187.882 300.422 186.547C300.336 185.329 300.232 184.112 300.104 182.898C299.622 178.342 298.8 173.765 297.386 169.397C296.364 166.242 294.687 163.346 292.276 161.046C287.545 156.538 281.002 154.755 274.89 152.967C267.503 150.805 260.143 148.142 253.482 144.241ZM252.52 143.66C252.524 143.807 252.524 143.955 252.52 144.102C252.706 144.051 252.902 144.023 253.118 144.025C252.916 143.907 252.72 143.78 252.52 143.66Z" fill="#B6E3E0"/>
<path fill-rule="evenodd" clip-rule="evenodd" d="M276.337 332.206L276.194 333.165L275.46 333.152L275.313 334.544C275.24 335.241 275.156 335.926 275.062 336.603C274.927 337.59 274.764 338.586 274.575 339.591L274.493 340.023L274.316 340.93L275.04 341.507C275.85 342.153 276.619 342.969 277.523 344.068C278.989 345.851 280.128 347.926 280.926 350.231C281.678 352.405 282.036 354.686 281.971 356.931C281.938 358.027 281.77 359.089 281.464 360.129C281.381 360.408 281.295 360.669 281.204 360.915L281.158 361.037L280.893 361.718L281.258 362.35C281.428 362.645 281.444 362.947 281.347 363.118L281.332 363.142L267.473 383.346L266.541 384.714L267.877 385.558C267.994 385.631 268.116 385.713 268.256 385.81L268.403 385.912L269.162 386.449L269.989 386.023C270.118 385.957 270.283 385.932 270.394 385.954C270.861 386.047 271.18 386.201 271.72 386.573L272.276 386.963C272.674 387.238 273.011 387.446 273.394 387.64C274.312 388.106 275.818 388.492 276.862 388.556C278.372 388.647 279.325 388.533 280.721 388.09C281.839 387.734 282.988 387.095 283.796 386.352C285.504 384.782 286.446 382.963 287.536 379.775L287.587 379.625L287.89 378.715L288.182 377.824C289.024 375.265 289.559 373.897 290.333 372.522C290.953 371.424 291.691 370.465 292.496 369.736L292.56 369.68C292.724 369.539 292.933 369.386 293.265 369.162L293.618 368.926C294.807 368.128 295.407 367.614 295.889 366.765C296.326 365.996 296.564 365.135 296.736 363.985L296.792 363.588C296.805 363.492 296.818 363.383 296.839 363.207L296.909 362.629C296.923 362.512 296.935 362.416 296.947 362.328L296.965 362.201L296.981 362.091C297.16 360.89 297.298 359.672 297.395 358.436L297.426 358.023L297.448 357.707L297.472 357.318C297.833 351.061 296.983 345.976 294.345 341.877C292.574 339.126 290.098 337.114 286.879 335.581L286.68 335.487L286.473 335.391C284.328 334.407 282.206 333.738 278.507 332.769L277.984 332.633L276.337 332.206ZM190.092 368.943L187.367 370.314L186.997 370.498C185.306 371.328 183.661 372.034 180.75 373.209L179.578 373.68L176.724 374.825L179.361 376.406C179.501 376.49 179.641 376.586 179.841 376.735L180.317 377.097L180.459 377.203C180.594 377.303 180.711 377.386 180.838 377.473C181.761 378.094 182.678 378.577 183.597 378.897C184.881 379.348 186.217 379.501 187.593 379.381L187.74 379.367L189.005 379.238L189.11 377.974C189.265 376.109 189.449 374.27 189.663 372.457L189.744 371.778L190.092 368.943Z" fill="white"/>
<path fill-rule="evenodd" clip-rule="evenodd" d="M92.9748 335.992C93.34 335.442 93.7133 334.899 94.0968 334.361C93.6439 334.852 93.1972 335.35 92.7626 335.855C92.8381 335.894 92.9095 335.941 92.9748 335.992M135.232 300.653C135.303 300.6 135.383 300.553 135.474 300.516C135.686 300.429 135.899 300.337 136.111 300.25C136.513 299.694 136.89 299.124 137.243 298.542C136.505 299.311 135.756 300.058 134.948 300.759C135.042 300.724 135.138 300.69 135.232 300.653M142.186 297.682C145.63 295.852 149.1 294.071 152.579 292.324C152.878 292.173 153.17 292.177 153.417 292.277C154.912 291.509 156.416 290.752 157.936 290.033C158.86 289.597 159.792 289.186 160.72 288.771C160.792 288.665 160.857 288.555 160.912 288.437C161.469 287.25 160.941 285.776 160.582 284.609C160.49 284.316 160.529 284.062 160.645 283.862C160.449 282.158 160.523 280.444 160.859 278.898C161.659 275.217 163.636 271.862 165.517 268.643C167.449 265.338 169.142 262.02 170.237 258.341C172.439 250.956 172.608 243.225 172.449 235.584C172.273 227.096 171.782 218.61 171.441 210.128C171.339 207.6 171.239 205.071 171.157 202.54C170.96 202.658 170.8 202.78 170.505 202.868C170.023 203.008 169.532 203.124 169.044 203.238C168.071 203.466 167.083 203.625 166.094 203.762C164.233 204.018 162.379 204.134 160.502 204.108C160.272 204.104 160.041 204.098 159.813 204.089C160.898 209.585 160.829 215.404 160.929 220.958C161.047 227.381 161.361 233.868 160.645 240.269C159.945 246.526 158.093 252.499 156.071 258.438C153.99 264.551 151.848 270.644 149.826 276.775C148.686 280.234 147.542 283.693 146.395 287.15C145.844 288.816 145.291 290.481 144.741 292.144C144.137 293.967 143.835 296.111 142.305 297.385C142.135 297.526 141.946 297.634 141.742 297.709C141.707 297.78 141.674 297.849 141.638 297.921C141.821 297.841 142.003 297.762 142.186 297.682M164.972 283.992C165.213 285.118 165.621 286.232 166.178 287.097C166.178 287.195 166.198 287.299 166.247 287.405C166.802 288.612 168.128 289.314 169.275 289.858C170.656 290.514 172.082 291.078 173.475 291.709C175.56 292.651 177.698 293.384 179.889 293.908C179.93 293.924 179.971 293.942 180.014 293.959C183.582 295.388 187.236 296.595 190.94 297.623C198.448 299.71 206.153 301.044 213.893 301.915C221.39 302.758 228.943 303.241 236.483 303.469C243.327 303.678 250.28 303.528 257.029 302.28C261.861 301.386 266.611 299.908 270.966 297.662C271.317 297.112 271.809 296.642 272.221 296.127C272.17 295.298 272.672 294.374 273.431 294.081C273.724 293.427 273.955 292.747 274.118 292.049C273.941 290.339 273.702 288.636 273.353 286.926C272.666 283.575 271.768 280.271 270.866 276.972C268.985 270.088 267.482 263.227 267.231 256.071C266.976 248.822 267.706 241.599 268.706 234.43C269.72 227.151 270.938 219.899 272.245 212.669C272.988 208.559 273.704 204.44 274.49 200.335C275.283 196.184 275.909 191.951 276.944 187.85C276.976 187.718 277.193 187.742 277.186 187.885C277.044 191.57 276.534 195.263 276.177 198.934C275.926 201.51 275.654 204.081 275.379 206.653C275.938 206.525 276.542 206.6 277.195 206.612C278.266 206.634 279.337 206.622 280.408 206.628C282.548 206.637 284.69 206.647 286.832 206.657C290.514 206.673 294.211 206.728 297.887 206.993C298.114 206.938 298.342 206.883 298.573 206.814C299.452 206.549 299.733 205.922 299.79 205.044C299.939 202.841 299.623 200.557 299.584 198.346C299.544 195.996 299.558 193.647 299.631 191.299C299.678 189.762 299.527 187.877 300.417 186.541C300.331 185.324 300.227 184.106 300.099 182.893C299.617 178.336 298.795 173.759 297.381 169.392C296.359 166.236 294.682 163.341 292.271 161.04C287.54 156.533 280.997 154.749 274.885 152.961C267.498 150.799 260.138 148.136 253.477 144.235C253.558 144.412 253.507 144.644 253.267 144.693C252.879 144.773 252.593 144.982 252.381 145.269C252.287 145.746 252.149 146.216 251.961 146.676C251.922 146.77 251.873 146.853 251.818 146.927C251.724 147.613 251.714 148.315 251.665 148.81C251.502 150.488 251.198 152.127 250.737 153.747C249.809 157.007 248.354 160.14 246.432 162.936C242.573 168.543 236.809 172.825 230.189 174.555C223.506 176.3 216.094 175.569 210.086 172.075C204.529 168.844 200.223 163.496 198.962 157.135C198.291 153.755 198.399 150.315 199.031 146.939C199.133 146.397 199.245 145.842 199.372 145.282C195.135 148.916 189.7 151.145 184.457 152.866C178.853 154.704 173.108 156.215 168.002 159.263C165.65 160.666 163.418 162.413 161.784 164.634C159.756 167.391 158.881 170.599 158.332 173.934C157.595 178.413 157.059 182.933 156.553 187.443C156.3 189.711 156.065 191.983 155.851 194.256C155.739 195.459 155.631 196.662 155.531 197.867C155.457 198.719 155.376 199.397 155.098 200.042C156.702 200.469 158.326 200.791 159.962 201.08C161.894 201.424 163.86 201.624 165.819 201.744C166.829 201.805 167.841 201.825 168.852 201.842C169.356 201.85 169.86 201.838 170.364 201.842C170.652 201.844 170.886 201.921 171.137 201.972C170.913 194.811 170.839 187.645 171.274 180.494C171.284 180.313 171.578 180.248 171.611 180.449C173.047 188.858 173.806 197.391 174.389 205.895C174.962 214.235 175.564 222.574 176.07 230.92C176.533 238.587 176.707 246.33 175.395 253.931C174.754 257.64 173.698 261.238 172.198 264.693C170.721 268.099 168.634 271.178 166.935 274.47C165.38 277.485 164.277 280.771 164.972 283.992M175.621 361.35C178.652 360.473 181.513 359.213 184.337 357.814C187.061 356.464 189.95 355.026 192.258 353.033C192.308 352.99 192.255 352.9 192.193 352.922C189.346 353.936 186.649 355.442 183.876 356.654C180.995 357.914 178.048 359.017 175.157 360.251C174.517 360.525 174.984 361.535 175.621 361.35M181.69 376.211C182.434 376.711 183.252 377.166 184.101 377.461C185.254 377.866 186.421 377.97 187.581 377.852C187.755 375.765 187.967 373.678 188.222 371.597C185.609 372.912 182.875 374.006 180.145 375.101C180.686 375.425 181.151 375.846 181.69 376.211M192.395 365.458C192.473 366.301 193.599 366.283 193.696 365.458C194.133 361.727 194.352 357.965 194.727 354.227C195.393 347.597 196.494 341.072 198.009 334.585C198.391 332.946 198.79 331.313 199.231 329.689C199.46 328.847 200.237 327.369 199.714 326.508C199.071 325.448 198.181 326.947 198.868 327.033C198.938 327.041 198.937 326.941 198.883 326.92C199.417 327.132 199.046 327.612 198.906 327.991C198.771 328.356 198.633 328.72 198.499 329.086C198.231 329.816 197.969 330.549 197.715 331.284C197.165 332.876 196.649 334.476 196.192 336.097C195.3 339.268 194.515 342.476 193.912 345.713C192.708 352.169 191.787 358.884 192.395 365.458M269.282 384.67C269.712 384.448 270.231 384.369 270.688 384.46C272.193 384.76 272.791 385.629 274.082 386.283C274.841 386.667 276.153 386.987 276.949 387.036C278.273 387.115 279.038 387.024 280.252 386.639C281.135 386.358 282.098 385.837 282.755 385.232C284.503 383.626 285.366 381.402 286.131 379.144C286.974 376.654 287.698 374.079 288.995 371.776C289.648 370.62 290.476 369.502 291.464 368.608C292.402 367.759 293.914 367.142 294.552 366.016C295.211 364.856 295.266 363.174 295.462 361.869C295.658 360.56 295.801 359.242 295.895 357.923C296.26 352.788 295.917 347.157 293.053 342.706C289.456 337.121 282.944 335.501 276.908 333.937C276.816 334.898 276.706 335.857 276.573 336.814C276.412 337.987 276.216 339.155 275.99 340.318C277.077 341.185 278.034 342.293 278.701 343.103C280.323 345.076 281.533 347.326 282.367 349.736C283.171 352.059 283.567 354.523 283.495 356.98C283.459 358.202 283.271 359.393 282.926 360.566C282.83 360.89 282.716 361.24 282.579 361.592C283.006 362.331 283.085 363.286 282.589 364.009C278.16 370.465 273.731 376.919 269.302 383.375C269.098 383.672 268.894 383.972 268.69 384.271C268.89 384.397 269.086 384.532 269.282 384.67M276.939 333.61C277.247 333.614 277.555 333.622 277.865 333.63C277.563 333.547 277.262 333.463 276.96 333.38C276.953 333.457 276.947 333.532 276.939 333.61M277.117 331.311C279.861 332.06 282.601 332.832 285.259 333.848C286.813 334.443 288.647 335.082 290.202 336.02C290.661 336.238 291.108 336.474 291.544 336.733C291.483 336.411 291.485 336.071 291.563 335.729C291.922 334.127 292.189 332.506 292.489 330.892C292.521 330.719 292.56 330.368 292.625 329.965C292.332 329.434 292.111 328.856 291.862 328.28C291.41 327.235 290.957 326.189 290.502 325.144C289.649 323.175 288.796 321.206 287.943 319.24C286.195 315.206 284.455 311.163 282.778 307.099C281.642 304.342 280.503 301.583 279.408 298.808C279.104 299.165 278.633 299.409 277.992 299.433C274.901 299.543 274.491 303.624 274.746 305.89C274.94 307.614 275.403 309.31 275.728 311.014C276.058 312.755 276.331 314.504 276.568 316.259C277.235 321.249 277.427 326.294 277.117 331.311M302.987 371.858C306.731 371.64 310.501 371.999 314.157 372.821C317.69 373.615 321.124 374.802 324.661 375.592C326.385 375.977 328.129 376.241 329.9 376.282C330.751 376.3 331.61 376.278 332.456 376.182C332.562 376.17 332.697 376.133 332.834 376.099C332.591 375.356 332.156 374.731 331.534 374.106C330.669 373.236 329.941 372.756 328.866 372.068C326.701 370.683 324.447 369.429 322.654 367.556C320.359 365.155 319.271 362.077 318.704 358.862C318.096 355.417 317.704 351.936 317.121 348.487C316.642 345.638 316.091 342.79 315.416 339.976C314.624 337.498 313.592 335.1 312.419 332.767C311.519 330.979 310.523 329.248 309.552 327.502C308.74 328.253 307.529 328.114 306.841 327.143C306.523 326.693 306.145 326.258 305.996 325.716C305.854 325.201 305.901 324.606 305.897 324.079C305.888 323.087 305.88 322.096 305.872 321.102C305.854 319.052 305.831 317 305.803 314.95C305.748 310.979 305.666 307.009 305.531 303.039C305.26 295.056 304.825 287.077 303.924 279.136C302.155 263.547 297.663 248.448 295.727 232.885C295.488 230.971 295.28 229.034 295.127 227.084C294.284 221.1 294.14 215.027 294.707 208.998C288.132 208.941 281.558 209.271 275.02 209.986C274.23 217.317 273.329 224.629 272.396 231.94C271.483 239.092 270.699 246.306 270.783 253.525C270.824 257.078 271.066 260.639 271.652 264.145C272.217 267.533 273.076 270.862 273.99 274.171C274.908 277.487 275.895 280.788 276.705 284.133C277.933 287.207 279.269 290.237 280.644 293.248C284.113 300.844 287.699 308.383 291.096 316.012C292.075 318.215 293.044 320.422 294.019 322.627C294.507 323.731 294.994 324.834 295.482 325.936C296.031 327.178 296.741 328.389 296.735 329.778C296.73 330.606 296.237 331.207 295.594 331.474C295.868 333.076 295.957 334.701 295.976 336.326C295.986 337.295 295.347 338.093 294.503 338.404C294.505 338.614 294.511 338.822 294.521 339.031C294.533 339.044 294.546 339.056 294.558 339.066C298.991 343.541 300.197 350.03 300.16 356.099C300.141 359.273 299.817 362.474 299.274 365.599C298.942 367.517 298.103 369.099 296.565 370.313C295.478 371.17 294.242 371.999 293.534 373.041C293.389 373.257 293.252 373.475 293.122 373.696C296.161 372.424 299.791 372.043 302.987 371.858M252.515 143.655C252.519 143.801 252.519 143.95 252.515 144.097C252.701 144.046 252.897 144.017 253.113 144.019C252.911 143.901 252.715 143.775 252.515 143.655M84.0623 346.184C85.5312 342.297 87.7283 338.789 90.3457 335.574C92.9794 332.339 95.9987 329.444 99.0895 326.648C102.349 323.7 105.654 320.795 108.99 317.932C115.557 312.297 122.407 306.901 129.95 302.634C129.952 302.63 129.954 302.626 129.958 302.622C129.97 302.615 129.982 302.611 129.997 302.605C131.223 301.913 132.467 301.245 133.732 300.616C134.04 300.463 134.336 300.474 134.587 300.579C134.593 300.571 134.597 300.561 134.605 300.555C135.509 299.71 136.46 298.957 137.443 298.208C138.257 296.817 138.938 295.353 139.458 293.812C139.509 293.661 139.591 293.539 139.687 293.435C139.891 292.877 140.119 292.324 140.321 291.768C140.872 290.243 141.411 288.714 141.955 287.187C143.045 284.133 144.132 281.077 145.226 278.025C147.411 271.923 149.51 265.79 151.627 259.664C153.617 253.91 155.657 248.132 156.666 242.112C157.713 235.882 157.474 229.47 157.558 223.179C157.605 219.547 157.627 215.904 157.815 212.278C157.958 209.505 158.141 206.74 158.645 204.022C157.223 203.918 155.808 203.729 154.404 203.487C152.86 203.218 149.634 203.023 149.702 200.82C149.728 199.989 150.365 199.411 151.136 199.199C151.315 199.148 151.497 199.128 151.68 199.126C151.517 197.737 151.858 196.23 151.991 194.858C152.191 192.786 152.407 190.713 152.641 188.644C153.113 184.475 153.655 180.311 154.259 176.158C154.808 172.387 155.369 168.594 157.136 165.163C158.478 162.555 160.471 160.285 162.768 158.473C172.32 150.938 185.24 150.75 195.281 144.19C197.878 142.492 200.202 140.369 201.881 137.746C202.839 136.246 203.482 134.629 203.939 132.913C204.235 131.805 204.512 130.722 204.867 129.633C205.216 128.568 205.314 127.695 205.973 126.756C206.044 126.654 206.197 126.691 206.206 126.817C206.269 127.786 206.093 128.637 206.044 129.602C205.995 130.608 206.028 131.6 205.926 132.612C205.902 132.866 205.871 133.121 205.84 133.373C205.875 133.434 205.904 133.501 205.926 133.575C206.393 135.061 206.138 136.671 205.345 137.956C205.355 138.09 205.345 138.227 205.308 138.363C204.908 139.847 204.182 141.22 203.639 142.659C203.125 144.025 202.688 145.422 202.35 146.843C201.711 149.525 201.462 152.281 201.73 155.03C202.305 160.922 205.808 165.943 210.712 169.141C216.157 172.692 223.063 173.576 229.33 172.037C235.721 170.467 241.007 166.395 244.74 161.059C246.815 158.094 248.402 154.765 249.392 151.288C249.771 149.954 249.996 148.553 250.359 147.21C250.004 147.016 249.79 146.636 249.996 146.135C250.534 144.823 250.62 143.531 250.222 142.187C246.597 139.736 243.229 136.869 240.358 133.566C237.504 130.282 234.546 126.294 233.314 122.075C232.831 120.418 235.321 119.31 236.146 120.884C237.047 122.605 237.786 124.378 238.771 126.06C239.761 127.754 240.893 129.362 242.148 130.871C244.645 133.876 247.548 136.559 250.718 138.848C257.787 143.95 265.957 147.228 274.242 149.791C280.658 151.776 287.37 153.507 292.696 157.807C298.57 162.549 300.592 170.005 301.695 177.163C302.162 180.191 302.434 183.237 302.556 186.293C302.685 186.537 302.715 186.824 302.585 187.093C302.766 192.826 302.436 198.584 301.887 204.293C301.889 204.898 301.844 205.494 301.709 206.06C301.644 206.689 301.577 207.318 301.508 207.946C301.491 208.104 301.414 208.212 301.263 208.267C300.683 208.475 300.104 208.599 299.518 208.638C299.418 208.672 299.316 208.703 299.214 208.731C299.051 208.941 298.794 209.082 298.441 209.071C298.239 209.065 298.037 209.061 297.837 209.055C297.607 209.12 297.382 209.2 297.17 209.312C297.011 209.395 296.854 209.432 296.705 209.436C296.448 212.349 296.358 215.271 296.434 218.185C296.66 222.287 297.168 226.371 297.97 230.462C299.457 238.052 301.618 245.508 303.59 252.982C307.662 268.396 309.545 284.165 310.274 300.066C310.48 304.56 310.578 309.061 310.651 313.559C310.688 315.744 310.714 317.926 310.737 320.111C310.747 321.235 310.757 322.359 310.767 323.484C310.774 324.01 310.81 324.547 310.776 325.071C310.767 325.201 310.749 325.321 310.727 325.439C310.729 325.443 310.731 325.447 310.733 325.453C312.867 328.355 314.493 331.702 315.917 334.994C317.373 338.357 318.611 341.815 319.568 345.353C320.527 348.898 321.223 352.477 321.892 356.085C322.451 359.092 323.1 362.425 325.425 364.616C327.182 366.269 329.63 367.383 331.705 368.725C334.071 370.255 336.191 372.127 337.123 374.863C337.772 376.761 337.458 378.937 335.536 379.931C333.881 380.786 331.535 380.721 329.718 380.637C325.876 380.458 322.139 379.42 318.458 378.377C314.413 377.231 310.404 376.184 306.177 376.07C304.06 376.013 301.92 376.113 299.826 376.443C297.652 376.783 295.567 377.508 293.402 377.854C292.682 377.972 291.962 377.819 291.483 377.331C290.106 381.215 289.316 385.448 286.16 388.443C283.732 390.744 280.281 391.919 276.949 391.725C275.152 391.619 273.446 391.181 271.826 390.396C271.051 390.019 270.352 389.532 269.68 388.993C269.268 388.663 268.981 388.307 268.781 387.912C268.177 387.545 267.581 387.167 266.994 386.778C263.67 391.709 260.367 396.681 256.657 401.317C252.458 406.561 247.388 410.851 241.07 413.299C235.181 415.579 228.665 416.029 222.416 415.497C215.822 414.936 209.343 413.439 203.021 411.529C199.932 410.597 196.725 409.736 193.796 408.365C190.668 406.903 188.504 404.33 187.769 400.942C187.047 397.611 187.133 394.05 187.108 390.66C187.084 387.162 187.17 383.656 187.406 380.167C187.408 380.157 187.408 380.148 187.408 380.138C186.258 380.602 185.007 380.849 183.773 380.912C182.533 380.975 181.243 380.818 180.08 380.374C178.693 379.847 176.775 378.978 176.522 377.331C176.484 377.09 176.482 376.836 176.512 376.585C175.668 376.942 174.827 377.308 173.999 377.693C171.404 378.894 168.817 380.12 166.271 381.421C164.998 382.07 163.748 382.785 162.454 383.394C162.107 383.557 161.758 383.738 161.406 383.921C160.118 384.778 158.843 385.654 157.574 386.546C153.986 389.068 150.44 391.65 146.835 394.146C143.129 396.713 139.35 399.248 135.24 401.13C131.021 403.062 126.537 404.291 121.863 404.118C116.875 403.935 112.013 402.528 107.211 401.292C104.812 400.677 102.413 400.061 100.014 399.444C99.679 399.592 99.2731 399.57 98.9344 399.238C98.9018 399.205 98.8691 399.173 98.8365 399.14C98.4917 399.053 98.147 398.963 97.8022 398.876C97.6512 398.668 97.5043 398.456 97.3554 398.247C94.7176 397.004 92.5082 394.771 90.8312 392.293C90.7048 392.185 90.5762 392.081 90.4518 391.971C87.4855 389.374 85.1925 386.151 83.6522 382.528C80.5738 375.288 80.4024 367.102 81.2409 359.389C81.7284 354.914 82.4649 350.411 84.0623 346.184Z" fill="black"/>
<path fill-rule="evenodd" clip-rule="evenodd" d="M177.693 91.6311C178.464 78.9668 182.573 64.6087 194.667 58.3908C221.327 47.69 256.38 74.6376 258.235 102.167C258.882 111.59 253.651 121.887 244.091 124.507C241.965 127.324 238.751 129.044 235.578 130.536C197.789 150.145 173.378 134.205 177.693 91.6311V91.6311Z" fill="#D08B5B"/>
<path fill-rule="evenodd" clip-rule="evenodd" d="M169.084 83.7535C170.419 80.0439 171.83 76.3628 173.314 72.7102C174.76 69.1554 176.065 65.5237 177.86 62.1373C188.58 41.9117 208.075 41.9117 218.152 44.5544C223.378 42.3026 233.166 42.9378 238.607 44.9698C247.417 48.2593 258.155 61.1997 261.827 67.0137C269.933 79.8505 274.992 96.936 269.607 111.769C268.903 113.708 268.006 115.504 266.995 117.234C267.632 118.097 268.365 118.914 269.176 119.717C271.588 122.104 274 124.412 276.084 127.104C278.154 129.779 279.871 132.623 281.149 135.76C283.558 141.675 283.674 148.372 280.489 154.016C277.717 158.927 272.808 162.584 267.276 162.933C266.992 162.972 266.708 163.009 266.422 163.037C265.689 164.245 264.796 165.356 263.776 166.326C260.651 169.298 253.202 170.823 248.953 170.921C248.735 171.096 248.516 171.271 248.296 171.444C245.696 173.49 242.968 175.555 239.984 177.01C237.962 177.998 235.312 178.822 233.203 178.11C232.246 178.749 230.676 178.615 229.727 178.092C228.168 177.232 226.9 175.685 226.128 174.101C224.257 170.255 224.707 166.047 225.188 161.938C225.717 157.4 226.226 152.859 226.743 148.321C227.148 144.772 227.572 141.165 228.651 137.746C229.208 135.975 229.939 134.273 230.884 132.672C230.859 132.538 230.863 132.404 230.902 132.277C231.212 131.272 231.851 130.744 232.608 130.06C232.706 129.973 232.803 129.883 232.899 129.792C233.278 129.36 233.683 128.959 234.117 128.619C234.283 128.45 234.448 128.279 234.613 128.108C235.983 126.672 237.278 125.164 238.428 123.547C239.544 121.979 240.552 120.342 241.51 118.675C242.486 116.979 243.131 115.108 244.104 113.424C244.188 113.28 244.399 113.251 244.517 113.371C244.819 113.683 245.012 114.029 244.975 114.393L245.126 114.416C245.183 113.866 245.69 113.418 246.378 113.538C247.408 113.717 248.255 113.785 249.147 113.442C248.99 112.402 248.845 111.36 248.703 110.315C248.442 108.393 248.2 106.465 247.992 104.537C247.49 104.657 246.991 104.83 246.502 105.05C245.806 105.362 245.148 105.781 244.587 106.296C244.033 106.805 243.65 107.491 242.974 107.845C242.197 108.251 241.258 107.581 241.486 106.701C241.948 104.924 244.564 103.906 246.183 103.57C246.738 103.454 247.306 103.405 247.874 103.417C247.746 102.179 247.632 100.941 247.538 99.7015C247.494 99.1151 247.453 98.5288 247.414 97.9404C246.156 97.5596 244.808 97.4456 243.499 97.6248C243.068 97.9689 242.636 98.3089 242.219 98.653C240.894 99.7483 239.574 100.85 238.272 101.972C238.153 102.071 238.037 102.171 237.919 102.273C237.146 102.939 236.181 102.279 236.311 101.336C237.374 93.6118 232.643 87.4672 227.103 82.707C220.972 77.4358 209.824 76.822 202.532 67.6915C199.173 68.3751 191.675 70.4055 188.58 75.3367C184.248 82.2469 184.814 88.4384 184.485 96.277C184.155 104.122 183.316 112.304 185.097 120.039C186.74 127.171 191.188 133.265 198.09 136.066C198.261 136.136 198.434 136.203 198.607 136.268C202.175 137.614 206.07 137.995 209.824 137.286C213.979 136.5 217.448 134.599 220.904 132.259C221.104 132.127 221.395 132.4 221.244 132.599C216.688 138.638 207.739 140.656 200.64 139.061C200.309 138.986 199.979 138.905 199.651 138.815C201.239 143.382 200.919 148.394 198.851 152.841C197.607 155.516 195.71 157.831 193.399 159.658C190.852 161.669 187.693 163.294 185.926 166.118C184.307 168.706 184.788 171.613 187.559 173.107C188.257 173.486 188.526 174.71 187.833 175.247C187.569 175.451 187.304 175.659 187.033 175.862C185.482 177.033 181.221 179.232 180.531 179.313C174.403 180.04 170.283 175.54 167.643 170.233C164.542 164.002 165.348 156.41 168.764 150.477C171.504 145.717 176.901 141.026 174.756 135.002C173.99 132.85 172.425 131.015 170.904 129.358C169.169 127.471 167.305 125.703 165.641 123.749C163.988 121.808 162.523 119.697 161.704 117.262C160.509 113.703 161.104 109.855 162.001 106.302C163.925 98.6754 166.423 91.1503 169.084 83.7535Z" fill="black"/>
<path fill-rule="evenodd" clip-rule="evenodd" d="M203.275 123.571C204.646 123.013 205.87 122.081 206.764 120.892C207.075 120.478 207.156 120.041 207.091 119.642C207.017 119.193 206.751 118.786 206.388 118.513C206.024 118.239 205.568 118.104 205.127 118.172C204.745 118.232 204.364 118.441 204.062 118.875L203.999 118.962C203.467 119.68 202.774 120.269 201.984 120.649C201.223 121.015 200.372 121.186 199.491 121.086C197.813 120.897 196.657 119.992 195.428 118.762C195.276 118.607 195.123 118.447 194.97 118.284C194.873 118.137 194.739 118.042 194.59 117.992C194.424 117.937 194.237 117.94 194.066 118C193.9 118.057 193.753 118.166 193.653 118.312C193.559 118.45 193.506 118.62 193.523 118.817C193.636 120.091 194.303 121.228 195.251 122.121C196.305 123.113 197.701 123.799 199.015 124.04C200.463 124.305 201.939 124.115 203.275 123.571V123.571ZM198.333 103.911C196.792 104.846 194.445 107.025 196.102 109.342C198.053 111.385 200.862 109.043 202.246 107.983C203.529 107.162 204.971 109.274 203.78 110.232C193.779 117.622 189.721 104.156 197.554 102.813C198.416 102.665 198.737 103.622 198.333 103.911ZM216.254 95.315C216.084 93.2064 212.866 92.7276 212.546 94.8141C212.26 96.6832 212.597 98.4001 213.441 100.083C214.247 101.69 216.273 100.94 216.426 99.4766C216.631 97.5143 216.36 96.6266 216.254 95.315ZM191.759 94.3821C191.31 93.7957 190.663 93.3954 189.887 93.6216C187.462 94.3287 188.177 97.7641 189.028 99.4362C189.491 100.344 190.987 100.575 191.662 99.775C192.764 98.4712 193.292 95.8673 191.891 94.583C191.853 94.5166 191.811 94.4497 191.759 94.3821ZM213.475 86.0886L213.092 86.0217C211.907 85.8172 210.434 85.6207 209.596 86.5714C209.151 87.0755 208.998 88.0125 209.596 88.495C210.647 89.344 211.809 89.015 213.068 89.0869C214.106 89.1463 215.104 89.3177 216.104 89.603C218.297 90.2286 220.085 91.3708 221.958 92.625C222.204 92.7895 222.455 92.4758 222.337 92.2463C221.256 90.1323 219.16 88.3958 217.061 87.3373C215.941 86.7723 214.714 86.3036 213.475 86.0886ZM193.971 85.1419L193.678 85.2018C190.488 85.8673 186.343 87.1967 184.832 90.3239C184.775 90.766 184.835 90.8608 184.885 90.9227L184.901 90.9433C184.942 90.9962 184.975 91.0691 185.167 91.1293C185.22 91.1166 185.274 91.1032 185.328 91.089C186.021 90.9079 186.569 90.6584 187.099 90.3995L187.674 90.1167C188.341 89.7902 189.014 89.4756 189.728 89.2433C191.25 88.7478 192.816 88.3987 194.406 88.2123C194.751 88.1719 195.082 88.0558 195.344 87.8569C195.593 87.6681 195.783 87.4066 195.869 87.0591C195.981 86.6093 195.949 86.2688 195.707 85.863C195.526 85.5583 195.265 85.3471 194.967 85.2258C194.662 85.1022 194.315 85.073 193.971 85.1419Z" fill="black"/>
</svg>
