<svg width="24" height="24" viewBox="0 0 24 24" fill="none" xmlns="http://www.w3.org/2000/svg">
<path fill-rule="evenodd" clip-rule="evenodd" d="M3.70711 20.3448C3.31658 19.9543 3.37245 19.2652 3.83189 18.8058L18.8059 3.83178C19.2654 3.37234 19.9544 3.31647 20.3449 3.70699C20.7354 4.09752 20.6796 4.78655 20.2201 5.24599L5.2461 20.22C4.78666 20.6795 4.09763 20.7353 3.70711 20.3448Z" fill="#899193"/>
<path fill-rule="evenodd" clip-rule="evenodd" d="M3.70696 3.70711C4.09748 3.31658 4.78651 3.37245 5.24595 3.83189L20.22 18.8059C20.6794 19.2654 20.7353 19.9544 20.3448 20.3449C19.9542 20.7354 19.2652 20.6796 18.8058 20.2201L3.83174 5.2461C3.3723 4.78666 3.31643 4.09763 3.70696 3.70711Z" fill="#899193"/>
</svg>
