<svg width="645" height="503" viewBox="0 0 645 503" fill="none" xmlns="http://www.w3.org/2000/svg">
<g clip-path="url(#clip0_184_3116)">
<path fill-rule="evenodd" clip-rule="evenodd" d="M48.122 331.239C49.5056 327.44 47.4853 323.65 46.3646 319.974C42.3834 307.226 53.2728 275.071 60.8886 274.601C63.6738 267.393 71.1073 264.403 76.9578 260.252C83.597 256.107 90.0551 251.346 96.9598 247.712C97.3438 244.278 101.506 243.427 104.051 245.883C111.042 241.533 119.425 242.341 126.918 239.491C132.612 230.285 133.039 220.604 134.547 211.722C135.204 207.851 134.506 204.115 137.15 200.663C146.034 188.164 181.137 182.745 194.08 190.152C201.046 185.805 201.214 193.677 202.321 198.535C203.551 200.966 204.216 203.719 204.01 206.619C207.309 213.51 210.105 222.129 217.036 227.276C225.832 233.806 239.363 236.289 247.938 239.491C249.861 237.64 250.449 234.963 250.449 234.963C263.739 237.853 276.637 242.933 287.772 250.866C300.422 254.567 309.331 264.859 315.774 275.894C316.483 277.058 316.651 278.244 316.443 279.333C336.254 308.382 345.709 343.159 347.037 378.282C359.777 385.931 340.982 454.638 336.607 468.902C336.603 468.9 336.598 468.898 336.594 468.896C333.755 473.923 330.532 488.267 323.429 487.157C318.556 492.669 310.79 491.585 304.177 492.009C305.255 496.141 304.725 500.87 303.443 504.954C301.927 509.815 294.487 509.98 293.432 504.68C227.58 517.478 160.014 507.266 93.422 509.187C74.1682 509.324 54.9162 509.92 35.7086 511.292C33.004 511.485 30.2619 508.72 30.446 506.027C34.5756 462.078 38.4537 404.263 43.0716 360.745C44.1668 350.82 45.033 340.787 48.122 331.239Z" fill="#D08B5B"/>
<path fill-rule="evenodd" clip-rule="evenodd" d="M250.38 235.253C250.405 235.156 250.428 235.059 250.449 234.961C263.739 237.851 276.637 242.931 287.772 250.864C300.422 254.565 309.331 264.857 315.774 275.892L315.859 276.038C316.497 277.154 316.642 278.287 316.443 279.331C336.254 308.38 345.709 343.157 347.037 378.28C359.777 385.929 340.982 454.636 336.607 468.9L336.594 468.894C335.886 470.146 335.155 471.978 334.346 474.004C331.908 480.11 328.762 487.988 323.429 487.155C319.467 491.636 313.593 491.758 307.982 491.874C306.691 491.901 305.414 491.927 304.177 492.006C305.255 496.139 304.725 503.511 303.443 507.595C301.927 512.456 91.5895 516.416 35.7087 511.29C33.0101 511.042 30.262 508.718 30.446 506.025C32.1803 487.568 33.8702 466.666 35.5892 445.404C37.9634 416.037 40.3931 385.985 43.0717 360.743C43.1765 359.793 43.2792 358.843 43.3819 357.892C44.353 348.903 45.3286 339.871 48.1221 331.237C49.227 328.203 48.1612 325.175 47.1162 322.206C46.8526 321.457 46.5904 320.712 46.3647 319.972C42.3834 307.223 52.5268 275.145 59.7993 274.668L60.8887 274.599C63.028 269.062 67.9099 266.014 72.7104 263.017C74.0159 262.202 75.3153 261.391 76.552 260.534L76.9579 260.25C79.221 258.837 81.4631 257.352 83.709 255.865C88.0518 252.99 92.4088 250.105 96.9598 247.71C97.3438 244.276 101.506 243.425 104.051 245.881C105.163 245.189 106.311 244.628 107.484 244.161L107.949 250.554C115.885 280.142 137.966 296.605 174.192 299.943C228.532 304.949 253.025 250.473 253.025 244.968C253.025 242.553 252.227 239.505 250.632 235.824L250.38 235.253ZM172.618 364.74L177.439 367.859C177.439 367.859 177.439 377.628 176.324 388.406C175.208 399.184 166.49 411.217 166.49 411.217C166.49 411.217 140.801 404.157 135.769 403.204C131.995 402.489 128.81 397.664 126.455 394.096C125.67 392.906 124.977 391.856 124.385 391.146C122.906 389.37 118.807 388.58 114.252 387.704C111.522 387.178 108.627 386.62 106.037 385.8C99.1249 383.612 96.4224 374.619 96.4224 374.619C96.4224 374.619 81.3153 371.357 76.4489 370.269C71.5826 369.18 76.4489 364.74 76.4489 364.74L114.167 363.42C114.167 363.42 91.5855 358.593 86.7486 357.928C81.9118 357.263 68.9189 353.228 68.9189 350.102C68.9189 347.085 88.0969 347.092 98.7505 347.097C99.1371 347.097 99.5125 347.097 99.8753 347.097C110.237 347.097 133.195 349.044 133.195 349.044L124.385 344.823C124.385 344.823 94.5696 339.048 90.5941 339.048C86.6185 339.048 84.9612 333.096 84.9612 333.096C84.9612 333.096 86.6701 329.131 89.514 326.925C92.3578 324.719 114.702 329.131 130.94 333.096C147.178 337.062 153.562 343.82 153.562 343.82L172.618 364.74Z" fill="#FFD948"/>
<path fill-rule="evenodd" clip-rule="evenodd" d="M113.925 327.658L94.5698 283.802C94.5698 283.802 91.6452 276.351 86.6791 276.351C81.7131 276.351 36.6824 277.761 36.6824 277.761C36.6824 277.761 27.4667 278.937 30.4424 283.802C33.4181 288.667 77.6654 379.194 77.6654 379.194H96.4314V374.62L75.5391 368.777C75.5391 368.777 71.7365 364.742 77.6654 364.742C83.5942 364.742 118.087 363.421 118.087 363.421L85.1973 358.594L68.9279 352.335L71.321 349.045L85.1973 347.062L130.387 349.045L118.087 344.884L90.6031 339.049C90.6031 339.049 85.1973 335.241 85.1973 331.507C85.1973 327.772 99.6783 326.336 99.6783 326.336L113.925 327.658Z" fill="white"/>
<path fill-rule="evenodd" clip-rule="evenodd" d="M201.238 192.864C201.049 192.348 200.28 192.416 200.265 192.995C199.962 205.352 203.037 220.453 212.922 228.8C217.996 233.084 224.705 235.045 230.866 237.298L231.561 237.555L242.445 241.611C245.332 242.687 248.446 244.342 250.996 242.822C248.933 247.94 247.201 253.2 244.687 258.133C241.559 264.274 237.777 269.892 233.148 275.002C214.809 295.247 185.786 301.422 159.741 295.49C146.329 292.436 133.278 286.647 124.128 276.088C117.174 268.062 113.179 257.291 112.238 246.666C112.513 246.71 112.801 246.708 113.098 246.643C116.393 245.924 119.72 244.157 122.62 242.424L122.899 242.256C125.689 240.576 128.597 238.651 130.599 236.04C132.588 233.448 134.675 224.992 134.675 224.992C135.243 221.814 135.777 215.483 135.685 212.27C135.677 211.967 134.332 211.788 134.189 212.103C132.947 214.83 132.545 220.823 131.586 223.661L131.393 224.228C130.369 227.192 129.491 230.801 127.368 233.197C123.382 237.697 117.369 239.601 112.002 241.858C111.616 236.773 103.496 236.891 103.599 242.195C103.605 242.483 103.618 242.769 103.628 243.056C102.987 243.408 102.372 243.811 101.796 244.199L101.234 244.581C99.1081 246.027 96.9658 247.402 94.702 248.629C90.3192 251.006 85.6792 252.89 81.1886 255.047C76.6455 257.229 72.3966 259.83 68.4295 262.942C66.5662 264.403 64.7795 265.959 63.085 267.613L62.6252 268.067C61.0122 269.674 58.9135 271.47 57.9945 273.582C57.7919 274.048 56.7772 275.131 56.2265 275.167C47.6943 275.726 39.1803 276.517 30.7017 277.701C28.5065 278.008 27.6389 279.14 28.4502 280.97C31.2385 287.259 42.1543 312.376 45.057 319.117C44.718 324.069 45.1759 329.899 44.8703 334.852C44.4234 342.081 43.8382 349.307 43.1367 356.515C40.6267 382.3 36.8216 407.959 33.3834 433.632C31.6625 446.48 30.0936 459.347 28.5449 472.217C27.7628 478.721 27.0992 485.231 26.5884 491.763C26.3756 494.484 26.1826 497.208 26.0124 499.932L25.8658 502.349C25.6628 505.39 25.1979 508.295 27.0794 510.905C27.9323 512.089 29.8804 512.756 31.002 511.411C32.412 509.72 32.936 508.456 33.0708 506.235C33.1738 504.535 33.1985 502.827 33.276 501.125C33.4433 497.435 33.6538 493.747 33.9004 490.062C34.3922 482.694 34.9537 475.328 35.6041 467.972C37.8838 442.18 42.2164 416.582 45.0993 390.854C46.5525 377.883 47.5847 364.888 48.1311 351.846C48.4046 345.332 48.5037 338.82 48.4394 332.301C48.4152 329.866 48.2998 327.442 48.1329 325.024C52.4518 334.839 56.9923 344.559 61.7392 354.149L62.8644 356.421C65.8727 362.483 68.9618 368.567 72.5773 374.282L73.1986 375.256C74.6636 377.578 76.6645 381.238 79.3356 381.97C81.196 382.481 83.4696 382.121 85.3772 382.085C87.2702 382.049 89.1655 382.041 91.0572 381.964C93.1793 381.879 95.204 381.6 97.2547 381.047C97.5955 380.955 97.9179 380.855 98.2116 380.729C100.278 384.111 103.788 386.687 107.377 388.187C110.252 389.39 113.266 390.214 116.284 390.976L117.349 391.244C120.585 392.05 124.286 392.433 126.111 395.559L126.535 396.284C127.892 398.589 129.193 400.614 131.439 402.267C133.856 404.047 136.72 405.167 139.572 406.038C142.493 406.929 145.482 407.612 148.448 408.343L149.256 408.544C151.214 409.035 153.189 409.484 155.135 410.018C155.966 410.245 156.811 410.479 157.625 410.76C158.579 411.087 159.272 411.599 160.025 412.156C160.701 414.52 163.592 415.803 165.969 415.638C167.217 415.552 168.337 415.128 169.356 414.507C171.135 416.022 173.093 417.378 174.906 418.781C177.444 420.746 179.993 422.697 182.556 424.63C187.84 428.614 193.164 432.545 198.544 436.399C208.093 443.24 217.849 449.768 227.771 456.053C231.908 458.674 236.073 461.291 240.279 463.845L239.83 464.011L238.94 464.348C236.835 465.134 234.49 466.404 234.083 468.859C233.759 470.807 234.847 472.15 236.77 472.388C239.054 472.67 240.833 471.055 242.255 469.514C242.883 468.834 243.586 468.202 244.188 467.502C244.433 467.216 244.621 466.887 244.787 466.542C248.938 468.988 253.133 471.352 257.394 473.563L258.461 474.113C269.028 479.518 279.313 485.44 289.97 490.691C292.75 492.061 296.139 493.543 299.672 494.555C298.735 498.19 298.749 502.18 298.725 505.87C298.703 509.465 304.415 509.448 304.294 505.87L304.236 504.142C304.132 501.236 303.962 498.22 303.273 495.392C313.682 497.119 324.081 493.366 326.017 492.239C328.154 490.996 330.094 489.007 331.708 487.162C335.162 483.212 337.56 478.478 339.687 473.715C344.242 463.515 347.47 452.611 349.83 441.708C358.53 401.506 354.788 358.478 340.659 319.941C337.129 310.312 332.962 300.896 328.186 291.82L327.593 290.698C322.828 281.724 317.531 272.783 310.804 265.145C303.796 257.191 295.151 251.004 285.739 246.202C281.146 243.858 276.42 241.827 271.589 240.027C270.813 239.738 270.032 239.478 269.249 239.231C264.215 236.021 258.106 232.95 251.994 233.071C251.579 233.078 251.242 233.236 250.991 233.473C250.697 233.525 250.402 233.587 250.107 233.673C249.456 233.862 248.768 234.576 248.862 235.31L248.893 235.554C248.91 235.673 248.932 235.788 248.969 235.9C248.751 235.933 248.537 235.985 248.326 236.057C242.479 234.405 236.726 231.879 231.02 229.841L229.72 229.382C224.941 227.707 220.038 226.065 216.118 222.749C212.218 219.451 209.285 215.178 207.165 210.56C204.553 204.87 203.383 198.705 201.238 192.864ZM84.1694 492.98C83.0117 492.118 81.6427 493.118 81.2094 494.184C79.7871 497.684 80.4899 503.122 82.4948 506.217C84.5723 509.423 89.5452 508.157 89.6654 504.274C89.7909 500.224 87.4377 495.413 84.1694 492.98ZM72.2111 396.341C72.1072 395.886 71.4009 395.89 71.2952 396.341C70.3313 400.447 70.3538 404.87 70.0708 409.08L70.038 409.547C69.6985 414.19 69.4132 418.846 69.2097 423.498C68.8103 432.649 68.333 441.8 67.798 450.945C67.5324 455.479 67.248 460.013 66.9446 464.546C65.9943 464.016 65.0154 463.551 64.0008 463.14C62.4807 462.526 61.0007 462.455 59.3675 462.472C57.3784 462.492 55.8808 464.242 56.1441 466.191C56.4312 468.314 58.2996 469.224 60.2398 468.921C62.3887 468.584 64.5468 468.063 66.7165 467.847C66.4747 471.352 66.225 474.855 65.9604 478.357C65.6094 482.993 65.1519 487.623 64.8304 492.261C64.7996 492.704 64.7666 493.147 64.7327 493.591C63.4389 492.918 62.065 492.574 60.508 492.149L60.1028 492.036C57.8422 491.386 55.4236 490.488 53.3311 492.009C51.9247 493.031 51.6437 494.714 52.8089 496.062C54.5755 498.108 57.1895 497.711 59.6298 497.607L60.9426 497.559C62.1799 497.51 63.3214 497.431 64.4649 497.119C64.2549 500.14 64.1444 503.173 64.5147 506.15C64.7151 507.76 66.8327 508.182 67.3933 506.54C68.8574 502.25 69.16 497.623 69.6959 493.13C70.1963 488.933 70.5005 484.706 70.8283 480.491L70.9275 479.226C71.6647 469.952 72.2543 460.673 72.685 451.38C73.1161 442.089 73.375 432.799 73.478 423.498C73.5249 419.274 73.4549 415.036 73.2896 410.813L73.2372 409.547C73.0469 405.204 73.1799 400.596 72.2111 396.341ZM265.708 493.664C265.652 493.07 265.177 492.333 264.47 492.425C263.818 492.51 263.147 492.469 262.503 492.577C261.653 492.718 260.969 493.22 260.178 493.536C258.892 494.05 257.491 494.316 256.172 494.737C253.698 495.527 252.35 498.132 253.374 500.565C254.452 503.123 257.16 503.704 259.499 502.63C261.343 501.784 262.718 500.432 263.958 498.867L264.309 498.421C264.843 497.749 265.45 496.998 265.674 496.184C265.892 495.39 265.785 494.471 265.708 493.664ZM145.495 481.638C142.413 481.204 139.781 482.258 136.929 483.251L136.697 483.332C133.795 484.334 129.56 485.028 128.073 487.999C127.175 489.791 127.872 492.171 129.984 492.701C133.329 493.54 136.328 491.095 139.094 489.448L139.239 489.363C141.908 487.798 144.664 486.483 146.368 483.785C146.823 483.066 146.429 481.77 145.495 481.638ZM253.083 236.463C254.318 236.74 255.553 236.984 256.786 237.22C261.478 239.735 266.032 242.346 270.877 244.587C276.016 246.965 281.137 249.421 286.019 252.298C295.883 258.11 304.014 265.667 310.732 274.931C322.338 290.931 330.971 309.384 337.15 328.107C338.737 332.917 340.158 337.782 341.415 342.687C339.193 340.631 336.562 339.367 333.612 338.285C332.362 337.827 330.806 338.603 330.172 339.685C329.887 340.172 329.726 340.653 329.756 341.223C329.822 342.482 330.641 343.912 331.993 344.162C335.144 344.743 338.208 345.874 341.247 346.869C341.708 347.02 342.104 346.963 342.42 346.785C345.437 359.568 347.324 372.613 347.993 385.738C348.558 396.849 348.209 408.047 346.979 419.143C346.033 418.717 345.109 418.319 344.072 418.077C342.728 417.765 341.405 417.384 340.094 416.954C336.31 415.712 334.584 421.962 338.452 422.914C339.891 423.269 341.339 423.563 342.806 423.779C344.085 423.966 345.215 423.884 346.421 423.687C345.5 430.609 344.242 437.481 342.64 444.256L342.287 445.738C340.206 454.391 337.78 463.124 334.273 471.3C332.553 475.311 330.275 479.121 327.462 482.465C326.08 484.109 324.547 485.519 322.874 486.854C321.482 487.967 316.749 490.378 311.143 490.378C305.538 490.378 304.02 489.848 301.192 488.874C295.599 486.949 290.289 483.874 285.044 481.136L284.502 480.854C282.182 479.654 279.872 478.436 277.568 477.207C277.859 474.857 277.349 472.883 276.125 470.713C274.802 468.365 271.523 469.534 271.279 471.936L271.272 472.027C271.235 472.569 271.144 473.121 271.031 473.671C255.623 465.228 240.541 456.194 225.699 446.779C216.139 440.715 206.68 434.469 197.359 428.041C192.7 424.828 188.081 421.557 183.508 418.221C181.113 416.474 178.728 414.713 176.355 412.936C175.366 412.196 174.397 411.419 173.406 410.675C173.647 410.374 173.881 410.073 174.109 409.775C177.808 404.93 180.209 399.154 181.405 393.196C182.127 389.601 182.476 385.868 182.582 382.202L182.628 380.609C182.702 377.923 182.721 375.113 182.226 372.511C182.899 372.881 183.587 373.244 184.273 373.632C186.733 375.026 189.195 376.418 191.662 377.802C196.601 380.573 201.554 383.313 206.571 385.941C215.531 390.637 224.579 395.104 233.872 399.107L238.393 401.057C246.241 404.433 254.153 407.749 262.312 410.259C266.914 411.674 273.814 413.426 278.482 414.506C278.482 414.506 272.857 419.809 276.928 421.633C280.999 423.457 284.373 416.46 284.507 415.827C286.657 416.277 292.798 417.364 292.798 417.364C298.634 418.491 304.292 420.722 309.508 423.577C311.321 424.57 311.826 422.641 309.905 421.298C304.287 417.369 297.734 415.146 290.973 413.281L290.641 413.189C288.161 412.51 285.685 411.801 283.214 411.067C283.485 410.084 283.642 409.064 283.611 407.939C283.541 405.433 283.32 402.918 283.187 400.414C282.908 395.158 282.551 389.919 282.134 384.673C281.974 382.652 281.794 380.625 281.588 378.6C282.913 377.889 284.056 376.946 285.533 376.482L285.783 376.41C287.363 375.984 286.829 373.947 285.426 373.773C284.155 373.616 282.89 373.688 281.636 373.957C281.442 373.999 281.259 374.046 281.083 374.1C280.853 372.224 280.598 370.353 280.307 368.493C279.54 363.578 278.997 358.4 277.399 353.677C277.281 353.327 276.762 353.202 276.569 353.569C274.245 357.992 274.164 363.417 273.902 368.342L273.87 368.931C273.561 374.304 273.544 379.729 273.643 385.11C273.745 390.655 273.935 396.185 274.184 401.726C274.284 403.956 274.28 406.27 274.66 408.404C260.83 403.906 247.243 398.523 234.221 392.149C225.035 387.653 215.928 382.976 206.925 378.124C202.414 375.694 197.882 373.302 193.376 370.862C191.797 370.007 190.22 369.149 188.643 368.29L186.278 367C184.064 365.792 182.217 364.59 179.639 364.505C178.871 364.48 178.182 364.84 177.693 365.385C176.307 364.402 174.706 363.799 173.026 363.813C170.496 360.318 167.928 356.852 165.258 353.461L163.285 350.95C159.871 346.619 156.254 342.222 151.9 338.925C149.957 337.454 147.819 336.351 145.59 335.439C146.115 335.311 146.628 335.053 147.086 334.629C149.215 332.654 149.508 328.986 149.94 326.23C150.389 323.373 150.216 320.815 149.773 317.967C149.601 316.86 147.768 316.63 147.32 317.646C146.378 319.79 145.379 321.844 144.521 324.012L144.268 324.666C143.348 327.106 141.386 329.673 141.516 332.321C141.551 333.046 141.794 333.678 142.169 334.187C140.298 333.565 138.4 333.011 136.531 332.433C130.65 330.615 124.745 328.848 118.751 327.438C117.155 327.063 115.551 326.714 113.941 326.394C113.097 322.388 111.867 318.455 110.418 314.593C111.79 313.89 112.679 312.711 113.861 311.662C114.967 310.68 115.727 309.484 116.671 308.356C117.53 307.33 117.047 305.476 115.503 305.536L115.066 305.555C113.467 305.629 111.918 305.795 110.467 306.541L109.951 306.808C109.242 307.176 108.466 307.597 107.775 308.096C106.872 306.017 105.933 303.958 104.984 301.92L103.752 299.285C100.559 292.425 97.3739 285.305 93.3644 278.918C91.5819 276.079 89.2098 274.306 85.805 274.031C82.2989 273.749 78.6537 274.113 75.1428 274.239C71.0727 274.385 67.0039 274.557 62.9377 274.771C63.98 273.679 64.9311 272.463 65.9778 271.415C67.7155 269.678 69.5513 268.03 71.4809 266.508C75.3 263.494 79.4992 261.011 83.8609 258.873C88.2234 256.734 92.7141 254.87 96.8093 252.228C99.4007 250.556 101.717 248.452 103.83 246.176C105.161 260.531 112.09 273.869 122.501 283.889C133.314 294.295 148.257 300.013 162.875 302.445C177.785 304.926 193.347 304.015 207.61 298.831C214.964 296.158 222.018 292.339 228.308 287.548C228.377 287.965 228.46 288.377 228.624 288.764C228.843 289.285 229.111 289.728 229.419 290.185L229.967 290.987C230.313 291.491 230.665 291.991 231.058 292.459C232.009 293.591 233.356 294.087 234.807 294.082C237.585 294.073 239.689 291.348 238.941 288.653C238.471 286.959 237.466 285.94 235.897 285.277C235.401 285.067 234.895 284.892 234.387 284.719L234.005 284.589C233.491 284.413 232.981 284.246 232.452 284.148C235.431 281.519 238.194 278.659 240.669 275.573C248.431 265.895 256.087 252.34 253.492 239.487C253.447 239.267 253.248 239.128 253.034 239.093C252.884 238.191 252.404 237.318 251.746 236.731C252.189 236.615 252.635 236.525 253.083 236.463ZM172.477 458.69C170.94 457.835 169.352 459.867 170.602 461.122L172.467 462.988C174.198 464.729 175.883 466.487 177.364 468.47L177.723 468.955C179.723 471.677 181.856 474.831 185.134 475.848C189.098 477.079 192.907 472.249 190.611 468.72C188.606 465.637 184.745 464.473 181.416 463.199C178.266 461.993 175.422 460.327 172.477 458.69ZM300.358 444.462C299.455 443.279 297.1 443.902 297.717 445.576C299.721 451.01 300.538 458.421 305.599 462.032C307.232 463.196 309.797 462.661 311.142 461.317C312.669 459.789 312.73 457.637 311.857 455.773C310.791 453.499 308.171 451.85 306.334 450.118L306.169 449.96C304.192 448.04 302.055 446.684 300.358 444.462ZM88.8224 450.715C87.2103 450.02 83.0087 448.668 81.7636 450.268C81.7055 450.326 81.6558 450.39 81.6157 450.461C81.3105 450.992 81.2652 451.74 81.6157 452.267C83.0666 454.448 84.5777 456.077 86.6406 457.629L86.8721 457.801C89.1179 459.452 91.2276 461.392 93.964 462.137C97.7567 463.17 100.406 458.42 97.7422 455.646C95.5962 453.411 92.3202 452.251 89.4766 451.005L88.8224 450.715ZM241.129 419.662C241.764 418.515 240.467 417.108 239.293 417.825C235.945 419.873 232.043 421.409 228.282 422.512C226.76 422.959 225.386 424.502 225.499 426.168L225.517 426.42C225.562 427.008 225.643 427.593 226.017 428.082C227.327 429.796 229.201 430.456 231.202 429.442C235.663 427.181 238.716 424.025 241.129 419.662ZM143.248 416.187C143.33 415.705 142.977 415.333 142.487 415.426C139.657 415.962 137.043 417.33 134.613 418.901C133.309 419.744 132.052 420.67 130.752 421.522C129.145 422.573 128.544 423.441 128.306 425.37C128.15 426.643 129.338 427.806 130.428 428.158C133.398 429.116 136.802 425.972 138.814 423.929L138.905 423.837C141.011 421.689 142.749 419.149 143.248 416.187ZM58.2501 412.851C58.8952 411.108 56.6719 409.663 55.2178 410.519C53.8488 411.325 52.3635 411.993 51.072 412.916C49.8852 413.765 48.8031 414.771 47.665 415.691L47.1025 416.136C45.0153 417.815 41.5701 421.966 44.5544 424.374C47.3948 426.666 51.1607 423.739 53.0672 421.599L53.2002 421.447C54.2971 420.18 55.6494 418.803 56.4451 417.323C57.1941 415.929 57.7023 414.33 58.2501 412.851ZM86.2617 277.951C89.8193 278.642 91.2693 283.034 92.7674 285.898C96.303 292.655 99.5545 299.536 102.82 306.425C103.825 308.545 104.804 310.68 105.792 312.812C105.852 312.979 105.93 313.143 106.021 313.305C108.044 317.663 110.128 321.992 112.564 326.129C110.335 325.711 108.094 325.356 105.845 325.075C105.959 322.957 104.509 320.123 103.792 318.339L103.732 318.189C102.838 315.904 101.9 312.304 99.5981 311.118C98.831 310.724 98.0106 311.218 97.9516 312.063C97.7773 314.578 100.237 317.457 101.439 319.592C102.166 320.883 102.874 322.18 103.565 323.492C103.824 323.983 104.04 324.465 104.305 324.897C103.146 324.772 101.984 324.66 100.82 324.579L100.061 324.527C95.745 324.242 91.1606 324.161 87.2608 326.29C83.6425 328.265 81.793 332.481 83.7808 336.319C86.2573 341.102 91.7106 341.736 96.506 342.123C102.496 342.607 108.499 343.479 114.446 344.33C120.598 345.21 126.391 347.479 132.451 348.645C133.014 348.753 133.365 348.016 132.848 347.701C128.068 344.79 122.257 343.189 116.912 341.557L116.48 341.425C113.581 340.534 110.748 339.516 107.749 339.011C104.838 338.521 101.909 338.124 98.9728 337.821L98.6876 337.795C95.4548 337.524 87.2073 337.617 87.5559 332.828C87.7866 329.66 92.9361 329.113 95.2867 329.075C106.064 328.902 116.918 331.763 127.16 334.829L129.447 335.515C133.641 336.777 137.841 338.076 141.956 339.556C146.619 341.232 150.293 343.846 153.689 347.425C157.455 351.392 161.103 355.449 165.009 359.283C167.472 361.7 169.967 364.073 172.482 366.428C173.05 367.163 173.504 367.964 173.819 369.002C174.351 370.756 174.228 372.386 174.028 374.188C173.521 378.738 173.409 383.335 172.775 387.871C172.187 392.072 171.364 396.428 169.62 400.326C168.929 401.87 168.03 403.386 167.007 404.742L166.18 405.816C165.82 406.283 165.417 406.794 164.994 407.274C164.373 406.517 163.475 406.024 162.431 406.147C160.212 406.408 158.468 406.346 156.291 405.836C154.607 405.441 152.935 404.979 151.258 404.551C147.964 403.711 144.64 402.946 141.38 401.981L140.82 401.812C138.39 401.067 135.96 400.133 133.938 398.564C131.589 396.741 130.866 394.111 129.126 391.837C125.41 386.98 117.381 387.082 111.945 385.752C107.324 384.622 102.878 382.838 99.6808 379.485L99.4942 379.285C99.636 378.687 99.4061 378.011 98.8504 377.701L98.7293 377.634C98.5126 377.513 98.2793 377.463 98.0503 377.467C97.7535 377.031 97.4673 376.581 97.207 376.102C96.993 375.707 96.458 375.998 96.528 376.388C96.5698 376.621 96.628 376.848 96.683 377.076C93.5858 376.279 90.1844 376.431 87.0398 376.433L82.959 376.419C82.2527 376.41 81.2001 376.375 81.1065 376.332L81.0106 376.29C80.7562 376.179 81.1174 376.362 80.9396 376.126C80.7437 375.865 80.5517 375.602 80.3623 375.336C79.686 374.39 79.0461 373.414 78.4191 372.43C85.2529 374.172 92.3319 375.255 99.3097 376.159C106.796 377.129 114.38 377.802 121.933 377.809C124.015 377.811 123.996 374.667 121.933 374.588C113.935 374.283 105.98 373.859 98.0358 372.834C93.9277 372.304 89.8369 371.638 85.769 370.859C84.1985 370.559 82.6317 370.241 81.0688 369.904L79.8973 369.648C79.1624 369.485 77.0857 369.251 76.0729 368.572C75.8739 368.229 75.6748 367.888 75.4776 367.546C75.5744 366.346 78.6252 366.507 79.3403 366.505C81.3681 366.501 83.3963 366.517 85.4246 366.523C89.4806 366.534 93.5363 366.499 97.5928 366.467C105.697 366.401 113.832 366.118 121.93 366.464C123.895 366.548 124.928 363.394 122.985 362.565C114.408 358.902 104.887 358.106 95.7283 356.979C90.9122 356.388 86.0935 355.704 81.3853 354.506L80.2212 354.21C77.2635 353.451 73.9975 352.526 71.5069 350.719C75.2503 349.204 79.9034 349.378 83.7837 349.163L84.0806 349.146C89.5141 348.812 94.9573 348.641 100.401 348.633C111.539 348.618 122.681 349.013 133.807 349.541C134.086 349.554 134.143 349.113 133.872 349.054C122.437 346.558 110.815 345.356 99.112 345.171C93.6618 345.084 88.209 345.161 82.7634 345.402L80.7653 345.495C76.1223 345.695 70.9703 345.749 67.0858 348.554C66.4936 348.981 66.1813 349.527 66.1325 350.104C60.9227 339.716 56.111 329.111 51.2799 318.576C47.5242 310.385 43.9085 302.124 40.0158 293.997L38.7556 291.368C37.0682 287.859 35.3394 284.35 33.4198 280.969C40.598 280.009 47.8162 279.343 55.0388 278.833C61.62 278.367 83.0934 277.337 86.2617 277.951ZM89.435 390.539C88.6163 390.084 87.3622 390.455 87.1605 391.464C87.0104 392.216 86.7541 393.051 86.7541 393.82C86.7541 394.742 87.0835 395.743 87.2592 396.644C87.663 398.717 88.1601 400.401 89.2139 402.248C89.8731 403.403 91.2043 404.188 92.5421 404.157C93.6016 404.133 94.5404 403.848 95.2674 403.028C96.1385 402.045 96.7365 400.6 96.2587 399.277C95.0072 395.81 92.7068 392.356 89.435 390.539ZM263.065 387.081C261.149 383.725 256.609 380.725 252.647 381.022C246.697 381.468 245.483 389.481 251.243 391.394C254.686 392.536 259.423 391.363 262.435 389.482C263.247 388.975 263.545 387.922 263.065 387.081ZM324.21 375.616C324.645 374.983 323.926 374.26 323.278 374.403C321.84 374.719 320.29 374.856 318.882 375.285C317.44 375.724 316.044 376.452 314.616 376.953C311.623 378.001 308.427 378.527 305.53 379.793C304.373 380.3 303.462 381.976 303.569 383.213L303.596 383.502C303.66 384.116 303.767 384.651 304.11 385.212C305.031 386.717 306.858 387.495 308.581 387.032C311.778 386.173 314.903 383.966 317.629 382.132L318.133 381.797C319.324 381.012 320.605 380.191 321.564 379.181C322.566 378.126 323.39 376.81 324.21 375.616ZM214.302 363.409C214.67 362.083 213.021 361.207 212.06 362.103C210.139 363.893 208.131 365.553 206.249 367.389L206.123 367.514C204.776 368.868 202.816 371.477 204.568 373.229C206.813 375.475 209.939 372.143 211.143 370.407C212.671 368.204 213.587 365.985 214.302 363.409ZM67.3104 352.446C70.1599 355.465 74.5502 356.853 78.4155 358.004C82.9987 359.366 87.721 360.18 92.4481 360.85C97.0159 361.496 101.548 362.075 106.043 362.817C102.643 362.859 99.2432 362.884 95.8507 362.945C91.9382 363.016 88.0279 363.1 84.1167 363.214C81.2681 363.297 77.9259 362.906 75.2191 363.965C74.7311 364.155 74.2754 364.42 73.8773 364.741C71.6016 360.694 69.4205 356.59 67.3104 352.446ZM243.071 324.215C240.097 323.27 237.3 322.016 234.148 322.341C233.31 322.427 232.709 323.244 233.167 324.05C234.661 326.68 237.091 328.165 239.482 329.924L239.693 330.08C242.311 332.028 245.122 333.803 247.969 335.401C252.87 338.152 257.263 330.278 252.313 327.967C249.334 326.576 246.206 325.211 243.071 324.215ZM189.526 317.377C184.976 317.676 180.429 317.88 175.873 318.064C170.596 318.277 172.37 326.401 176.778 324.757C181.133 323.132 185.489 321.528 189.883 320.013C191.221 319.552 191.113 317.354 189.611 317.373L189.526 317.377ZM306.227 302.925C305.047 302.842 303.858 303.1 302.677 303.215L301.42 303.337C298.83 303.594 296.401 303.912 293.93 304.967C289.372 306.913 291.82 314.243 296.396 314.075C299.779 313.951 302.671 312.498 305.527 310.806C308.024 309.327 309.554 307.477 311.24 305.155C311.799 304.386 311.021 303.524 310.26 303.447C308.921 303.31 307.567 303.019 306.227 302.925ZM77.7275 287.956C78.4818 292.665 80.3542 297.078 83.1755 300.92C84.5934 302.85 87.0827 302.923 88.4879 300.92C90.4757 298.085 89.25 294.837 87.7525 292.115L87.3094 291.317C86.6389 290.122 85.609 288.379 84.4323 287.175L84.4124 287.051C83.7819 282.122 76.9503 283.106 77.7275 287.956ZM261.759 257.74C260.624 256.718 258.535 257.025 258.167 258.688C257.652 261.017 257.338 263.642 257.676 266.006C257.859 267.288 257.927 268.727 258.431 269.921C258.973 271.205 260.014 272.193 260.996 273.158C262.956 275.086 267.086 274.448 267.611 271.411L267.678 271.039C267.942 269.602 268.28 268.066 267.889 266.641C267.594 265.566 266.934 264.47 266.389 263.473L266.274 263.261C265.181 261.225 263.477 259.287 261.759 257.74ZM102.317 262.694L101.907 262.699C98.7405 262.761 92.9521 263.532 92.9213 267.446C92.9138 268.368 93.5968 269.324 94.5123 269.537C96.4049 269.975 97.6282 268.857 98.977 267.727C100.08 266.802 101.366 266.065 102.701 265.533C104.144 264.959 104.05 262.692 102.317 262.694Z" fill="black"/>
<path fill-rule="evenodd" clip-rule="evenodd" d="M92.6812 147.849C95.4368 127.92 101.739 108.57 102.644 88.3417C103.182 79.6856 103.721 71.0291 104.259 62.3721C104.463 56.9656 111.469 55.1415 114.145 59.9314C120.228 53.169 131.12 54.1649 139.43 54.3702C188.35 56.1079 234.838 89.2637 251.631 135.493C252.035 136.595 251.912 137.768 251.456 138.818C259.283 164.983 231.602 181.831 212.723 193.497C205.064 201.61 196.062 208.35 185.897 212.967C174.203 218.481 161.187 221.556 148.267 221.85C145.431 221.915 143.728 219.617 143.523 217.238C139.401 216.276 132.348 217.386 130.169 213.152C105.312 202.33 89.1162 174.9 92.6812 147.849V147.849Z" fill="#D08B5B"/>
<path fill-rule="evenodd" clip-rule="evenodd" d="M104.302 77.1727C104.372 76.5265 103.441 76.5067 103.25 77.03C101.675 81.3323 100.041 85.605 98.7933 90.0161C97.5902 94.2673 96.7236 98.6149 95.8461 102.944C94.3907 110.128 93.1393 117.366 92.104 124.626C89.8915 122.894 86.9979 122.737 84.2731 124.085C82.9944 124.717 82.5049 126.388 82.8116 127.685C83.0577 128.726 83.3587 129.761 83.7199 130.775C82.9478 131.46 82.2918 132.305 81.8154 133.275C80.5609 135.829 80.9651 138.511 82.0905 140.948C82.0048 141.094 81.92 141.24 81.84 141.395C80.2111 144.566 81.0825 147.406 82.2729 150.5C83.164 152.815 82.6666 155.422 84.589 157.17C85.2574 159.322 86.2602 161.324 87.7199 163.132C88.0512 163.74 88.5478 164.229 89.137 164.589C89.2851 167.986 89.6428 171.371 90.3156 174.726C92.9279 187.756 101.219 199.365 111.482 207.553C121.526 215.565 133.321 220.353 146.048 221.9C152.228 222.652 158.418 222.415 164.547 221.342L165.311 221.206C170.967 220.178 177.811 218.475 181.722 214.198C183.778 211.949 182.576 206.999 178.94 207.466C177.014 207.713 175.337 208.023 173.523 208.735C172.108 209.291 170.691 209.827 169.239 210.281C166.457 211.149 163.58 211.826 160.693 212.2C154.675 212.98 148.422 212.773 142.474 211.597C131.658 209.458 121.151 204.524 112.943 197.096C103.401 188.461 97.8085 177.285 96.9855 164.396C96.0689 150.04 97.7224 135.34 99.0952 121.059C99.8092 113.63 100.716 106.216 101.807 98.8334C102.874 91.6199 103.513 84.4166 104.302 77.1727ZM188.743 30.818L188.281 30.7469C169.913 27.9449 150.587 28.1436 133.322 35.742C130.014 37.1996 126.775 38.9572 123.725 40.9966C121.541 40.768 119.344 40.5826 117.186 40.5522C114.471 40.5165 111.822 41.9305 111.488 44.6836C108.943 45.0007 106.601 45.939 105.102 47.8159C104.518 48.5467 104.127 49.3924 103.929 50.2734C102.365 50.6438 100.832 51.2116 99.3772 51.9605C97.6107 52.8723 96.5913 55.4095 97.2153 57.2864C97.3594 57.7125 97.5232 58.1275 97.7067 58.5336L97.848 58.8365L97.7645 58.9511C96.354 61.224 97.3339 64.2061 99.4958 65.5628C101.117 66.5804 102.928 67.3909 104.791 67.7829C104.637 68.5317 104.496 69.285 104.382 70.047C104.338 70.3558 104.733 70.5761 104.91 70.2717C104.91 70.2717 104.242 72.3552 103.235 74.6506C102.84 75.5532 104.105 76.3549 104.588 75.4431C105.871 73.0115 106.667 70.5184 107.832 68.012C108.908 67.9415 109.98 67.6948 111.013 67.2235C111.69 66.9151 112.203 66.3954 112.573 65.7743C112.595 65.8007 112.608 65.8315 112.63 65.8624C116.097 70.3334 122.873 71.9015 128.111 73.3155C133.735 74.8356 139.492 75.7734 145.27 76.465C155.359 77.6675 165.527 77.8922 175.664 78.3595C176.336 78.3899 177.006 78.4239 177.677 78.4565C181.794 82.0773 187.097 84.3273 192.537 85.0114C195.294 85.3576 198.554 85.2695 201.645 84.5639C202.764 85.7091 204.178 86.5575 205.721 86.9932C205.998 92.7632 209.208 98.2261 214.06 101.41L213.974 101.753C212.768 106.681 212.784 112.066 217.106 115.491C217.692 115.954 218.331 116.351 219.004 116.681L218.856 117.021C216.623 122.252 215.91 128.029 220.107 132.369C221.809 134.129 224.796 133.712 226.072 131.693L226.134 131.591C226.205 131.47 226.282 131.355 226.355 131.237C226.469 131.47 226.643 131.667 226.901 131.777C228.496 132.465 229.133 131.958 230.588 131.249C231.933 130.588 233.352 130.095 234.802 129.712C235.984 129.403 237.162 129.183 238.348 129.055C245.845 131.927 250.687 140.737 249.536 149.005C248.912 153.507 246.446 157.965 242.149 159.832C240.268 160.652 238.058 160.995 236.024 160.718C233.268 160.343 231.15 158.604 228.299 159.599C227.174 159.991 226.47 160.877 226.409 162.088C226.308 163.991 226.98 165.418 228.114 166.475C226.115 168.149 224.502 170.475 222.766 172.33C220.595 174.65 218.394 176.972 216.048 179.113C213.833 181.143 211.477 183.029 208.982 184.703L208.719 184.876C205.592 186.917 201.652 188.73 201.503 192.997C201.454 194.284 202.232 195.464 203.287 196.12C207.228 198.569 211.517 195.354 214.606 192.997C215.85 192.05 217.058 191.068 218.223 190.05C219 190.112 219.849 189.984 220.732 189.592C221.299 189.345 221.852 189.055 222.397 188.746C224.168 189.191 225.838 188.799 227.213 187.87C229.195 188.359 231.295 188.416 233.079 188.024C234.709 187.663 236.164 186.892 237.364 185.857C239.869 186.658 242.65 186.508 245.12 184.989C246.6 184.077 247.756 182.778 248.384 181.258C248.704 180.756 248.909 180.17 248.925 179.525L248.925 179.28C251.078 179.328 253.236 178.588 254.901 176.88C256.43 175.311 257.177 173.356 257.261 171.369C259.427 170.753 261.409 169.487 262.916 167.537C265.412 164.303 265.745 160.308 264.462 156.74C264.546 156.551 264.621 156.357 264.687 156.163C266.678 153.348 267.991 149.952 267.886 146.547C267.873 146.019 267.802 145.499 267.697 144.984C269.657 143.939 271.098 142.107 271.252 139.777C271.371 137.949 270.716 136.16 269.534 134.808C270.109 133.429 270.364 131.932 270.188 130.434C270.008 128.897 269.468 127.562 268.676 126.448C268.694 126.043 268.672 125.633 268.607 125.214C268.686 124.804 268.752 124.382 268.786 123.95C269.16 119.228 265.909 115.096 261.949 112.916C260.908 112.343 259.783 111.876 258.658 111.48C257.841 111.189 256.61 111.092 255.89 110.559C255.921 110.537 255.622 110.15 255.569 109.942C255.512 109.687 255.45 109.436 255.419 109.176C255.301 108.083 255.389 106.96 255.411 105.863C255.507 100.886 255.354 95.8862 254.831 90.9351C253.86 81.7553 251.464 72.7737 246.798 64.7523C242.883 58.0304 237.522 52.3525 231.375 47.6437C219.13 38.2688 203.849 33.1714 188.743 30.818ZM245.488 144.98C247.082 141.139 239.578 141.102 237.594 141.284L237.535 141.29C233.069 141.735 226.087 143.888 224.26 148.405C223.504 150.275 225.743 152.302 227.534 151.687C229.288 151.085 230.272 149.793 231.679 148.662C232.048 148.365 232.433 148.088 232.825 147.821C232.619 148.48 232.288 149.089 231.83 149.543L231.722 149.645C229.561 151.591 233.425 154.65 234.86 152.072C235.623 150.701 235.929 149.197 235.691 147.639C235.62 147.18 235.497 146.76 235.318 146.359C235.461 146.287 235.601 146.21 235.745 146.141L236.002 146.022C237.722 145.239 245.062 142.168 245.002 144.914C244.996 145.218 245.389 145.218 245.488 144.98Z" fill="black"/>
<path fill-rule="evenodd" clip-rule="evenodd" d="M141.98 187.194C144.94 185.986 147.581 183.971 149.512 181.397C150.183 180.503 150.357 179.558 150.216 178.693C150.058 177.722 149.483 176.841 148.699 176.25C147.913 175.657 146.93 175.365 145.979 175.514C145.153 175.644 144.33 176.096 143.679 177.035L143.543 177.222C142.395 178.776 140.899 180.051 139.195 180.872C137.552 181.664 135.715 182.034 133.813 181.819C130.192 181.41 127.696 179.451 125.043 176.79C124.714 176.454 124.385 176.108 124.054 175.756C123.845 175.437 123.556 175.232 123.234 175.124C122.877 175.005 122.473 175.011 122.102 175.141C121.745 175.265 121.426 175.501 121.212 175.816C121.009 176.114 120.894 176.483 120.931 176.908C121.174 179.665 122.615 182.126 124.662 184.058C126.935 186.203 129.948 187.688 132.785 188.209C135.911 188.782 139.096 188.371 141.98 187.194V187.194ZM131.309 144.662C127.983 146.684 122.917 151.399 126.494 156.411C130.705 160.831 136.767 155.763 139.754 153.472C142.525 151.695 145.637 156.264 143.067 158.338C121.479 174.325 112.719 145.191 129.627 142.285C131.488 141.965 132.18 144.037 131.309 144.662ZM169.995 126.063C169.628 121.501 162.682 120.465 161.991 124.98C161.373 129.023 162.101 132.738 163.922 136.379C165.662 139.857 170.035 138.234 170.365 135.067C170.809 130.822 170.224 128.901 169.995 126.063ZM117.125 124.043C116.156 122.775 114.758 121.909 113.083 122.398C107.85 123.928 109.392 131.36 111.23 134.978C112.229 136.943 115.457 137.441 116.916 135.711C119.294 132.89 120.433 127.257 117.41 124.478C117.328 124.334 117.237 124.189 117.125 124.043ZM163.994 106.101L163.167 105.957C160.609 105.514 157.43 105.089 155.62 107.146C154.661 108.236 154.331 110.263 155.62 111.307C157.889 113.144 160.397 112.432 163.116 112.588C165.357 112.717 167.51 113.087 169.668 113.705C174.403 115.058 178.261 117.529 182.304 120.243C182.835 120.599 183.376 119.92 183.123 119.423C180.789 114.85 176.265 111.093 171.734 108.803C169.316 107.58 166.669 106.566 163.994 106.101ZM121.898 104.054L121.265 104.183C114.379 105.623 105.433 108.499 102.172 115.265C102.048 116.221 102.179 116.426 102.286 116.56L102.321 116.605C102.409 116.719 102.48 116.877 102.894 117.007C103.009 116.98 103.125 116.951 103.243 116.92C104.737 116.528 105.92 115.988 107.065 115.428L108.306 114.816C109.746 114.11 111.199 113.429 112.739 112.927C116.025 111.855 119.405 111.1 122.837 110.696C123.581 110.609 124.297 110.358 124.862 109.927C125.399 109.519 125.809 108.953 125.996 108.201C126.238 107.228 126.168 106.491 125.646 105.614C125.254 104.954 124.692 104.497 124.047 104.235C123.39 103.968 122.642 103.904 121.898 104.054Z" fill="black"/>
<path fill-rule="evenodd" clip-rule="evenodd" d="M91.903 147.346C97.2492 152.872 106.174 154.457 113.287 151.494C131.551 143.86 122.612 120.052 108.526 113.658C106.766 113.219 104.416 112.179 102.273 111.942C102.079 111.847 101.658 112.123 101.146 111.862C85.6148 113.597 82.0779 137.715 91.903 147.346M150.81 148.759C156.807 156.715 167.954 159.169 177.063 155.471C195.056 148.383 188.674 127.27 176.363 118.993C150.358 109.219 139.619 134.09 150.81 148.759M189.818 131.132C189.835 131.124 189.852 131.12 189.869 131.112C189.774 131.07 189.679 131.028 189.584 130.986C189.615 131.066 189.648 131.146 189.678 131.226C189.725 131.194 189.766 131.157 189.818 131.132M79.5225 122.533C80.9906 122.536 83.1114 122.777 84.3267 123.796C87.3237 113.686 98.3862 104.328 108.007 111.151C115.583 113.589 121.205 118.994 124.4 126.18C130.161 122.752 139.22 124.216 144.216 128.749C147.488 117.935 155.54 114.148 165.124 113.589C175.585 111.875 186.012 122.037 189.265 130.19C191.97 129.882 196.012 129.021 198.557 130.691C215.073 126.358 243.949 123.969 247.306 126.377C249.699 127.295 251.012 132.945 247.67 133.25C244.758 132.836 248.01 129.11 245.074 128.703C229.432 127.733 214.246 130.885 198.769 132.207C197.388 134.066 192.923 134.688 190.541 133.941C194.292 147.771 186.194 157.18 174.061 159.998C155.272 164.315 138.926 147.503 143.839 130.015C138.147 127.183 131.601 127.304 125.401 128.796C135.761 166.938 74.3515 165.227 83.9427 125.103C77.5599 128.279 76.1737 123.174 79.5225 122.533" fill="black"/>
<path fill-rule="evenodd" clip-rule="evenodd" d="M496.451 246.776L501.15 258.409L498.561 295.279L496.635 295.579C476.29 298.737 462.466 300.333 455.161 300.365L454.935 300.366C447.579 300.366 438.765 298.72 428.492 295.429L428.024 295.279L426.839 267.671H429.635L434.694 255.794L434.689 255.79C434.634 255.885 434.576 255.978 434.515 256.067C432.406 259.191 431.184 256.668 426.229 257.773C420.296 259.096 417.662 265.101 412.439 269.588C410.014 271.672 404.924 272.654 402.489 274.086L399.93 275.591C391.913 280.327 382.699 286.079 377.861 293.572C372.189 302.357 368.28 310.694 364.67 320.466C356.888 341.529 351.487 363.023 347.628 385.128C343.716 407.531 341.365 430.212 339.57 452.876C338.738 463.379 338.033 473.89 337.447 484.409L337.304 487.039C336.996 492.762 337.263 498.363 342.46 501.887C346.183 504.412 351.124 504.796 355.492 505.055L355.73 505.069C388.025 506.966 420.321 508.849 452.617 510.736L501.06 513.572C509.121 514.045 517.181 514.514 525.242 514.981L544.917 516.119C554.19 516.647 563.475 517.105 572.76 517.051C584.443 516.982 596.076 516.118 607.651 514.559L608.672 514.42C615.954 513.413 626.513 510.865 627.821 502.12C628.009 500.864 626.905 500.079 625.978 500.26C626.283 498.836 626.473 497.41 626.654 496.172C627.43 490.88 627.917 485.555 628.158 480.212C628.641 469.521 628.234 458.781 627.167 448.137C625.401 430.528 622.926 412.949 620.369 395.431L619.799 391.54C617.079 372.98 613.84 354.452 608.773 336.374C604.091 319.674 596.788 302.301 586.739 291.74C576.69 281.18 562.362 272.006 547.64 266.386C546.365 265.899 521.034 260.345 519.327 261.154L519.02 260.913C513.97 256.92 506.765 249.907 499.348 252.116L499.331 252.088C499.156 251.766 498.471 249.611 497.524 246.777L496.451 246.776Z" fill="#D2A689"/>
<path fill-rule="evenodd" clip-rule="evenodd" d="M491.089 231.294C484.953 223.505 478.486 221.029 468.929 221.609C462.449 221.377 455.985 223.062 450.498 226.783C445.47 229.414 441.011 233.036 437.829 237.697C435.107 241.683 437.175 251.532 434.689 255.794C434.713 256.258 434.725 256.681 434.725 257.062C434.725 260.75 432.163 264.865 427.037 269.408L426.834 269.588V296.386C435.451 299.039 446.12 300.366 458.84 300.366C471.371 300.366 484.404 298.259 497.94 294.045L498.556 293.852L501.145 264.728L498.556 256.668L498.556 249.918L497.556 246.898C495.784 241.59 493.073 233.814 491.089 231.294Z" fill="#D08B5B"/>
<path fill-rule="evenodd" clip-rule="evenodd" d="M498.559 293.852C498.559 293.852 475.806 300.486 460.274 300.486C444.741 300.486 428.022 293.852 428.022 293.852L430.734 512.262L474.39 512.796L498.559 293.852Z" fill="#9FD8E5"/>
<path fill-rule="evenodd" clip-rule="evenodd" d="M573.457 389.217C573.625 388.902 573.235 388.619 572.976 388.846C567.095 394.014 564.016 402.314 563.371 409.985C562.687 418.121 563.656 426.543 564.027 434.675C564.439 443.733 564.81 452.794 565.313 461.848C565.825 471.033 566.375 480.215 566.847 489.403L567.909 510.07V510.07C568.022 512.272 567.777 514.981 568.622 517.036C569.93 520.223 573.815 519.73 574.632 517.066L574.657 516.979L574.732 517.036C575.452 514.636 574.913 511.786 574.791 509.304L573.678 486.724V486.724C572.892 470.763 572.191 454.803 571.347 438.846L571.06 433.527C570.665 426.366 570.362 419.224 570.119 412.066L570.041 409.679C569.81 402.492 569.993 395.707 573.457 389.217ZM430.899 256.722C427.622 256.411 425.148 257.499 422.174 258.645C420.878 259.144 419.651 259.72 418.408 260.317C416.852 261.064 415.851 262.386 414.893 263.783L414.38 264.535C410.39 270.39 407.705 277.145 404.676 283.52C401.133 290.976 397.555 298.417 394.087 305.909L392.376 309.6C391.521 311.446 390.668 313.293 389.827 315.145L388.376 318.37C386.917 321.64 385.61 325.099 387.688 328.473C389.621 331.61 393.048 334.038 395.761 336.463C398.025 338.486 400.289 340.51 402.553 342.533C397.872 347.227 394.73 353.138 392.882 359.476C390.258 358.381 387.055 358.172 384.341 357.698C380.543 357.035 380.077 362.793 383.662 362.723C386.31 362.671 389.416 362.942 392.132 362.383C391.66 364.466 391.317 366.581 391.099 368.701C389.958 379.814 392.452 390.991 395.053 401.743L395.267 402.626C398.092 414.263 400.77 425.931 403.166 437.665C405.567 449.424 407.728 461.233 409.645 473.081C411.597 485.14 412.978 497.266 414.462 509.39C414.687 511.225 415.84 512.797 417.864 512.797C419.551 512.797 421.479 511.221 421.267 509.39C419.735 496.188 417.563 483.055 415.405 469.943C411.688 447.363 407.01 424.979 401.629 402.743L400.689 398.87C398.267 388.827 396.071 378.478 397.285 368.119C398.274 359.683 401.796 350.689 408.758 345.449L408.97 345.292C410.596 344.098 411.221 341.814 409.62 340.241C408.601 339.241 407.58 338.241 406.559 337.242L400.432 331.251L399.196 330.041C398.166 329.034 397.131 328.033 396.065 327.062C395.42 326.476 393.671 325.356 393.543 324.391C393.46 323.761 394.204 322.654 394.506 322.074L395.89 319.278V319.278C396.675 317.684 397.436 316.079 398.203 314.475C399.792 311.154 401.404 307.843 402.959 304.505L412.299 284.463V284.463C414.934 278.809 417.281 272.84 420.726 267.613L421.405 266.594C421.972 265.736 422.473 264.91 422.831 263.861C423.176 262.851 423.608 261.743 424.245 260.881C425.737 258.86 428.589 257.713 430.975 257.289C431.32 257.228 431.195 256.751 430.899 256.722ZM502.734 251.459C502.527 251.459 502.496 251.756 502.687 251.813C505.566 252.68 508.316 254.079 510.561 256.098C511.635 257.064 512.716 258.161 513.379 259.461C513.632 259.959 513.773 260.485 513.876 261.03L513.908 261.212C514.079 262.197 514.324 262.745 514.824 263.534L514.91 263.667C517.762 268.078 519.761 272.978 521.589 277.883L525.569 288.579V288.579L529.546 299.276C530.828 302.723 532.11 306.17 533.392 309.616C534.1 311.519 534.828 313.414 535.556 315.309C535.871 316.13 536.21 316.945 536.498 317.776C536.537 317.89 536.663 318.574 536.758 318.74L536.725 318.797V318.797C535.923 320.148 533.784 321.277 532.571 322.259L528.395 325.64V325.64C525.417 328.051 522.364 330.394 519.476 332.913C517.661 334.494 518.79 337.326 520.813 337.987C524.203 339.093 527.525 340.417 530.865 341.668C532.214 342.173 533.618 342.613 534.952 343.171L535.763 343.522C536.08 343.665 535.928 343.663 535.915 344.249C535.902 344.863 535.728 345.504 535.629 346.108C534.504 352.919 533.311 359.718 532.053 366.506C527.601 390.508 522.282 414.335 516.217 437.979C513.153 449.919 509.867 461.801 506.736 473.723C503.612 485.614 499.503 497.334 495.579 508.98C494.471 512.264 499.672 513.678 500.752 510.408C505.274 496.711 509.411 482.895 513.684 469.12C521.275 444.645 527.257 419.639 532.547 394.572C535.169 382.148 537.568 369.677 539.74 357.166C540.151 354.798 540.554 352.428 540.949 350.057L541.525 346.569C541.92 344.083 542.144 341.493 540.215 339.526C538.331 337.605 535.096 336.925 532.617 336.024L532.436 335.958C530.859 335.368 529.27 334.8 527.687 334.215C530.019 332.376 532.322 330.497 534.648 328.66C536.524 327.178 538.43 325.726 540.28 324.21C541.805 322.959 543.048 321.353 543.207 319.32C543.369 317.241 542.48 315.312 541.763 313.406L541.694 313.222C540.989 311.318 540.283 309.416 539.559 307.52L535.077 295.783V295.783C532.229 288.325 529.501 280.806 526.506 273.406C525.321 270.477 524.029 267.595 522.503 264.827C521.767 263.492 520.978 262.185 520.12 260.925C519.159 259.512 518.287 258.824 516.798 258.044C514.418 256.798 512.549 254.708 510.159 253.423C507.812 252.161 505.398 251.488 502.734 251.459ZM495.002 238.152C494.911 237.996 494.669 238.066 494.666 238.244C494.604 241.95 495.484 245.738 496.025 249.403C496.568 253.081 496.743 256.964 497.529 260.603C497.545 260.772 497.578 260.939 497.624 261.103L497.662 261.228V261.228C497.993 262.247 498.856 263.112 499.915 263.382C499.582 265.229 499.268 267.08 499.005 268.94C498.551 272.138 498.138 275.341 497.731 278.545L497.244 282.39C496.784 286.014 496.337 289.639 495.895 293.264C494.771 293.735 493.624 294.123 492.449 294.46C489.744 295.235 486.973 295.551 484.181 295.825C478.495 296.383 472.765 296.642 467.059 296.959L465.837 297.028C459.422 297.396 452.972 297.462 446.573 296.802C443.4 296.475 440.252 295.927 437.158 295.15C435.586 294.755 434.058 294.165 432.488 293.779C431.968 293.651 431.503 293.355 430.981 293.04C430.75 292.747 430.425 292.525 430.002 292.439L429.887 292.419V292.419L429.774 292.403L429.734 292.385L429.737 292.397C429.416 292.354 429.112 292.354 428.824 292.394C428.709 289.567 428.585 286.74 428.43 283.914C428.012 276.324 426.86 268.406 428.398 260.882C428.45 260.629 428.106 260.54 428.017 260.777C424.998 268.742 425.337 277.452 425.185 285.835C425.036 294.033 425.126 302.237 425.167 310.437C424.58 310.687 424.057 311.026 423.643 311.501C422.815 312.451 422.577 314.103 423.643 315.019C424.115 315.426 424.638 315.708 425.192 315.904C425.222 323.028 425.272 330.152 425.344 337.276C423.991 338.323 423.864 340.807 425.395 341.84C425.649 364.911 426.068 387.982 426.415 411.049L427.143 459.444V459.444C427.239 465.892 427.4 472.34 427.457 478.787L427.412 478.805V478.805L427.251 478.88C426.98 479.007 426.576 479.213 426.493 479.424C426.471 479.48 426.465 479.517 426.468 479.546C426.024 479.608 425.584 479.818 425.204 480.18C424.264 481.073 424.455 482.421 425.204 483.331L425.404 483.574V483.574C425.87 484.142 426.756 484.36 427.48 484.245C427.472 488.269 427.447 492.293 427.459 496.317C427.464 497.546 427.482 498.775 427.503 500.004L427.554 502.952C427.587 504.633 427.736 506.77 429.456 507.526C431.397 508.379 433.137 507.68 433.923 505.706C434.136 505.172 434.09 504.674 434.012 504.145C434.036 503.351 434.16 502.431 434.145 501.694L434.081 498.622V498.622C434.071 498.148 434.052 497.674 434.038 497.201L434.094 497.206V497.206C440.99 497.542 447.933 497.378 454.84 497.374L457.911 497.378C460.474 497.381 463.043 497.367 465.602 497.269L466.561 497.228C468.477 497.138 470.492 497.109 472.478 496.938C472.225 498.979 471.989 501.023 471.778 503.068C471.578 505.007 473.577 506.655 475.36 506.655C477.478 506.655 478.689 504.988 478.943 503.068C480.139 494.009 480.629 484.865 481.772 475.8C482.796 467.68 483.684 459.542 484.587 451.407L484.888 448.696C488.191 419.092 491.398 389.477 494.465 359.848L495.893 345.997C497.336 332.036 498.786 318.075 500.01 304.094C500.71 296.101 501.354 288.106 501.961 280.105C502.406 274.227 502.686 268.382 502.868 262.515C503.586 261.776 503.946 260.696 503.628 259.581C503.442 258.93 503.225 258.283 502.997 257.637C503.012 257.002 503.027 256.367 503.039 255.731C503.05 255.13 502.441 254.82 501.952 254.92C501.065 252.769 500.088 250.636 499.273 248.506C497.953 245.058 496.866 241.342 495.002 238.152ZM568.699 275.42C554.904 266.763 538.484 260.533 522.039 261.204C521.665 261.219 521.559 261.79 521.948 261.876C530.72 263.838 539.588 266.227 547.893 269.704C556.222 273.191 564.142 277.887 571.196 283.53C584.21 293.942 594.326 307.484 600.986 322.749C604.888 331.692 607.623 341.133 610.011 350.577C612.538 360.572 614.62 370.674 616.352 380.838C619.772 400.914 621.763 421.21 622.823 441.542C623.901 462.225 623.457 482.921 624.225 503.607C624.358 507.191 629.474 507.121 629.734 503.607C631.476 480.089 630.511 456.196 628.9 432.695C627.451 411.568 624.921 390.485 620.848 369.698L620.493 367.897C616.685 348.665 612.092 328.967 602.886 311.551C595.026 296.681 582.892 284.327 568.699 275.42ZM377.146 367.334C377.074 367.128 376.802 367.13 376.73 367.334C375.157 371.742 375.101 376.716 374.683 381.363L374.65 381.72C374.249 385.958 373.947 390.201 373.667 394.448L373.562 396.041C372.436 413.367 371.028 430.673 368.906 447.908C366.792 465.077 363.934 482.127 360.843 499.143C360.498 501.037 361.336 502.967 363.32 503.513C365.069 503.994 367.314 502.915 367.684 501.032C369.603 491.265 371.155 481.485 372.539 471.633C374.976 454.286 376.795 436.858 377.965 419.379C378.551 410.6 378.913 401.825 379.056 393.027C379.123 388.945 379.017 384.853 378.8 380.776L378.748 379.835C378.508 375.667 378.533 371.309 377.146 367.334ZM526.203 477.688C526.019 477.588 525.79 477.793 525.907 477.984C528.578 482.331 532.192 486.079 535.684 489.774C539.335 493.635 542.896 497.613 546.621 501.399C549.312 504.134 553.641 499.722 550.801 497.213C546.807 493.686 542.633 490.334 538.569 486.885L536.791 485.376C533.458 482.556 530.027 479.762 526.203 477.688ZM399.332 475.511C399.532 475.131 399.076 474.822 398.767 475.074C396.612 476.829 394.681 478.922 392.601 480.773C390.541 482.607 388.403 484.318 386.208 485.986C384.003 487.661 381.75 489.27 379.437 490.791C377.518 492.054 375.54 493.065 373.53 494.113C372.6 494.233 371.738 494.69 371.048 495.557C369.957 496.929 369.842 499.515 371.354 500.705L371.626 500.919V500.919C373.391 502.308 375.487 502.477 377.225 500.919C379.165 499.179 380.999 497.264 382.863 495.425L383.423 494.876C385.425 492.927 387.379 490.915 389.221 488.812L390.888 486.913C393.981 483.38 397.201 479.573 399.332 475.511ZM409.259 271.86C409.618 271.622 409.397 270.982 408.954 271.135L408.143 271.416C404.753 272.596 401.263 273.904 398.185 275.721C394.877 277.672 391.823 279.998 388.905 282.492C382.865 287.655 377.727 294.004 373.36 300.622C364.598 313.901 359.179 329.109 354.804 344.326C350.139 360.551 346.548 377.125 343.615 393.746C340.635 410.637 338.336 427.681 336.826 444.768C336.081 453.185 335.582 461.607 335.33 470.053C335.201 474.398 335.205 478.74 335.241 483.087C335.251 484.204 335.243 485.322 335.231 486.439L335.188 489.791C335.165 491.911 334.912 494.138 335.415 496.208C336.225 499.542 341.728 498.92 341.547 495.513C341.713 494.38 341.719 493.208 341.676 492.034C341.702 491.883 341.731 491.729 341.762 491.572C341.853 491.121 341.776 490.705 341.599 490.346C341.571 489.783 341.545 489.223 341.536 488.674C341.5 486.436 341.502 484.207 341.564 481.969C341.694 477.252 341.881 472.535 342.071 467.82C342.449 458.397 342.975 448.971 343.738 439.572C346.392 406.855 351.995 373.952 361.408 342.476C365.779 327.86 371.806 313.511 380.449 300.88C384.285 295.273 388.614 290.094 393.412 285.287C398.241 280.45 403.562 275.638 409.259 271.86ZM474.389 482.766L473.737 487.491C473.411 489.854 473.088 492.217 472.781 494.582C470.7 494.297 468.57 494.177 466.563 493.999C463.051 493.688 459.515 493.537 455.993 493.391C448.709 493.09 441.388 492.568 434.097 492.605C434.022 492.605 433.951 492.61 433.881 492.616L433.519 483.294V483.294L438.642 483.286V483.286C442.982 483.279 447.322 483.242 451.662 483.205C455.571 483.171 459.482 483.166 463.39 483.084L465.065 483.045C468.029 482.965 471.302 483.13 474.389 482.766ZM433.091 469.236C433.3 469.261 433.513 469.282 433.739 469.291C434.754 469.334 435.776 469.304 436.792 469.313C438.954 469.332 441.116 469.346 443.278 469.346C447.602 469.345 451.926 469.372 456.25 469.424C460.701 469.478 465.149 469.555 469.6 469.564C471.757 469.568 473.907 469.51 476.063 469.45C475.714 472.518 475.35 475.584 474.947 478.643C471.599 478.19 467.998 478.418 464.726 478.387L464.301 478.381C459.835 478.305 455.365 478.361 450.898 478.367C446.303 478.372 441.708 478.387 437.112 478.425L433.336 478.456V478.456L433.329 478.266V478.266C433.219 475.259 433.147 472.248 433.091 469.236ZM477.722 454.557C477.304 458.179 476.911 461.806 476.51 465.433C476.244 465.392 475.975 465.357 475.7 465.328C473.54 465.102 471.385 464.908 469.217 464.773C464.897 464.505 460.576 464.364 456.248 464.247C451.798 464.128 447.347 464.036 442.895 463.973C440.733 463.943 438.572 463.946 436.409 463.961C435.394 463.968 434.369 463.936 433.356 464.004C433.236 464.012 433.12 464.025 433.006 464.038L432.93 458.593C432.917 457.685 432.903 456.778 432.888 455.871C436.231 456.078 439.629 455.999 442.97 456L443.74 456.001C447.937 456.021 452.135 455.963 456.332 455.876C460.661 455.785 464.982 455.644 469.303 455.366C471.054 455.254 472.792 455.105 474.533 454.912L475.404 454.813C476.162 454.723 476.942 454.651 477.722 454.557ZM432.544 439.192C440.595 439.831 448.602 440.099 456.674 440.178L457.886 440.189C465.019 440.243 472.211 440.538 479.361 440.348C478.933 444.06 478.507 447.772 478.077 451.483C477.053 451.435 476.025 451.434 475.024 451.398C472.988 451.325 470.959 451.306 468.922 451.302C464.726 451.292 460.529 451.329 456.333 451.32C452.008 451.311 447.683 451.238 443.359 451.156C439.853 451.091 436.31 450.826 432.794 450.836L432.544 439.192V439.192ZM432.204 423.356C433.137 423.667 434.239 423.686 435.446 423.742L438.563 423.897C440.007 423.968 441.452 424.035 442.897 424.088C447.713 424.264 452.53 424.429 457.347 424.583C462.283 424.74 467.243 424.831 472.179 424.675C474.598 424.599 476.996 424.472 479.407 424.27C480.003 424.22 480.61 424.187 481.219 424.144C480.658 429.062 480.094 433.979 479.529 438.895C472.413 438.021 465.243 437.476 458.135 436.572L451.709 435.75C445.286 434.929 438.868 434.124 432.421 433.445L432.204 423.356V423.356ZM431.857 407.347C433.225 407.686 434.785 407.669 436.1 407.752L436.343 407.769C438.834 407.958 441.331 408.053 443.827 408.114C448.72 408.235 453.615 408.295 458.51 408.325L461.453 408.344C465.376 408.367 469.297 408.377 473.222 408.285C475.739 408.226 478.251 408.103 480.766 407.977C481.52 407.939 482.29 407.914 483.063 407.875C482.537 412.531 482.006 417.185 481.476 421.84C480.65 421.709 479.819 421.609 479.028 421.475C477 421.132 474.977 420.858 472.935 420.613C468.512 420.082 464.067 419.701 459.623 419.378C455.062 419.047 450.496 418.767 445.934 418.447L442.703 418.219C441.626 418.144 440.548 418.071 439.471 418.005C437.631 417.892 435.491 418.02 433.666 417.619C433.172 417.413 432.623 417.365 432.073 417.483L431.857 407.347V407.347ZM431.445 388.608C431.919 389.21 432.626 389.526 433.469 389.635C437.862 390.206 442.369 390.297 446.799 390.566L447.58 390.616C452.154 390.918 456.731 391.154 461.309 391.398C466.011 391.648 470.713 391.852 475.42 392.016C477.418 392.086 479.426 392.094 481.427 392.068L482.284 392.055C483.106 392.041 483.966 392.043 484.829 392.015C484.352 396.369 483.87 400.722 483.381 405.074C482.501 404.978 481.622 404.905 480.769 404.815C478.255 404.548 475.744 404.285 473.225 404.087C468.45 403.71 463.673 403.483 458.889 403.246C453.996 403.004 449.099 402.842 444.204 402.613C441.831 402.502 439.459 402.364 437.093 402.146C435.435 401.993 433.465 401.427 431.735 401.635C431.641 397.292 431.542 392.95 431.445 388.608ZM431.056 371.82C431.131 371.936 431.219 372.049 431.325 372.153C433.259 374.067 435.643 373.919 438.206 374.12L438.363 374.133C440.875 374.344 443.388 374.546 445.903 374.727C450.929 375.09 455.966 375.345 461 375.571C466.152 375.803 471.337 375.963 476.494 375.857C479.796 375.79 483.255 375.802 486.623 375.479C486.106 380.274 485.586 385.068 485.061 389.862C484.114 389.683 483.161 389.546 482.258 389.404C479.983 389.046 477.705 388.685 475.417 388.421C470.843 387.894 466.269 387.401 461.687 386.956C457.769 386.576 453.851 386.189 449.93 385.842L447.577 385.638C442.898 385.244 438.16 384.594 433.466 384.498C432.693 384.482 431.818 384.904 431.375 385.569C431.271 380.986 431.164 376.403 431.056 371.82ZM430.734 358.23C431.928 358.375 433.216 358.292 434.318 358.329C437.106 358.42 439.894 358.504 442.682 358.587L459.411 359.081V359.081C465.107 359.249 470.823 359.375 476.521 359.295C479.027 359.259 481.545 359.255 484.05 359.119L484.885 359.068C485.916 358.999 487.182 358.99 488.418 358.864L486.959 372.396V372.396C483.607 371.911 480.152 371.73 476.828 371.446L476.118 371.383C471.216 370.936 466.291 370.64 461.38 370.307C456.343 369.965 451.313 369.551 446.282 369.127C443.768 368.915 441.254 368.704 438.742 368.472L438.431 368.442C436.058 368.194 433.826 367.666 431.724 369.067C431.417 369.272 431.176 369.545 431.011 369.852C430.92 365.978 430.83 362.104 430.734 358.23ZM430.346 342.437C440.535 342.848 450.724 343.159 460.92 343.296C466.659 343.373 472.391 343.319 478.129 343.199C480.618 343.147 483.127 343.027 485.613 342.837L486.544 342.762C487.726 342.662 488.968 342.59 490.205 342.471C489.694 347.123 489.187 351.777 488.684 356.431C487.467 356.205 486.196 356.1 485.13 355.964L484.888 355.931C482.239 355.566 479.565 355.354 476.904 355.119C471.721 354.662 466.512 354.367 461.315 354.117C455.993 353.86 450.669 353.643 445.347 353.406L440.024 353.168C439.137 353.128 438.25 353.09 437.362 353.052C436.095 352.999 434.827 352.947 433.56 352.895C432.935 352.869 432.285 352.784 431.659 352.816L431.481 352.792C431.399 352.782 431.326 352.773 431.26 352.766C431.089 352.636 430.906 352.529 430.712 352.447L430.594 352.401L430.346 342.437ZM491.872 327.471C491.398 331.659 490.931 335.849 490.469 340.039C489.016 339.873 487.545 339.781 486.158 339.656C483.36 339.405 480.549 339.185 477.743 339.055L472.135 338.795C468.396 338.621 464.658 338.454 460.916 338.317C450.677 337.943 440.438 337.514 430.205 336.991C430.133 334.149 430.058 331.308 429.982 328.466C430.474 328.993 431.183 329.339 432.116 329.337C442.859 329.308 453.61 329.37 464.352 329.194C469.729 329.105 475.1 328.974 480.471 328.698C483.099 328.563 485.741 328.288 488.349 327.926C489.462 327.772 490.679 327.662 491.872 327.471ZM493.595 312.545C493.09 316.835 492.595 321.127 492.107 325.42C490.773 325.182 489.395 325.055 488.15 324.885C485.476 324.521 482.785 324.231 480.091 324.079C474.85 323.782 469.605 323.632 464.356 323.521C453.615 323.292 442.863 323.294 432.12 323.209C431.11 323.201 430.361 323.601 429.869 324.197C429.795 321.518 429.716 318.839 429.635 316.159C430.673 316.049 431.701 315.894 432.653 315.827C435.579 315.623 438.507 315.436 441.435 315.268C447.546 314.917 453.662 314.617 459.777 314.351C465.894 314.084 472.013 313.824 478.131 313.597L480.807 313.499C485.062 313.34 489.389 313.14 493.595 312.545ZM495.517 296.385C494.991 300.731 494.474 305.077 493.957 309.424L493.8 310.769V310.769C488.683 309.773 483.289 309.481 478.129 309.261C472.009 309.001 465.901 308.867 459.776 308.885C453.657 308.904 447.547 309.049 441.433 309.302C438.378 309.428 435.323 309.574 432.27 309.74C431.431 309.786 430.446 309.761 429.433 309.776C429.411 309.093 429.393 308.41 429.369 307.727C429.276 304.961 429.185 302.194 429.09 299.428C431.155 300.49 433.84 300.918 435.916 301.371L436.152 301.423C439.579 302.194 443.078 302.694 446.576 302.999C453.445 303.599 460.385 303.375 467.248 302.794L468.45 302.691C474.476 302.167 480.723 301.504 486.565 300.011C489.348 299.3 492.225 298.304 494.719 296.862C494.978 296.712 495.245 296.553 495.517 296.385ZM437.494 244.745C437.434 244.51 437.083 244.457 436.967 244.676C436.156 246.22 435.854 248.073 435.291 249.727C434.684 251.505 434.119 253.297 433.45 255.054C432.052 258.724 430.403 262.251 428.438 265.651C426.491 269.018 431.942 271.421 433.374 267.735C434.853 263.932 436.069 259.999 436.804 255.98C437.163 254.019 437.483 252.031 437.587 250.038C437.676 248.327 437.917 246.415 437.494 244.745Z" fill="black"/>
<path fill-rule="evenodd" clip-rule="evenodd" d="M426.792 117.981C451.974 97.4834 492.328 90.828 519.284 111.508C540.229 130.915 548.897 186.064 545.19 213.777C544.16 231.552 530.6 251.698 510.695 246.076C507.315 245.743 504.033 244.446 500.622 244.174C496.542 243.703 492.43 243.695 488.358 244.272C479.484 245.529 471.618 250.247 463.005 252.453C447.024 256.546 429.193 253.793 415.437 244.573C369.979 214.642 390.57 146.95 426.792 117.981Z" fill="#D08B5B"/>
<path fill-rule="evenodd" clip-rule="evenodd" d="M430.141 252.945C429.673 252.784 429.206 252.616 428.743 252.443C428.713 252.55 428.663 252.653 428.605 252.754C428.54 252.915 428.475 253.071 428.402 253.229C428.984 253.233 429.566 253.129 430.141 252.945ZM431.081 54.3128C431.287 53.8493 431.525 53.4045 431.793 52.9746C431.142 53.1859 430.491 53.4773 429.901 53.8531C430.3 53.9873 430.69 54.1407 431.081 54.3128ZM530.544 114.96C530.571 114.955 530.598 114.951 530.624 114.947C530.282 114.036 529.674 113.176 529.002 112.555C528.881 112.444 528.751 112.341 528.625 112.234C529.338 113.085 529.985 113.993 530.544 114.96ZM348.544 210.187C348.881 206.989 349.31 203.803 349.865 200.636C350.397 197.603 350.845 194.359 352.388 191.667C353.919 188.987 355.455 186.383 357.277 184.025C357.017 182.821 356.672 181.69 356.374 180.777C354.651 175.524 352.954 168.852 356.535 163.971C357.365 162.84 358.38 161.973 359.54 161.191C360.034 160.857 360.853 160.554 361.233 160.094C361.501 159.768 361.408 159.945 361.42 159.784C361.485 158.917 359.456 157.088 358.981 156.402C358.092 155.132 357.431 153.702 356.925 152.241C354.926 146.459 356.286 140.09 357.488 134.296C358.123 131.225 358.824 128.146 359.054 125.009C359.268 122.064 358.866 119.188 358.629 116.259C358.399 113.367 358.46 110.384 359.697 107.708C360.302 106.404 361.217 105.254 362.331 104.356C363.418 103.479 364.774 102.969 365.834 102.094C366.891 101.223 366.589 100.047 366.313 98.8427C365.934 97.2092 365.456 95.5872 365.41 93.9001C365.326 90.959 366.524 88.0943 368.396 85.8707C370.326 83.5739 373.083 82.0205 376.061 81.6716C377.425 81.5105 378.765 81.7832 380.12 81.6873C381.46 81.5953 381.751 80.9242 382.004 79.6972C382.585 76.8866 382.348 74.1104 383.73 71.4876C384.955 69.1563 387.134 67.5761 389.543 66.6447C393.957 64.9345 399.091 65.2873 403.748 66.2954C406.496 58.1974 415.077 52.8867 423.519 52.8215C424.837 50.5821 427.069 48.9103 429.615 47.9283C433.826 46.2987 438.287 47.25 442.675 47.25H442.694C443.134 47.2228 443.575 47.2117 444.015 47.2155C444.429 47.1921 444.842 47.1576 445.256 47.112C450.248 46.5211 455.188 44.4735 460.134 46.4793C462.34 47.3727 464.093 48.7493 465.203 50.5055C466.877 50.9614 468.527 51.4832 470.146 52.0891C477.165 52.2728 484.118 56.042 487.667 62.1507C492.664 61.5832 498.085 62.5457 501.39 66.6332C502.25 67.6969 502.917 68.9465 503.359 70.2733C506.728 71.3645 509.846 73.309 511.886 76.2378C513.748 78.9104 514.106 82.366 512.847 85.2349C515.855 87.4171 518.205 90.5411 519.337 94.2298C520.025 96.4711 520.128 98.7867 519.685 100.993C522.764 101.677 525.71 102.945 528.32 104.848C531.055 106.841 534.47 110.014 534.65 113.666C534.664 113.934 534.653 114.202 534.632 114.47C540.653 114.046 546.792 115.067 550.861 119.902C553.917 123.529 555.245 128.199 554.43 132.452C561.593 133.909 568.367 137.659 573.092 143.204C576.526 147.234 579.577 152.356 579.394 157.843C579.337 159.496 578.949 161.16 578.279 162.698V162.701C578.567 163.242 578.862 163.844 579.145 164.485C583.583 167.594 586.807 172.468 588.621 177.84C590.087 182.192 591.01 187.844 589.445 192.273C589.207 192.948 588.904 193.585 588.552 194.175C588.847 194.489 589.126 194.804 589.398 195.122C592.389 198.623 595.418 203.032 595.21 207.852C595.126 209.793 594.407 211.745 593.231 213.347C597.366 217.546 600.697 222.845 600.368 228.762C600.085 233.912 597.263 239.142 592.841 241.615C593.579 245.584 592.592 249.771 589.506 252.869C587.966 254.418 586.152 255.438 584.229 255.983C583.801 260.657 579.658 264.419 575.259 265.499C574.439 265.703 573.62 265.826 572.805 265.883C568.846 267.827 564.125 267.605 560.085 265.822C558.895 267.337 557.344 268.571 555.537 269.457C554.805 269.817 554.032 270.117 553.224 270.358C547.519 272.049 541.668 269.756 536.68 267.08C536.519 266.995 536.224 266.888 535.964 266.769C535.275 267.54 534.019 268.303 533.364 268.679C531.143 269.955 528.428 270.549 525.878 270.381C522.888 270.182 520.25 269.192 517.808 267.785C517.451 267.847 517.092 267.881 516.731 267.9C514.434 268.023 512.386 267.294 510.544 266.144C509.327 266.305 508.079 266.29 506.815 266.067C504.031 266.776 501.32 265.649 499.142 263.859C498.177 263.065 497.362 262.133 496.488 261.244C495.581 260.319 494.892 260.105 493.832 259.484C491.323 258.015 491.021 254.292 492.109 251.6C491.902 251.128 491.783 250.603 491.783 250.02C491.791 244.936 494.13 240.273 497.002 236.205C498.285 234.391 499.678 232.615 501.206 231.005C502.435 229.712 504.161 227.615 505.98 227.09C506.091 227.01 506.206 226.929 506.321 226.852C505.969 225.617 505.762 224.36 505.85 223.075C505.942 221.756 506.367 220.506 507.048 219.44C504.763 215.004 503.798 210.138 504.257 205.061C502.397 202.419 500.987 199.501 500.26 196.303C499.812 194.325 499.555 192.242 499.59 190.214C499.606 189.24 499.962 188.009 499.969 187.001C499.915 187.319 499.502 186.13 499.341 185.835C497.496 182.403 495.126 179.727 494.731 175.681C494.502 173.315 495.061 170.7 496.477 168.76C495.57 165.179 495.581 161.333 497.01 157.916C497.392 157.004 497.832 156.11 498.338 155.263C498.105 154.55 497.89 153.829 497.615 153.18C497.507 152.924 497.4 152.663 497.293 152.402C496.255 151.486 495.29 150.485 494.478 149.503C492.679 147.329 491.304 144.837 491.132 141.965C491.048 140.527 491.385 139.15 491.802 137.785C491.986 137.168 492.097 136.482 492.315 135.88C492.438 135.546 492.733 135.205 492.836 134.89C492.859 134.821 492.878 134.764 492.894 134.718C492.878 134.672 492.866 134.576 492.866 134.395C492.863 133.019 492.683 131.673 492.675 130.347C491.415 131.62 489.899 132.57 488.176 133.127C484.704 134.242 481.081 133.736 478.007 132.015C474.699 134.285 470.981 136.339 467.083 137.164C464.767 137.655 462.447 137.452 460.123 137.755C457.814 138.058 455.582 139.066 453.407 139.852C448.567 141.605 443.739 143.403 438.885 145.109C434.964 146.486 430.721 147.579 426.617 146.804C425.464 148.583 423.967 150.086 422.049 151.191C420.675 151.977 419.166 152.509 417.608 152.774C416.229 153.008 414.613 152.916 413.496 153.863C412.404 154.784 411.723 156.156 410.743 157.192C409.651 158.35 408.304 159.354 406.891 160.075C405.758 160.654 404.601 161.072 403.426 161.344C403.529 163.963 403.629 166.578 403.66 169.201C403.717 174.899 403.694 180.597 403.77 186.295C403.847 191.974 404.027 197.653 404.325 203.324C404.609 208.646 405.007 213.987 406.275 219.18C410.479 236.408 426.226 248.743 443.854 249.372C449.088 249.56 454.269 248.824 459.273 247.282C464.457 245.683 469.086 242.393 474.401 241.381C475.79 241.12 477.1 242.52 476.303 243.865C474.932 246.178 473.267 247.589 470.989 248.981C468.603 250.434 465.947 251.512 463.324 252.455C458.499 254.188 453.395 255.193 448.276 255.473C444.371 255.687 440.45 255.419 436.626 254.683C436.357 255.507 435.882 256.309 435.523 257.072C435.469 257.183 435.289 257.106 435.323 256.991C435.381 256.799 435.419 256.631 435.434 256.493C434.148 258.172 432.161 259.334 430.12 259.898C428.681 260.296 427.153 260.419 425.671 260.25C425.192 260.196 424.737 260.116 424.285 260.017C422.777 261.339 420.847 262.221 418.91 262.662C419.242 264.687 418.243 266.896 415.927 267.471C414.954 267.712 414.02 267.716 413.086 267.628C412.331 267.981 411.52 268.257 410.658 268.445C409.537 268.69 408.197 268.375 407.35 267.563C406.887 267.889 406.455 268.115 406.026 268.632C404.26 270.765 400.455 269.066 400.286 266.6C399.727 266.6 399.164 266.608 398.601 266.627C398.468 266.689 398.334 266.75 398.196 266.815C395.734 267.961 393.184 268.962 390.461 268.061C389.96 267.896 389.501 267.686 389.083 267.44C387.165 267.613 385.274 267.616 383.328 266.988C382.18 266.615 381.1 266.025 380.2 265.251C377.199 266.133 374.032 266.531 371.045 265.438C368.81 264.622 367.01 263.333 365.743 261.634C363.805 261.704 361.837 261.236 360.065 260.312C357.032 258.74 354.907 255.752 353.426 252.758C350.163 246.151 348.233 239.054 347.476 231.734C346.729 224.525 347.793 217.354 348.544 210.187Z" fill="black"/>
<path fill-rule="evenodd" clip-rule="evenodd" d="M441.398 225.997C443.969 224.945 446.263 223.19 447.941 220.949C448.524 220.17 448.675 219.347 448.553 218.594C448.415 217.748 447.916 216.981 447.235 216.466C446.552 215.95 445.698 215.696 444.872 215.826C444.154 215.938 443.44 216.332 442.874 217.15L442.756 217.313C441.759 218.666 440.459 219.776 438.978 220.492C437.551 221.181 435.955 221.503 434.303 221.316C431.158 220.96 428.989 219.254 426.685 216.937C426.399 216.644 426.113 216.343 425.826 216.036C425.645 215.758 425.393 215.58 425.113 215.486C424.803 215.382 424.452 215.388 424.131 215.5C423.82 215.609 423.543 215.814 423.357 216.088C423.181 216.348 423.08 216.67 423.113 217.039C423.324 219.44 424.576 221.583 426.354 223.266C428.329 225.134 430.946 226.427 433.411 226.88C436.126 227.38 438.892 227.022 441.398 225.997ZM432.127 188.957C429.238 190.718 424.837 194.824 427.945 199.189C431.602 203.038 436.869 198.625 439.464 196.629C441.87 195.082 444.574 199.06 442.341 200.866C423.588 214.789 415.978 189.418 430.666 186.887C432.283 186.608 432.884 188.413 432.127 188.957ZM465.733 172.761C465.414 168.789 459.381 167.886 458.781 171.817C458.243 175.339 458.876 178.574 460.458 181.744C461.969 184.773 465.768 183.36 466.055 180.602C466.44 176.905 465.932 175.232 465.733 172.761ZM419.803 171.004C418.962 169.899 417.747 169.145 416.292 169.571C411.746 170.903 413.086 177.376 414.682 180.526C415.55 182.237 418.354 182.671 419.622 181.164C421.687 178.708 422.676 173.802 420.05 171.382C419.979 171.257 419.9 171.131 419.803 171.004ZM460.522 155.379L459.804 155.253C457.582 154.867 454.82 154.497 453.248 156.288C452.415 157.238 452.128 159.003 453.248 159.912C455.219 161.512 457.398 160.892 459.76 161.027C461.706 161.139 463.576 161.462 465.451 162C469.564 163.179 472.915 165.331 476.428 167.694C476.889 168.003 477.359 167.412 477.14 166.98C475.112 162.997 471.182 159.726 467.246 157.731C465.145 156.667 462.846 155.784 460.522 155.379ZM423.952 153.595L423.402 153.708C417.42 154.962 409.649 157.466 406.816 163.358C406.708 164.191 406.822 164.37 406.915 164.486L406.946 164.525C407.022 164.625 407.083 164.762 407.443 164.875C407.543 164.852 407.644 164.826 407.746 164.8C409.045 164.458 410.072 163.988 411.066 163.5L412.145 162.968C413.396 162.353 414.658 161.76 415.996 161.322C418.85 160.389 421.786 159.731 424.768 159.38C425.414 159.304 426.036 159.085 426.527 158.71C426.993 158.354 427.349 157.862 427.511 157.207C427.722 156.36 427.661 155.718 427.208 154.954C426.867 154.38 426.379 153.982 425.819 153.753C425.248 153.52 424.598 153.465 423.952 153.595Z" fill="black"/>
</g>
<defs>
<clipPath id="clip0_184_3116">
<rect width="644.872" height="503" fill="white"/>
</clipPath>
</defs>
</svg>
