<svg viewBox="0 0 71 60" fill="none" xmlns="http://www.w3.org/2000/svg">
<path d="M14.8408 59.7316C15 59.5169 15 59.3559 15 59.0876C14.9469 58.7119 14.8408 58.2825 14.7346 57.9068C14.5223 56.565 14.3631 55.0621 14.2569 53.291C14.1507 51.5734 14.0446 49.8023 13.9915 48.0847C13.9384 46.3672 13.8853 44.9181 13.8853 43.7373C13.8853 42.5565 13.8853 41.9661 13.8853 41.9124C13.8853 41.6441 13.7792 41.4294 13.6199 41.2684C13.4607 41.1073 13.2484 41 12.983 41C12.7176 41 12.5053 41.1073 12.3461 41.2684C12.1868 41.4294 12.0807 41.6441 12.0807 41.9124C12.0807 42.1808 12.0807 43.2006 12.1337 45.0791C12.1868 46.904 12.2399 49.0508 12.3991 51.4124L12.5053 52.8616L11.4437 51.8955C10.8068 51.3051 10.0637 50.822 9.2144 50.4463C8.36514 50.0706 7.40972 49.9096 6.34814 49.9096H5.81735L5.76427 49.3729C5.71119 46.2599 5.71119 43.8446 5.81735 42.1271C5.81735 41.9124 5.71119 41.6977 5.55195 41.4831C5.39272 41.322 5.1804 41.2147 4.91501 41.2147C4.70269 41.2147 4.43729 41.2684 4.27806 41.4294C4.11882 41.5904 4.01266 41.8051 4.01266 42.0734C3.95958 42.4492 3.95959 43.3616 3.90651 44.8107C3.85343 46.2062 3.90651 47.8701 3.90651 49.8023V50.2316L3.58803 50.2853C2.79185 50.6073 2.1549 50.983 1.62411 51.3588C1.09332 51.7881 0.721771 52.1638 0.509455 52.4859C0.29714 52.8079 0.137903 52.9689 0.137903 53.0226C-0.0213338 53.2373 -0.0213336 53.452 0.0317453 53.7203C0.0848242 53.935 0.244061 54.1497 0.456377 54.2571C0.668692 54.3644 0.881008 54.4181 1.1464 54.3107C1.35872 54.2571 1.51795 54.1497 1.67719 53.935C1.73027 53.774 1.88951 53.613 2.10182 53.3446C2.36722 53.0226 2.73877 52.7006 3.26956 52.3785L4.06574 51.8418L4.11882 52.8079C4.33114 55.6525 4.80885 57.9605 5.55195 59.5706C5.81735 59.9463 6.13582 60 6.34814 60C6.50737 60 6.61353 59.9463 6.71969 59.8926C6.932 59.7853 7.09124 59.6243 7.14432 59.3559C7.1974 59.0876 7.1974 58.8729 7.09124 58.6045C6.40122 57.1554 6.02966 55.0085 5.87043 52.0565L5.81735 51.4124L6.45429 51.4661C7.88742 51.5734 9.10824 52.0028 10.0106 52.8616C10.9129 53.6667 11.603 54.5791 12.0276 55.5989C12.5053 56.6186 12.7707 57.4774 12.9299 58.2288C12.983 58.6582 13.0892 58.9802 13.1422 59.3023C13.1953 59.4633 13.3015 59.6243 13.4607 59.7853C13.673 59.9463 13.8853 60 14.1507 59.9463C14.5223 60.0537 14.7346 59.9463 14.8408 59.7316Z" fill="#D2A689"/>
<path d="M17.8674 58.743C18.3201 59.1955 18.7728 59.4972 19.1689 59.648C19.6216 59.8492 20.1874 59.9497 20.7533 60C21.0928 60 21.4324 59.8994 21.7719 59.6983C22.168 59.4972 22.5075 59.2458 22.7905 58.9944C23.0734 58.6927 23.3563 58.4413 23.5261 58.2402C23.6958 58.0391 23.7524 57.9385 23.809 57.8883C23.9788 57.6369 24.0354 57.4358 23.9788 57.1844C23.9222 56.933 23.809 56.7821 23.5827 56.6313C23.1866 56.3799 22.7905 56.3296 22.2246 56.8827C21.5455 57.7374 20.9231 58.1397 20.3006 58.1397C20.0177 58.1397 19.565 58.0391 19.2255 57.5866C18.603 56.7821 18.2069 55.7765 18.0937 54.5698C17.9805 53.4134 17.9805 52.5084 18.0371 51.905C18.0371 51.6536 17.9805 51.4525 17.8108 51.3017C17.641 51.1006 17.4147 51 17.1317 51C17.0752 51 17.0752 51 17.0186 51C16.7922 51 16.6225 51.0503 16.4527 51.2011C16.2263 51.352 16.1132 51.5531 16.1132 51.8045C16.1132 51.905 16.0566 52.257 16 53.3631C16 54.2179 16.1132 55.1732 16.3395 56.1788C16.7356 57.0838 17.1883 57.9888 17.8674 58.743Z" fill="#D2A689"/>
<path d="M16.1598 45.439C15.9561 45.7805 15.9561 46.122 16.1089 46.4634C16.2107 46.6585 16.3635 46.9024 16.9745 47C17.5347 47 17.7383 46.7561 17.8402 46.561C18.0439 46.2195 18.0439 45.878 17.8911 45.5366C17.7893 45.3415 17.6365 45.0976 17.0255 45C16.4653 45 16.2617 45.2439 16.1598 45.439Z" fill="#D2A689"/>
<path d="M36.9755 41.0403C36.4363 40.9866 35.6274 40.9866 34.549 41.0403C33.4706 41.094 32.3921 41.2014 31.2598 41.47C30.1813 41.6848 29.3725 42.1145 28.7255 42.7053C28.1862 43.2961 27.7549 44.1555 27.5931 45.3371C27.3774 46.5724 27.3235 47.9689 27.4313 49.5265L27.4853 49.9562L27.0539 50.1173C25.8137 50.4933 25.598 50.6007 25.5441 50.6007C25.2745 50.7081 25.1127 50.923 25.0588 51.1378C24.9509 51.3527 25.0049 51.5675 25.1127 51.836C25.3823 52.3194 25.7058 52.3731 25.9215 52.3731C26.0294 52.3731 26.1372 52.3194 26.299 52.2657C26.3529 52.2657 26.6225 52.1583 27.1078 51.9435L27.7549 51.7286L27.8627 52.3731C28.348 54.8438 29.1029 57.2071 30.0735 59.4629C30.3431 59.9463 30.6666 60 30.9363 60C31.0441 60 31.1519 60 31.3137 59.9463C31.5294 59.8389 31.6912 59.6777 31.799 59.4629C31.9068 59.2481 31.8529 59.0332 31.7451 58.7647C30.7206 56.4014 30.0735 54.0919 29.6961 51.9972L29.5882 51.4064L30.1813 51.2989C31.6912 51.0841 33.4706 51.0841 35.4657 51.4064C35.7353 51.4601 35.951 51.4064 36.1667 51.2989C36.3824 51.1378 36.4902 50.9767 36.5441 50.7081C36.598 50.4933 36.5441 50.2247 36.3823 50.0636C36.2206 49.8488 36.0588 49.7413 35.7892 49.6876C33.5784 49.3117 31.6372 49.3117 29.9657 49.5802L29.3186 49.6876L29.2647 49.0431C29.1568 46.3576 29.3725 44.8 30.0735 44.0481L30.1274 43.9943C30.6666 43.5647 31.5294 43.2961 32.9853 43.0813C34.2794 42.9201 35.6274 42.8664 37.0294 42.9201C37.2451 42.9201 37.4608 42.8664 37.6765 42.6516C37.8382 42.4905 37.9461 42.2756 38 42.0071C38 41.7922 37.8922 41.5774 37.7304 41.3625C37.4608 41.1477 37.299 41.0403 36.9755 41.0403Z" fill="#B6E3E0"/>
<path d="M53.68 57.8325C53.84 57.67 53.9467 57.4532 54 57.1823C54 56.9655 53.9467 56.7488 53.7867 56.532C53.6267 56.3153 53.4133 56.2069 53.2 56.2069C52.9867 56.2069 52.7733 56.2611 52.56 56.4236L52.2933 56.5862C51.76 56.9655 51.1733 57.2365 50.5333 57.399C49.7867 57.5616 49.1467 57.399 48.5067 56.9113C47.9733 56.4236 47.6 55.665 47.44 54.5813C47.28 53.6601 47.2267 52.7931 47.2267 51.9803V51.8177C47.1733 51.1133 46.8533 50.5172 46.2667 49.867C45.68 49.2709 44.9333 49 43.92 49C42.4267 49.1084 41.04 49.867 39.8133 51.3842C38.5867 52.9015 38 54.3645 38 55.8276C38 57.0739 38.2133 57.9951 38.5867 58.5911C39.0133 59.1872 39.44 59.5665 40.0267 59.7291C40.6133 59.9458 41.1467 60 41.6267 60C42.5867 60 43.3867 59.7832 44.0267 59.2956C44.72 58.8079 45.2533 58.2118 45.68 57.4532L46.16 56.6404L46.64 57.4532C46.8 57.7241 46.96 57.9409 47.1733 58.1576C47.3867 58.3744 47.6533 58.5911 47.92 58.6995C48.08 58.8079 48.1867 58.8621 48.3467 58.9163C48.6667 59.0246 48.9867 59.0788 49.36 59.0788C50.2133 59.133 50.96 59.0788 51.6 58.8621C52.24 58.6453 52.7733 58.4286 53.1467 58.2118C53.4133 57.9951 53.6267 57.8867 53.68 57.8325ZM45.4133 52.0345C45.4133 52.197 45.36 52.5764 45.2533 53.2266C45.1467 53.8227 44.9867 54.5271 44.72 55.2315C44.4533 55.9901 44.1333 56.6404 43.6533 57.2365C43.12 57.8867 42.4267 58.2118 41.5733 58.2118C41.2533 58.2118 40.9867 58.1576 40.7733 58.1034C40.5067 58.0493 40.1867 57.8325 39.92 57.3448C39.76 57.0197 39.7067 56.532 39.7067 55.8818C39.7067 54.9606 40.1333 53.931 41.04 52.7389C42 51.4926 42.9067 50.9507 43.8133 50.9507C44.2933 50.9507 44.6133 51.0591 44.88 51.2759C45.1467 51.4926 45.2533 51.7094 45.3067 51.9261V52.0345H45.4133Z" fill="#B6E3E0"/>
<path d="M63.7779 53.2738L63.8865 53.7646C64.0494 54.5825 64.2666 55.455 64.5381 56.382C64.8096 57.2545 65.1897 58.0179 65.6784 58.6723C66.0586 59.2176 66.6016 59.4902 67.2532 59.4902C67.7962 59.4902 68.2849 59.3812 68.7736 59.1085C69.2623 58.8359 69.6968 58.5632 70.0769 58.2906C70.5113 57.9089 70.6742 57.7453 70.7285 57.6907C70.8914 57.4726 71 57.2545 71 57.0364C71 56.8183 70.8914 56.6001 70.7285 56.382C70.5113 56.2184 70.3484 56.1094 70.0769 56.1094C69.8054 56.1094 69.6425 56.2184 69.4253 56.382C69.2623 56.5456 69.0451 56.7637 68.7736 56.9818C68.5021 57.1454 68.2306 57.309 68.0134 57.4726C67.7419 57.5817 67.4704 57.5817 67.2532 57.4726C67.036 57.3636 66.8731 57.2545 66.7102 57.0364C66.493 56.4911 66.2758 55.8912 66.1129 55.1823C65.8957 54.4735 65.7871 53.8736 65.6784 53.4374C65.5155 52.674 65.2983 51.9651 65.0811 51.2562C64.8639 50.6564 64.5924 50.111 64.2666 49.7293C63.9951 49.4022 63.615 49.2386 63.072 49.2386C62.4747 49.2386 62.0402 49.4567 61.6601 49.9475C61.2257 50.4928 60.8456 51.2017 60.5741 52.0741L60.0311 53.6555L59.4881 52.0741C59.2709 51.4743 58.9994 50.9835 58.6193 50.5473C58.3477 50.2201 57.9133 50.0565 57.4246 50.0565C56.8273 50.0565 56.3386 50.2201 55.9585 50.6018C55.5241 50.9835 55.144 51.5288 54.8181 52.1832C54.4923 52.8921 54.2208 53.601 54.0036 54.4189L52.9176 58.236L52.8633 54.2553C52.8633 52.674 52.9719 51.3107 53.1891 50.1111C53.2434 49.8384 53.1891 49.6203 53.0805 49.4022C52.9176 49.184 52.7547 49.075 52.4832 49.0204C52.2117 48.9659 51.9945 49.0204 51.7773 49.184C51.56 49.3476 51.4514 49.5112 51.3971 49.7839C51.3428 50.002 51.2342 50.5473 51.0713 52.0741C50.9627 53.2738 50.9627 54.637 51.1799 56.0548C51.3428 57.4726 51.8316 58.6723 52.6461 59.6538L52.7004 59.7083C53.0262 59.981 53.4063 60.0355 53.7321 59.981C54.1122 59.8719 54.3837 59.5993 54.5466 59.2176C54.7638 58.6723 55.0353 57.9089 55.2526 56.8728C55.4155 56.3275 55.5784 55.6186 55.8499 54.7461C56.1214 53.8191 56.3929 53.1102 56.7187 52.5649L57.3703 51.4198L57.7504 52.674C57.859 53.0011 57.9676 53.3283 58.0762 53.7646C58.1848 54.0917 58.2391 54.4735 58.2934 54.7461L58.3477 54.9097C58.4563 55.5095 58.6192 56.1094 58.7822 56.7092C58.8908 56.9818 58.9994 57.2 59.1623 57.3636C59.2709 57.4726 59.4338 57.5817 59.5424 57.5817C59.8139 57.6362 59.8682 57.6362 59.8682 57.6362C60.3026 57.6362 60.5741 57.4726 60.7913 57.0909C61.0628 56.6001 61.3343 55.8367 61.6058 54.9097C61.6601 54.5825 61.823 54.2008 61.9316 53.71C62.0945 53.2193 62.2575 52.783 62.4204 52.3468L63.072 50.6018L63.5064 52.4013C63.615 52.674 63.7236 52.9466 63.7779 53.2738Z" fill="#B6E3E0"/>
<path d="M36.9282 31C35.7193 31 34.7302 29.721 33.851 28.4977C33.0817 27.4411 32.1475 26.2734 31.1584 25.8841C30.8837 26.1066 30.554 26.8851 30.3342 27.3855C29.7297 28.7201 29.0703 30.1103 27.8614 30.3327C26.2678 30.6107 25.1139 29.6098 24.7292 27.608C24.0149 23.8823 25.9381 16.7089 30.1144 12.4828C28.3559 11.7599 26.2129 11.4819 23.5753 12.0379C16.9813 13.4281 10.607 18.4328 6.43083 25.4393C6.21103 25.8285 5.77143 25.9397 5.38678 25.7173C5.00213 25.4949 4.89222 25.05 5.11203 24.6608C9.56299 17.2094 16.157 12.0379 23.2456 10.5365C26.5975 9.81364 29.2901 10.2585 31.3782 11.315C32.5871 10.3697 34.0158 9.64682 35.5544 9.25757C39.7306 8.31225 46.2148 10.1473 52.4241 11.8711C58.3038 13.5393 64.3483 15.2075 65.9968 13.6505C66.1617 13.4837 66.6562 13.0389 66.3815 11.3706C66.3265 10.9258 66.5463 10.5365 66.9859 10.4809C67.4255 10.3697 67.8102 10.6478 67.8651 11.0926C68.1948 12.7608 67.9201 13.9842 67.0409 14.8183C64.733 16.987 58.8533 15.3188 51.9845 13.3725C46.2148 11.8155 39.6757 9.98046 35.8292 10.8702C34.7302 11.0926 33.6861 11.5931 32.752 12.2604C35.7193 14.3734 37.2579 17.7099 37.9722 19.6561C39.5108 23.9379 39.7856 29.721 37.8623 30.7776C37.5326 30.8888 37.2029 31 36.9282 31ZM31.0485 24.3271C31.1584 24.3271 31.3233 24.3271 31.4332 24.3827C32.9718 24.8276 34.0708 26.329 35.0599 27.608C36.049 28.8869 36.6534 29.6654 37.148 29.3874C37.7524 28.9981 38.3019 24.4383 36.3237 19.4893C35.5544 17.543 34.0708 14.8739 31.5431 13.2613C27.5866 16.987 25.5535 23.8267 26.2129 27.3299C26.5426 28.9981 27.3119 28.8869 27.5866 28.8313C28.0262 28.7757 28.5757 27.4967 28.9055 26.7738C29.455 25.6061 30.0045 24.3271 31.0485 24.3271Z" fill="#B6E3E0"/>
<path d="M15.5 10C13.575 10 12 8.43284 12 6.5C12 4.56716 13.575 3 15.5 3C17.425 3 19 4.56716 19 6.5C19 8.43284 17.425 10 15.5 10ZM15.5 4.46269C14.45 4.46269 13.6333 5.35075 13.6333 6.5C13.6333 7.64925 14.45 8.53731 15.5 8.53731C16.55 8.53731 17.3667 7.64925 17.3667 6.5C17.3667 5.35075 16.55 4.46269 15.5 4.46269Z" fill="#D2A689"/>
<path d="M32.5 7C30.5672 7 29 5.44444 29 3.5C29 1.55555 30.5672 0 32.5 0C34.4328 0 36 1.55555 36 3.5C36 5.44444 34.4328 7 32.5 7ZM32.5 1.55555C31.403 1.55555 30.4627 2.44444 30.4627 3.5C30.4627 4.55555 31.3507 5.44444 32.5 5.44444C33.597 5.44444 34.5373 4.55555 34.5373 3.5C34.5373 2.44444 33.6493 1.55555 32.5 1.55555Z" fill="#D2A689"/>
<path d="M55 9C52.7971 9 51 6.96429 51 4.5C51 2.03571 52.7971 0 55 0C57.2029 0 59 2.03571 59 4.5C59 6.96429 57.2029 9 55 9ZM55 1.5C53.6667 1.5 52.5652 2.83929 52.5652 4.5C52.5652 6.16071 53.6667 7.5 55 7.5C56.3333 7.5 57.4348 6.16071 57.4348 4.5C57.3768 2.83929 56.3333 1.5 55 1.5Z" fill="#D2A689"/>
<path d="M11.5747 38C11.2889 38 11.0031 37.8908 10.7744 37.7271C8.94516 36.3627 10.7744 26.9753 11.9749 21.463C12.0892 21.0264 12.4893 20.8081 12.9467 20.8626C13.404 20.9718 13.6326 21.3538 13.5755 21.7905C12.2035 27.794 11.1746 34.8345 11.7462 36.3627C12.7752 35.4894 13.4611 31.1778 13.8041 28.831C14.3186 25.4472 14.5473 24.1919 15.5762 24.0827C16.4337 23.9736 16.8338 25.0105 17.0053 25.5017C17.4055 26.5933 18.5488 29.5405 19.2919 30.7412C19.5206 28.7764 19.4634 22.4454 19.2347 16.7693C19.2347 16.3327 19.5777 16.0052 19.9779 16.0052C20.378 15.9507 20.7782 16.3327 20.7782 16.7147C21.0068 22.0088 21.2355 31.0141 20.4923 32.1056C20.0922 32.706 19.5206 32.706 19.3491 32.706C18.3201 32.5968 17.5198 31.3415 15.7477 26.6479C15.6334 27.3574 15.4619 28.2852 15.3476 29.1039C14.6044 33.7429 13.9756 37.0722 12.2607 37.8908C12.032 37.9454 11.8034 38 11.5747 38Z" fill="#D2A689"/>
<path d="M57.2761 40C56.1428 39.9467 55.7461 38.6137 54.7261 34.7748C54.1028 32.4288 53.4228 29.8162 52.5729 28.3233C52.4029 28.0567 52.2895 27.8967 52.2329 27.7901C52.0062 28.11 51.7796 28.6965 51.5529 29.1231C50.8162 30.7226 49.9663 32.6954 48.0963 33.0153C47.1897 33.1753 46.6797 32.802 46.453 32.5354C45.0364 30.9359 47.303 25.3908 48.323 23.0981C48.493 22.7249 48.9463 22.5649 49.3429 22.7249C49.7396 22.8848 49.9096 23.3114 49.7396 23.6846C48.153 27.2569 47.133 30.9892 47.643 31.5757C47.643 31.5757 47.6996 31.5757 47.7563 31.5757C48.833 31.3624 49.5129 29.8162 50.0796 28.5366C50.6462 27.2569 51.1562 26.2439 52.1195 26.1906C52.9695 26.1906 53.5362 26.937 53.9328 27.6302C54.8395 29.283 55.5761 32.0023 56.1994 34.4016C56.4828 35.5213 56.8794 36.9075 57.1628 37.7606C58.0127 34.0284 56.4261 21.4985 55.6895 16.8599C55.6328 16.4333 55.9161 16.0601 56.3694 16.0068C56.8228 15.9534 57.2194 16.22 57.2761 16.6466C57.3894 17.393 59.996 34.4549 58.5794 38.5604C58.4661 38.987 58.1827 40 57.2761 40Z" fill="#D2A689"/>
</svg>
