<svg width="25" height="24" viewBox="0 0 25 24" fill="none" xmlns="http://www.w3.org/2000/svg">
<path fill-rule="evenodd" clip-rule="evenodd" d="M11.0039 20C11.0039 19.4477 11.4516 19 12.0039 19H21.0038C21.5561 19 22.0038 19.4477 22.0038 20C22.0038 20.5523 21.5561 21 21.0038 21H12.0039C11.4516 21 11.0039 20.5523 11.0039 20Z" fill="#256370"/>
<path fill-rule="evenodd" clip-rule="evenodd" d="M18.0038 3.87891C17.7064 3.87891 17.4212 3.99705 17.2109 4.20733L4.90686 16.5115L4.37827 18.6259L6.49264 18.0973L18.7967 5.79312C18.9008 5.689 18.9834 5.56538 19.0397 5.42934C19.0961 5.29329 19.1251 5.14748 19.1251 5.00023C19.1251 4.85297 19.0961 4.70716 19.0397 4.57112C18.9834 4.43507 18.9008 4.31146 18.7967 4.20733C18.6925 4.10321 18.5689 4.02061 18.4329 3.96426C18.2968 3.90791 18.151 3.87891 18.0038 3.87891ZM15.7967 2.79312C16.382 2.20776 17.176 1.87891 18.0038 1.87891C18.4137 1.87891 18.8196 1.95964 19.1982 2.1165C19.5769 2.27336 19.921 2.50328 20.2109 2.79312C20.5007 3.08296 20.7306 3.42705 20.8875 3.80575C21.0443 4.18444 21.1251 4.59033 21.1251 5.00023C21.1251 5.41012 21.0443 5.81601 20.8875 6.1947C20.7306 6.5734 20.5007 6.91749 20.2109 7.20733L7.71098 19.7073C7.58282 19.8355 7.42224 19.9264 7.24641 19.9704L3.24645 20.9704C2.90568 21.0556 2.5452 20.9557 2.29682 20.7073C2.04844 20.459 1.94859 20.0985 2.03378 19.7577L3.03378 15.7577C3.07773 15.5819 3.16865 15.4213 3.29681 15.2931L15.7967 2.79312Z" fill="#0C0C0D"/>
</svg>
