<svg width="25" height="24" viewBox="0 0 25 24" fill="none" xmlns="http://www.w3.org/2000/svg">
<path fill-rule="evenodd" clip-rule="evenodd" d="M4.00388 4C3.73866 4 3.48431 4.10536 3.29678 4.29289C3.10924 4.48043 3.00389 4.73478 3.00389 5V11C3.00389 13.3869 3.95209 15.6761 5.6399 17.364C6.47562 18.1997 7.46777 18.8626 8.55968 19.3149C9.6516 19.7672 10.8219 20 12.0038 20C14.3907 20 16.6799 19.0518 18.3677 17.364C20.0555 15.6761 21.0037 13.3869 21.0037 11V5C21.0037 4.73478 20.8984 4.48043 20.7108 4.29289C20.5233 4.10536 20.2689 4 20.0037 4H4.00388ZM4.00388 2H20.0037C20.7994 2 21.5624 2.31607 22.125 2.87868C22.6876 3.44129 23.0037 4.20435 23.0037 5V11C23.0037 13.9174 21.8448 16.7153 19.7819 18.7782C17.719 20.8411 14.9212 22 12.0038 22C10.5593 22 9.12889 21.7155 7.79433 21.1627C6.45976 20.6099 5.24714 19.7996 4.2257 18.7782C2.16282 16.7153 1.00391 13.9174 1.00391 11V5C1.00391 4.20435 1.31997 3.44129 1.88258 2.87868C2.44518 2.31607 3.20824 2 4.00388 2Z" fill="#0C0C0D"/>
<path fill-rule="evenodd" clip-rule="evenodd" d="M7.2968 9.29289C7.68732 8.90237 8.32049 8.90237 8.71101 9.29289L12.0039 12.5858L15.2968 9.29289C15.6873 8.90237 16.3205 8.90237 16.711 9.29289C17.1015 9.68342 17.1015 10.3166 16.711 10.7071L12.711 14.7071C12.3205 15.0976 11.6873 15.0976 11.2968 14.7071L7.2968 10.7071C6.90628 10.3166 6.90628 9.68342 7.2968 9.29289Z" fill="#256370"/>
</svg>
