<svg width="25" height="24" viewBox="0 0 25 24" fill="none" xmlns="http://www.w3.org/2000/svg">
<path fill-rule="evenodd" clip-rule="evenodd" d="M3.88258 1.87868C4.44518 1.31607 5.20824 1 6.00388 1H14.0038C14.269 1 14.5234 1.10536 14.7109 1.29289L20.7109 7.29289C20.8984 7.48043 21.0037 7.73478 21.0037 8V20C21.0037 20.7957 20.6877 21.5587 20.1251 22.1213C19.5625 22.6839 18.7994 23 18.0038 23H6.00388C5.20824 23 4.44518 22.6839 3.88258 22.1213C3.31997 21.5587 3.00391 20.7957 3.00391 20V4C3.00391 3.20435 3.31997 2.44129 3.88258 1.87868ZM6.00388 3C5.73866 3 5.48431 3.10536 5.29678 3.29289C5.10924 3.48043 5.00389 3.73478 5.00389 4V20C5.00389 20.2652 5.10924 20.5196 5.29678 20.7071C5.48431 20.8946 5.73866 21 6.00388 21H18.0038C18.269 21 18.5233 20.8946 18.7109 20.7071C18.8984 20.5196 19.0038 20.2652 19.0038 20V8.41421L13.5896 3H6.00388Z" fill="#0C0C0D"/>
<path fill-rule="evenodd" clip-rule="evenodd" d="M14.0039 1C14.5562 1 15.0039 1.44772 15.0039 2V7H20.0039C20.5562 7 21.0039 7.44772 21.0039 8C21.0039 8.55228 20.5562 9 20.0039 9H14.0039C13.4516 9 13.0039 8.55228 13.0039 8V2C13.0039 1.44772 13.4516 1 14.0039 1Z" fill="#0C0C0D"/>
<path fill-rule="evenodd" clip-rule="evenodd" d="M7.00391 13C7.00391 12.4477 7.45162 12 8.00391 12H16.0039C16.5562 12 17.0039 12.4477 17.0039 13C17.0039 13.5523 16.5562 14 16.0039 14H8.00391C7.45162 14 7.00391 13.5523 7.00391 13Z" fill="#256370"/>
<path fill-rule="evenodd" clip-rule="evenodd" d="M7.00391 17C7.00391 16.4477 7.45162 16 8.00391 16H16.0039C16.5562 16 17.0039 16.4477 17.0039 17C17.0039 17.5523 16.5562 18 16.0039 18H8.00391C7.45162 18 7.00391 17.5523 7.00391 17Z" fill="#256370"/>
<path fill-rule="evenodd" clip-rule="evenodd" d="M7.00391 9C7.00391 8.44772 7.45162 8 8.00391 8H10.0039C10.5562 8 11.0039 8.44772 11.0039 9C11.0039 9.55228 10.5562 10 10.0039 10H8.00391C7.45162 10 7.00391 9.55228 7.00391 9Z" fill="#256370"/>
</svg>
