<svg width="153" height="153" viewBox="0 0 153 153" fill="none" xmlns="http://www.w3.org/2000/svg">
<g clip-path="url(#clip0_188_2915)">
<path fill-rule="evenodd" clip-rule="evenodd" d="M118.639 92.8145C116.757 83.8961 110.083 76.9757 101.108 73.5282C99.3827 72.552 97.7103 68.3634 95.3917 67.5963C95.02 67.4733 95.6067 68.4519 95.3917 68.5103C94.6249 68.7188 93.7657 68.7406 92.9191 67.9878C91.406 66.6424 90.9313 62.7118 90.0113 60.9353C85.1593 51.5661 73.0451 55.232 71.4221 65.5894C70.2905 66.3273 68.6907 66.9773 67.4589 67.5719C66.1905 68.1842 65.0747 69.6672 63.7676 70.1974C62.6012 70.6705 60.6795 70.3353 59.5042 70.7477C54.0987 72.6446 49.5205 75.0382 45.9312 79.8877C45.1748 80.9105 44.3223 82.168 43.634 83.2012C40.0858 87.2875 37.6213 91.8675 35.3514 96.7813C29.0008 111.204 27.2734 127.174 25.7237 142.713C25.7589 145.432 23.9554 152.972 26.6229 154.275C26.4634 154.441 26.5212 154.773 26.817 154.77C33.5806 154.702 40.3286 155.307 46.9873 156.484C50.2 157.053 53.3955 157.832 56.668 157.96C63.4613 157.913 70.2301 156.774 77.0143 157.851C85.1701 157.851 95.0819 157.614 104.155 157.265C112.635 156.939 121.16 157.675 129.535 156.233C130.198 156.128 130.522 155.319 130.383 154.739C129.4 151.158 128.918 147.471 128.366 143.805C128.476 141.454 128.28 138.999 127.41 136.809C125.139 122.025 122.225 107.336 118.639 92.8145Z" fill="#EDB98A"/>
<path fill-rule="evenodd" clip-rule="evenodd" d="M95.3917 68.5644C95.6067 68.506 95.02 67.5274 95.3917 67.6503C97.7103 68.4174 99.3827 72.606 101.108 73.5822C110.083 77.0297 116.757 83.9502 118.639 92.8686C122.225 107.391 125.139 122.079 127.41 136.863C128.28 139.053 128.476 141.508 128.366 143.859L128.453 144.438C128.97 147.913 129.452 151.4 130.383 154.793C130.522 155.373 130.198 156.182 129.535 156.287C121.255 157.713 112.829 157.009 104.444 157.308L102.697 157.374C94.0297 157.692 84.7352 157.905 77.0143 157.905C70.2301 156.828 63.4613 157.967 56.668 158.014C53.3955 157.886 50.2 157.107 46.9873 156.538C40.3286 155.361 33.5806 154.756 26.817 154.824C26.5212 154.827 26.4634 154.495 26.6229 154.329C23.9554 153.026 25.7589 145.486 25.7237 142.767L25.8637 141.368C27.3812 126.271 29.1913 110.826 35.3514 96.8354L35.5359 96.4377C37.7553 91.6744 40.1817 87.2311 43.634 83.2553L43.8452 82.939C44.4918 81.9729 45.2505 80.8623 45.9311 79.9418C49.5205 75.0922 54.0987 72.6987 59.5042 70.8018C60.6795 70.3894 62.6012 70.7245 63.7676 70.2514C64.9902 69.7555 66.0453 68.4262 67.2145 67.7553L67.2145 72.7595L84.133 89.432L93.7286 74.7127L94.7045 68.6843C94.9396 68.6695 95.1695 68.6248 95.3917 68.5644Z" fill="#FFD948"/>
<path fill-rule="evenodd" clip-rule="evenodd" d="M115.899 112.248C115.72 113.117 115.469 113.986 115.136 114.809C114.815 115.604 114.331 116.316 113.997 117.101C113.953 117.207 113.879 117.287 113.791 117.348L113.819 117.562V117.562L113.844 117.775C114.01 119.217 114.197 120.654 114.359 122.095L114.438 122.816C114.756 125.825 115.259 128.82 115.65 131.821C116.032 134.76 116.421 137.699 116.837 140.633C117.267 143.659 117.705 146.681 118.216 149.694C118.432 150.967 118.657 152.238 118.892 153.509L119.073 154.481C120.938 154.93 121.448 157.531 119.549 158.491C118.687 158.925 117.579 158.821 116.868 158.139C116.13 157.428 116.1 156.146 115.928 155.184L115.763 154.289C114.528 147.562 113.456 140.757 112.955 133.935C112.826 132.174 112.718 130.411 112.647 128.646C112.58 126.987 112.612 125.327 112.586 123.667L112.578 123.215C112.539 121.445 112.571 119.678 112.617 117.908C112.623 117.693 112.632 117.477 112.643 117.26C112.581 117.187 112.536 117.1 112.517 117.016L112.493 116.905C112.432 116.618 112.501 116.283 112.72 116.079C112.815 114.873 112.94 113.669 112.974 112.465C112.976 112.366 113.119 112.368 113.127 112.465C113.207 113.49 113.367 114.518 113.527 115.544C114.556 114.717 115.316 113.353 115.765 112.211C115.798 112.128 115.918 112.158 115.899 112.248ZM91.5559 64.3182C91.7268 65.0994 92.0643 65.8006 92.5171 66.4529C92.7328 66.7649 92.978 67.0551 93.2722 67.2978C93.5245 67.5052 93.8119 67.6408 94.0801 67.8213C94.4706 67.7601 94.8786 67.9081 95.1524 68.1955L95.1092 67.7752C95.0955 67.6396 95.3207 67.6125 95.3464 67.7439C96.5324 73.7275 97.6141 79.715 98.5504 85.7419L98.9608 88.4035L99.3469 90.9021C99.9881 95.0658 100.608 99.2278 101.075 103.422C101.698 109.019 102.221 114.631 102.603 120.25C102.987 125.91 103.223 131.573 103.391 137.243C103.433 138.673 103.478 140.101 103.521 141.53L103.81 139.821C104.099 138.112 104.383 136.401 104.626 134.684C105.497 128.539 106.194 122.351 106.534 116.154C106.846 110.482 106.742 104.698 105.299 99.173C104.936 97.7829 104.491 96.4145 103.955 95.0814C103.434 93.7851 102.724 92.5834 102.164 91.306C101.513 89.8196 101.318 88.4174 101.653 86.8171C101.946 85.423 102.459 84.1116 102.551 82.6767C102.724 80.0132 101.857 77.4337 100.633 75.1026C100.311 74.4882 99.9704 73.882 99.6152 73.2811C98.5403 71.4653 97.3282 69.7157 96.0703 68.0383C96.0026 67.9488 96.1461 67.8498 96.2195 67.923C97.3662 69.0568 98.6202 70.1715 99.6519 71.4097C100.153 72.0119 100.643 72.6261 101.106 73.2568C106.193 74.1071 110.563 77.2763 113.551 81.4616C116.942 86.2109 118.656 91.9271 119.925 97.5564C121.337 103.813 122.527 110.125 123.794 116.413C125.107 122.918 126.412 129.424 127.732 135.928C128.389 139.157 129.045 142.386 129.699 145.616C130.032 147.252 130.38 148.883 130.745 150.513C130.932 151.349 131.132 152.183 131.306 153.021C131.501 153.966 131.319 154.571 130.68 155.265C130.444 155.523 130.071 155.519 129.778 155.382L129.687 155.339L129.598 155.296C129.236 155.118 128.952 154.933 128.726 154.537C128.478 154.102 128.439 153.619 128.353 153.135C128.196 152.244 128.04 151.353 127.883 150.461C127.648 149.126 127.393 147.795 127.133 146.465L125.828 139.817C125.48 138.044 125.132 136.272 124.781 134.5C123.53 128.164 122.277 121.829 121.025 115.495C119.822 109.412 118.758 103.288 117.389 97.2404L117.311 96.8998L117.232 96.5595C116.008 91.3464 114.297 86.3036 111.194 81.8861C108.805 78.4889 105.488 75.4552 101.581 73.9198C101.856 74.316 102.121 74.7201 102.373 75.1324C103.956 77.72 105.112 80.7917 104.841 83.8729C104.708 85.3782 104.136 86.8578 104.19 88.3753C104.241 89.7234 105.074 90.9073 105.651 92.0802C106.959 94.7385 107.905 97.5633 108.515 100.461C109.739 106.281 109.735 112.268 109.313 118.176C108.855 124.597 107.985 131.017 106.994 137.376C106.486 140.638 105.809 143.872 105.291 147.128C105.035 148.734 104.687 150.336 104.382 151.933L104.236 152.697C104.155 153.12 104.07 153.542 103.973 153.96L103.913 154.21V154.255C103.91 154.563 103.826 154.818 103.69 155.021C103.505 155.617 103.274 156.197 102.968 156.754C102.811 157.039 102.583 157.199 102.335 157.258C102.085 157.829 101.52 158.268 100.845 158.265L91.9667 158.231C86.8099 158.211 81.653 158.177 76.4962 158.148C75.1949 158.142 73.8949 158.117 72.5948 158.084C71.3761 158.05 70.2076 157.903 69.0024 157.751C67.6412 157.58 66.9039 156.616 67.1072 155.256C67.152 154.956 67.2006 154.658 67.2469 154.36C66.9757 154.449 66.6531 154.407 66.4348 154.194L66.2302 153.994C65.9466 153.713 65.6929 153.437 65.513 153.063C65.3273 152.678 65.1767 152.271 65.0126 151.878C64.6588 151.031 64.3146 150.183 63.9796 149.329C63.3087 147.623 62.6377 145.911 62.014 144.187C60.7791 140.773 59.6864 137.308 58.7362 133.804C57.0416 127.552 55.816 121.18 55.0433 114.75L54.8586 113.218L54.8048 112.765C54.5118 110.273 54.2652 107.742 54.3818 105.256C54.4537 103.698 54.6949 102.13 55.2766 100.676C55.8133 99.3345 56.6416 98.1872 57.4292 96.9883L57.5194 96.8499L57.61 96.7082C58.2988 95.6193 58.8469 94.4809 58.8743 93.1585C58.9022 91.8166 58.5114 90.5106 58.0744 89.2543L57.9655 88.9445L57.8924 88.7394C56.9629 86.1429 55.905 83.5831 56.2539 80.7578C56.7692 76.597 59.2905 73.2433 62.4628 70.657C59.6416 71.2158 56.8491 72.3196 54.3846 73.7193C51.4739 75.3738 48.8535 77.5572 46.5936 80.0214C42.3234 84.6783 39.2746 90.2658 36.779 96.0349C34.1666 102.073 32.2293 108.399 30.7695 114.808C29.3013 121.254 28.3185 127.803 27.6473 134.378C27.3126 137.65 27.0495 140.931 26.8314 144.213C26.7202 145.894 26.6361 147.579 26.506 149.258C26.3759 150.935 26.3174 152.638 25.908 154.271C25.7169 155.032 24.4277 155.109 24.2895 154.271C23.983 152.4 24.0686 150.464 24.1542 148.569L24.162 148.396C24.2462 146.509 24.356 144.622 24.486 142.736C24.7518 138.88 25.1068 135.03 25.5705 131.192C27.1959 117.72 30.1933 104.318 36.0727 92.0207C38.8409 86.2285 42.394 80.6004 47.3367 76.418C49.6899 74.4284 52.3429 72.8403 55.2019 71.6904C57.7588 70.6611 60.3562 70.1743 63.0729 70.1756C64.4353 69.1314 65.898 68.2214 67.3592 67.4442C67.4474 67.3968 67.5395 67.5107 67.4665 67.584C67.4285 67.6206 67.3918 67.6584 67.354 67.6938C67.5193 67.7047 67.69 67.782 67.8432 67.9434C68.3802 68.506 68.8329 69.21 69.2381 69.9409C69.855 70.7113 70.4433 71.5072 71.0589 72.2694C72.0443 73.4899 73.0529 74.6929 74.0738 75.8863C75.7884 77.892 77.5587 79.8597 79.4049 81.7482L79.7133 82.0623C80.6702 83.032 81.6396 84.1928 82.7714 84.9604L82.8319 85.0006C83.3094 85.3118 83.648 85.3683 84.0552 84.9036C84.4254 84.4804 84.7336 83.9895 85.0503 83.523L85.1236 83.4158C86.7409 81.0656 88.2402 78.6286 89.5972 76.1197C90.2157 74.9779 90.8041 73.8196 91.3624 72.6484L91.529 72.2967C91.8326 71.6511 92.1621 71.0178 92.4127 70.3531C92.471 70.1973 92.5279 70.0413 92.5835 69.8867C91.7295 69.3267 91.0681 68.1142 90.8281 67.1649C90.5787 66.179 90.7047 65.1672 91.1493 64.2654C91.2333 64.0959 91.5153 64.1378 91.5559 64.3182ZM49.4234 104.383C49.3053 108.132 49.2335 111.884 49.0572 115.63L48.9963 116.909C49.2714 117.215 49.4327 117.569 49.3039 118.055C49.2539 118.241 49.106 118.409 48.9216 118.471L48.8641 119.66C48.6025 125.009 48.2958 130.348 47.7354 135.684C47.0346 142.361 46.2239 149.028 45.4147 155.694C45.2995 156.638 44.6432 157.386 43.6224 157.248C42.5896 157.108 42.1707 156.209 42.3063 155.272C42.839 151.595 43.3513 147.916 43.8002 144.227L44.3112 140.025C44.9521 134.771 45.608 129.519 46.3637 124.282C46.6795 122.093 47.0076 119.906 47.3369 117.718L47.2218 117.569C46.7512 116.958 46.2646 116.36 45.7833 115.757C44.8589 114.597 43.9466 113.445 43.0993 112.23C43.0571 112.169 43.1427 112.079 43.2036 112.126C44.3911 113.003 45.515 113.941 46.6456 114.895L47.6353 115.733C48.2046 111.953 48.7686 108.172 49.2714 104.383C49.2837 104.288 49.426 104.281 49.4234 104.383ZM66.5059 68.5102C65.7913 69.184 65.0608 69.8433 64.3408 70.5132L64.0771 70.7598L63.8146 71.0075C62.5493 72.2078 61.337 73.4574 60.3269 74.8923C58.4724 77.5273 57.3675 80.7399 58.1388 83.9569C58.7788 86.6216 60.2469 89.0371 60.6414 91.7684C60.8392 93.1367 60.7431 94.5119 60.2278 95.8042C59.7018 97.1225 58.8613 98.2522 58.1062 99.4416C56.4659 102.026 56.2422 104.864 56.405 107.858C56.5759 110.985 56.935 114.114 57.3784 117.213C58.2757 123.492 59.6286 129.706 61.4194 135.791C62.3156 138.838 63.3742 141.82 64.4277 144.815C64.9522 146.305 65.5637 147.76 66.1939 149.209C66.5261 149.971 66.8665 150.729 67.2121 151.486C67.0846 150.417 67.0846 149.32 67.0222 148.258C66.9327 146.736 66.8189 145.218 66.7145 143.697C66.5018 140.612 66.312 137.524 66.1426 134.436C65.542 123.424 65.1001 112.402 65.1325 101.373C65.1489 95.8572 65.2614 90.3417 65.4986 84.8315C65.6098 82.2367 65.8252 79.6444 66.0199 77.0532L66.0612 76.498C66.2334 74.1721 66.4394 71.8409 66.7931 69.5354C66.6884 69.299 66.5975 69.0596 66.53 68.8141L66.5059 68.7217L66.5235 68.7244C66.5072 68.6524 66.5018 68.5807 66.5059 68.5102ZM72.6857 59.0331C72.7005 58.9694 72.7913 58.9748 72.8076 59.0331C73.2102 60.3893 73.0679 61.881 72.721 63.2453C72.5339 63.9845 72.2682 64.7019 71.9469 65.3935L71.8345 65.6356C71.5592 66.2246 71.2492 66.8315 70.7131 67.1986C70.4896 67.3518 70.0895 67.3613 69.8659 67.1986L69.7518 67.112C69.733 67.0973 69.7145 67.0824 69.6964 67.067C69.4878 66.8921 69.3846 66.5056 69.4809 66.2506C69.7289 65.5929 70.2917 65.1101 70.6806 64.5242C71.0251 64.0034 71.3301 63.4542 71.5834 62.8832C72.1298 61.6478 72.3751 60.3364 72.6857 59.0331Z" fill="black"/>
<path fill-rule="evenodd" clip-rule="evenodd" d="M104.606 19.2606C104.306 18.5004 103.774 17.545 102.886 17.5069C102.199 15.4015 100.491 13.2572 98.1157 13.3142C91.1424 6.1653 82.3635 6.50231 73.1849 8.01565C68.3425 8.91601 63.4256 10.679 59.8139 14.1581C55.4883 18.254 53.804 25.4009 57.1913 30.5802C54.2638 32.1529 54.207 35.8851 55.459 38.5783C53.954 39.6216 53.8626 42.1538 55.5572 42.9496C55.4671 43.3196 55.5308 43.702 55.7026 44.0308C54.8624 44.7319 53.7688 45.2498 52.8647 45.695C52.4651 45.8918 52.2346 46.2132 52.1388 46.5755C49.1703 48.5278 41.7682 53.2991 41.8564 57.0965C41.8129 59.0775 43.2787 60.3814 45.0601 60.9005C44.0002 63.0247 43.1957 65.5058 44.2102 67.7971C44.4907 68.4895 46.5918 70.5241 46.6976 70.5617C46.8825 70.7206 49.8969 69.3333 51.3619 68.6256C51.646 70.4781 53.622 71.4487 55.3253 70.8139C56.9404 70.3258 57.9332 68.9552 58.9518 67.7083C60.3039 70.6652 64.282 70.6992 66.8531 69.4244C69.1621 68.3551 70.9174 66.3951 71.8952 64.0334C77.0874 66.5815 83.1621 67.3242 88.8032 66.3064C89.1652 66.9487 89.9666 67.3801 90.6804 67.1317C93.6801 66.2276 96.9967 66.1769 99.5394 64.1057C104.839 60.292 105.286 53.2611 104.916 47.2678C104.588 41.2921 104.875 35.2667 103.792 29.3556C104.262 27.6152 105.044 26.0766 105.768 24.4417C106.554 22.7272 106.538 20.1785 104.606 19.2606Z" fill="#EDB98A"/>
<path fill-rule="evenodd" clip-rule="evenodd" d="M80.5441 7.39941L80.7501 7.40023C81.0907 7.40248 81.4307 7.40922 81.7699 7.42043C83.5623 7.47957 85.4316 7.71267 87.5363 8.11169L87.8563 8.17332C88.3798 8.27606 88.8487 8.37916 89.5967 8.55431L91.0811 8.90501C91.8369 9.08156 92.3932 9.20372 92.9065 9.302L92.9737 9.31472C92.9737 9.31472 96.9294 11.2155 98.207 12.466L98.3344 12.5918L98.3887 12.6461L98.9441 12.6637L98.9495 12.734L98.9543 12.7347C99.5057 12.8208 100.005 13.1071 100.469 13.5529L100.518 13.6013L100.566 13.6492C100.927 14.0178 101.216 14.4105 101.613 15.033L101.703 15.1752L101.864 15.432L101.995 15.6382C102.08 15.7731 102.162 15.9065 102.24 16.0387L102.317 16.1705L102.373 16.2674L103.807 17.106C104.014 17.2269 104.202 17.3832 104.374 17.5705L104.42 17.6224L104.466 17.6757L104.857 18.1418L104.778 18.224L104.816 18.2743L104.884 18.3679L104.951 18.4629L105.016 18.5591L105.044 18.6014L105.086 18.6926L105.106 18.7382L105.123 18.7757L105.171 18.801L105.271 18.9812C105.788 19.9163 106.067 20.9784 106.085 22.0697C106.098 22.8225 106.006 23.5061 105.786 24.1656C105.634 24.6216 105.43 24.98 105.077 25.4733L104.799 25.8564L104.742 25.9354L104.674 26.0316C104.663 26.047 104.652 26.0622 104.642 26.0773C104.189 26.7351 100.317 27.9802 97.9372 28.0404L97.8656 28.0418L97.774 28.0427C97.547 28.0437 97.3275 28.0355 97.116 28.0178C96.2005 27.9411 95.3446 27.7479 94.3503 27.4321L94.144 27.3653L93.0485 26.9964C93.0136 26.9848 92.9855 26.9756 92.966 26.9693L92.866 26.938C92.6247 26.8638 92.4494 26.8211 92.3299 26.8057L92.3055 26.8027L92.303 26.8482L92.3022 26.891L92.3023 26.9258C92.3093 27.4313 92.0031 27.7997 91.5281 28.0346C91.2256 28.1841 90.8359 28.2909 90.3467 28.371L90.2686 28.3835C89.469 28.5073 88.5154 28.5602 86.9202 28.5965C86.8594 28.5978 86.7982 28.5971 86.7364 28.5942C86.3939 28.5785 86.1247 28.52 85.6243 28.376L85.3878 28.3079L85.2595 28.2724C85.0216 28.2079 84.889 28.1822 84.7638 28.1752L84.7274 28.1736L84.6912 28.173C84.5409 28.1728 84.4323 28.2064 84.3253 28.2882L84.2706 28.332L83.5351 28.9497C83.4394 29.0296 83.3535 29.1005 83.2906 29.1507L83.265 29.171C82.2556 29.9644 81.2932 30.4177 80.1594 30.4608L80.0835 30.463L80.0045 30.4639C79.9469 30.464 79.8891 30.463 79.8311 30.4608C79.3537 30.4426 78.8581 30.2651 78.1813 29.923L78.041 29.8511L77.9429 29.7997C77.8927 29.7733 77.8405 29.7455 77.7838 29.7151L77.2789 29.4443L77.0209 29.3091C76.7126 29.1502 76.5407 29.0735 76.425 29.0419L76.4061 29.0369L76.3953 29.0473C76.1275 29.3095 75.8978 29.6393 75.6505 30.0947L75.6132 30.1639L75.5591 30.2671L75.2079 30.968L75.1415 31.0984C74.8808 31.6043 74.6746 31.9277 74.4047 32.2114C74.013 32.6231 73.5386 32.862 72.9573 32.9003L72.8989 32.9035L72.8296 32.9052C72.5558 32.9079 72.2658 32.8657 71.9513 32.7782L71.8783 32.7571L71.8071 32.7353C71.3385 32.5869 70.5978 32.6793 70.0096 32.9923C69.3707 33.3322 69.0188 33.8509 69.0345 34.5137C69.0423 34.8429 69.0801 35.1959 69.1464 35.5785L69.1653 35.6836C69.2525 36.1565 69.3707 36.631 69.5528 37.264L69.9443 38.588L69.9884 38.7425L70.0328 38.9014C70.0963 39.133 70.147 39.3347 70.1888 39.5246C70.3486 40.2508 70.3752 40.7962 70.2151 41.2608C69.5089 43.3095 68.2834 44.3977 66.8883 44.4437L66.8401 44.4448L66.7805 44.4449C65.7087 44.4333 64.7376 43.7333 64.7493 42.8263C64.7505 42.7313 64.7685 42.6428 64.7999 42.5627L64.8142 42.5289L64.8211 42.5144L64.81 42.4873C64.4806 41.6968 63.7188 41.1198 62.8243 41.0066L62.7736 41.0007L62.7234 40.9959C62.6743 40.9916 62.6253 40.9887 62.5789 40.9871L62.5334 40.9859L62.4791 40.9855C61.2869 40.9873 60.1072 41.7829 59.1792 43.0844C58.9857 43.3558 58.8061 43.6521 58.6447 43.9651L58.5916 44.0701L58.3336 44.5993L58.1593 45.111C57.1991 47.929 57.6853 50.8777 59.5595 52.4023L59.6167 52.448C60.292 52.9788 61.0861 53.3015 61.9339 53.3883C62.0315 53.3983 62.1297 53.4047 62.2241 53.4072L62.2942 53.4084L62.3748 53.4082C62.651 53.4045 62.9152 53.3701 63.1526 53.3058C63.3462 53.2535 63.4809 53.1899 63.5747 53.1088C63.5993 53.0875 63.6192 53.0682 63.6363 53.049L63.6507 53.0318L63.6561 53.0244L64.937 53.2149C65.155 54.6014 65.7844 56.0381 66.8083 57.6857L66.8728 57.789L66.9853 57.9666L67.0998 58.1445C68.3046 60.0022 69.6483 61.5664 71.1253 62.7668L71.2285 62.85L71.3669 62.96L71.4939 63.0597C71.7408 63.2518 71.9464 63.4012 72.1522 63.5346L72.2037 63.5677L72.6894 63.8762L72.4639 64.4064C71.9378 65.6436 71.2118 66.7683 70.3169 67.7259L70.2325 67.8151L69.6106 68.4581L69.1322 67.8476C69.1286 67.843 69.1178 67.8372 69.1051 67.8348L69.0964 67.8338H69.0915L69.085 67.8344L69.0774 67.8365L69.0696 67.84C68.7115 68.0346 68.5148 68.1834 68.2322 68.4746L68.1912 68.5172L68.1435 68.5675L68.0778 68.6362C67.7842 68.9377 67.4704 69.1946 67.1285 69.4083C66.3386 69.9018 65.462 70.176 64.5542 70.2008L64.469 70.2024L64.3832 70.2024C64.3524 70.2021 64.3216 70.2016 64.2907 70.2007C62.3967 70.1481 60.6994 68.9317 59.8652 67.1487C59.8321 67.0779 59.8016 67.0548 59.7454 67.0502L59.7295 67.0494L59.7095 67.0491C59.5703 67.0499 59.3998 67.133 59.3048 67.2445L59.2878 67.2657L58.9685 67.6958L58.8461 67.8582C57.7071 69.3573 56.7719 70.1772 55.5158 70.4263C55.417 70.4458 55.3123 70.4578 55.2012 70.4627L55.1338 70.4655H55.0944C54.5542 70.467 53.9317 70.3101 53.4464 70.0338C52.8046 69.6684 52.4078 69.1063 52.4581 68.4099L52.4619 68.3653L52.4708 68.2907C52.5127 67.9189 52.2159 67.7169 51.9886 67.8994L51.9733 67.9124L51.9545 67.9296C51.0187 68.8093 49.9423 69.4844 48.783 69.901L48.6805 69.9371L48.5281 69.9892C47.797 70.2365 47.2815 70.3592 46.7386 70.3688C46.2688 70.3769 45.8781 70.207 45.5956 69.8804C45.4071 69.6626 45.292 69.4205 45.177 69.0672L45.1579 69.0073L45.1159 68.87L45.0899 68.7806C44.7535 67.5942 44.7462 66.3255 45.0103 64.9258C45.2076 63.8802 45.5216 62.8701 46.0496 61.4543L46.1521 61.1814L46.3636 60.6245C46.3849 60.5687 46.2579 60.3737 46.1792 60.3517L46.17 60.35L46.0982 60.3577C46.0479 60.3625 45.9972 60.3658 45.9452 60.3678L45.8662 60.3698H45.8144C44.0991 60.3522 42.789 58.6659 42.8012 56.8797C42.8144 55.2064 43.6538 53.7676 45.2565 52.0598L45.3957 51.9127L45.5463 51.7563L45.6952 51.6035C47.1193 50.1499 48.5752 48.881 50.0913 47.7927L50.2169 47.703L50.3566 47.6041C50.8672 47.2451 51.3635 46.9195 52.0504 46.4915L52.4548 46.2412L54.0938 44.3024C54.1331 44.2801 54.1719 44.2578 54.21 44.2355L54.2308 43.5629L55.8099 43.5955C55.4092 43.3895 55.0772 43.1394 54.8076 42.819C53.9113 41.7536 54.0238 40.2735 55.1135 39.5463L55.152 39.5212L55.6114 39.2369L55.9873 39.5674C56.3147 39.8554 56.662 40.0463 57.0241 40.1345L57.0814 40.1475L57.3648 40.2077L57.4199 40.2972L57.4519 40.2509C57.4517 40.2462 57.4508 40.2416 57.4492 40.2372L57.4464 40.2306L57.4405 40.2213L57.4048 40.1773L57.3654 40.1301C57.2393 39.9816 57.0978 39.8373 56.8408 39.5893L56.6605 39.4156L56.5202 39.2787C56.152 38.9161 55.9559 38.6916 55.7473 38.3796C55.2284 37.6035 54.9354 36.7285 54.9232 35.8397C54.8977 33.9916 56.0443 32.2443 57.7435 31.4468C57.803 31.4189 57.8469 31.2204 57.7755 31.0892C56.1303 28.063 55.6738 24.4355 56.5002 21.061C57.2714 17.9126 59.1898 15.1337 61.9364 13.0049C66.6514 9.35032 73.1921 7.46573 80.1317 7.40082L80.3421 7.39941H80.5441Z" fill="#0C0C0D"/>
<path fill-rule="evenodd" clip-rule="evenodd" d="M55.3289 44.6255C55.6412 44.5468 55.809 44.9677 55.5438 45.1368C53.8604 46.2102 52.1215 47.1689 50.4953 48.3368C48.9486 49.447 47.52 50.7118 46.1878 52.0715L46.0402 52.223C44.8358 53.4651 43.502 55.0453 43.4885 56.8776C43.478 58.3019 44.5734 59.8564 46.1016 59.6693C46.6774 59.5988 47.2066 60.3311 47.0057 60.859L46.7943 61.4155C45.944 63.6674 45.0789 66.2189 45.7505 68.588L45.7752 68.6726C45.9377 69.215 46.1089 69.6944 46.737 69.6836C47.3199 69.6733 47.9265 69.4762 48.4722 69.2881C49.6046 68.8977 50.6308 68.2466 51.5019 67.4278C52.2723 66.7035 53.2567 67.4393 53.153 68.3597L53.1493 68.3891C53.0074 69.422 54.6487 69.9015 55.3949 69.7538C56.8682 69.4617 57.9186 67.9819 58.7553 66.8537C59.1575 66.3116 60.1343 66.0982 60.4877 66.8537C61.1879 68.3502 62.6312 69.4688 64.3196 69.5157C65.1966 69.54 66.038 69.2898 66.7808 68.8257C67.084 68.6362 67.3551 68.4108 67.6038 68.1554L67.6655 68.0909C68.0335 67.6999 68.2874 67.492 68.7573 67.2367C69.2204 66.9851 69.8194 67.297 69.8166 67.8459C69.8128 68.5568 69.605 69.0294 69.1159 69.545C68.7113 69.9721 68.2306 70.3469 67.7252 70.6465C66.7095 71.2481 65.502 71.5866 64.3196 71.5474C62.4557 71.4855 60.6767 70.5543 59.5234 69.1059C58.346 70.5172 56.8854 71.814 54.9873 71.7791C53.5664 71.7531 52.2421 71.0116 51.6077 69.8626C50.712 70.4817 49.7289 70.9657 48.6773 71.2818L48.5836 71.3096C47.095 71.7439 45.3819 71.9165 44.4238 70.435C43.5242 69.0442 43.4571 67.118 43.6632 65.5282C43.8474 64.108 44.2832 62.7593 44.7837 61.429C43.359 61.0025 42.2531 59.6609 41.8732 58.2147C41.2986 56.0277 42.4134 53.9068 43.7916 52.2819C45.2887 50.5167 47.173 49.0237 49.0714 47.7169C50.9647 46.4137 53.0857 45.1891 55.3289 44.6255ZM104.011 27.5202C104.014 27.4594 104.113 27.4381 104.123 27.5049C104.777 32.262 105.155 37.0095 105.469 41.7994C105.628 44.226 105.808 46.6501 106.006 49.0737C106.195 51.3978 106.511 53.7837 106.439 56.1172C106.328 59.7713 104.558 62.7423 101.655 64.8805C98.8745 66.9295 95.4247 67.9426 92.0399 68.3706C90.0742 68.6191 88.0811 68.6311 86.1133 68.3975C85.0912 68.2763 84.0704 68.1148 83.0694 67.8724L82.6366 67.7638C81.8482 67.562 80.968 67.288 80.8556 66.3519C80.801 65.8985 81.0413 65.5641 81.4293 65.3366C81.9351 65.0398 82.515 65.2145 83.0362 65.3497C83.9146 65.5775 84.8023 65.7731 85.7 65.9083C87.6281 66.1991 89.6102 66.2163 91.5482 66.015C94.8081 65.6763 98.2468 64.6163 100.76 62.4272C101.853 61.476 102.802 60.3168 103.302 58.9398C103.944 57.1695 103.849 55.2382 103.828 53.3843C103.778 49.0737 103.822 44.7631 103.762 40.4522C103.702 36.128 103.754 31.8379 104.011 27.5202ZM71.2294 7.37487C75.0386 6.39003 78.9044 6.13412 82.8171 6.43058C86.5071 6.70995 90.7106 7.53761 93.7243 9.81285C93.8705 9.92324 93.783 10.1322 93.602 10.1033C91.5872 9.78139 89.6232 9.1958 87.617 8.80834C85.6874 8.43566 83.7231 8.15589 81.7583 8.09106C75.1132 7.8715 67.7191 9.38105 62.3608 13.5343C59.8483 15.4816 57.9308 18.1001 57.1677 21.2156C56.3852 24.4111 56.8086 27.8669 58.3801 30.7576C58.6064 31.1738 58.5131 31.8322 58.041 32.0538C56.6084 32.7262 55.588 34.2158 55.6102 35.8233C55.6208 36.6029 55.889 37.3506 56.3198 37.995C56.7754 38.6765 57.469 39.1533 57.9786 39.7898C58.1792 40.0404 58.1869 40.3855 58.028 40.6164C58.326 40.7472 58.6474 40.8175 58.9407 40.9721C59.1893 41.1032 59.1964 41.5126 58.9407 41.6418C58.2941 41.9682 57.5949 41.6217 57.1585 41.0954C57.0806 41.0014 57.0133 40.9036 56.9518 40.8038C56.4291 40.6927 55.9608 40.4298 55.5518 40.0701C54.7727 40.5378 54.6659 41.5791 55.3353 42.3748C55.6771 42.781 56.1628 43.0317 56.6536 43.2119L56.7125 43.2332C57.1902 43.4033 57.6277 43.4982 57.938 43.8813C58.1427 43.4536 58.3777 43.0504 58.6396 42.683C59.5918 41.3476 61.0555 40.1629 62.7923 40.3133C64.1528 40.4308 65.3315 41.4073 65.6103 42.7545C65.6308 42.8542 65.4809 42.932 65.4363 42.828C64.7836 41.3022 62.7183 41.2462 61.4881 42.0413C60.0413 42.9765 59.2506 44.7388 58.9334 46.3802C58.6212 47.997 58.8016 49.9635 60.0087 51.1932C60.5026 51.6965 61.1745 52.0445 61.8758 52.1362C62.2186 52.1812 62.521 52.1369 62.8488 52.0707L63.0661 52.0252C63.2168 51.994 63.3666 51.9687 63.5247 51.9828L63.7602 52.0145L63.8941 52.0773C64.0101 52.1296 63.9996 52.1152 63.8626 52.0342C64.2628 52.0014 64.4696 52.2978 64.4915 52.6229C64.5042 52.631 64.5165 52.6398 64.5268 52.6525C66.0454 54.5156 67.173 56.6571 68.7845 58.4591L69.2563 58.9871C70.4691 60.3395 71.8537 61.8058 73.5012 62.5075L73.6973 62.5888C74.1766 62.7917 74.6579 63.0696 74.719 63.6488C74.7738 64.1676 74.3658 64.5581 73.8955 64.6792C72.8243 64.9546 71.6033 64.0003 70.8188 63.3742C69.1319 62.0282 67.7142 60.3123 66.5434 58.507L66.4277 58.3272C65.4652 56.8204 64.5606 55.1018 64.2795 53.3133L64.2288 53.3957C64.225 53.4016 64.2221 53.406 64.2202 53.4086C64.1628 53.4868 64.0996 53.5527 64.0263 53.6159C63.8293 53.7863 63.5891 53.8859 63.3395 53.9534C62.871 54.0802 62.3574 54.1052 61.8758 54.0558C60.8976 53.9556 59.9833 53.5824 59.21 52.9745C56.8557 51.1235 56.5777 47.6791 57.5299 44.8848C56.7485 45.0718 55.8585 44.5446 55.2484 44.0929C54.5488 43.5746 53.9718 42.8264 53.834 41.9462C53.6971 41.0728 54.2525 39.9163 55.0764 39.5793C54.2215 38.5504 53.7238 37.0902 53.6724 35.921C53.5832 33.8873 54.6609 31.9651 56.3156 30.8555C54.7595 27.5124 54.4598 23.6339 55.5075 20.0843C57.5866 13.0405 64.5512 9.10154 71.2294 7.37487ZM65.3 60.8925L65.3195 60.8306C65.4852 60.2859 65.6992 59.2023 66.511 59.6149C67.2866 60.0088 66.7915 61.175 66.5202 61.7427C66.1957 62.422 65.6353 62.9666 64.8826 63.1125C64.2703 63.2312 63.598 63.0788 63.1697 62.6045C63.0448 62.4663 62.9744 62.3147 62.9004 62.1474C62.8715 62.0823 62.8586 62.0376 62.8531 62.0086C62.8461 62.0405 62.8261 62.088 62.775 62.1438C62.4332 62.5181 62.1105 62.9539 61.8625 63.3966C61.8038 63.5013 61.6187 63.428 61.6655 63.3134C61.9544 62.6052 61.9058 61.5101 62.5496 60.9979C63.117 60.5463 63.6502 60.9017 63.9503 61.4276L63.9657 61.4549C64.4044 62.2534 65.1035 61.495 65.3 60.8925ZM59.1272 58.3337L59.1864 58.2512C59.7932 57.4199 60.8164 56.4199 61.8403 57.193C62.1659 57.4389 62.1779 57.8493 61.8403 58.0933L61.7125 58.1847C61.2652 58.5026 60.8198 58.8028 60.4913 59.2587C60.1343 59.7544 59.8137 60.2793 59.3337 60.6681C58.4849 61.3556 57.113 61.4913 56.3764 60.5643L56.304 60.4723C56.2424 60.3928 56.1716 60.297 56.1143 60.2014L56.0695 60.2635C56.0652 60.2697 56.0611 60.2757 56.0573 60.2813L56.047 60.297C55.7443 60.782 55.3619 61.1814 54.8855 61.4966C53.9803 62.0953 52.9601 62.1786 51.936 61.8616C51.8357 61.8304 51.8626 61.6958 51.9596 61.6868C53.1732 61.5732 54.3557 60.7089 54.8493 59.5959L54.905 59.471C55.1048 59.0282 55.3286 58.6075 55.8221 58.4337C56.3024 58.2644 56.8067 58.4431 57.1362 58.8074C57.4116 59.1119 57.4825 59.7171 57.9793 59.5837C58.5234 59.4375 58.8297 58.7544 59.1272 58.3337ZM55.6529 50.9394C55.9217 50.7346 56.3427 50.9543 56.4167 51.2511C56.7521 52.5945 55.3593 54.1775 54.0208 54.2192C53.6763 54.2297 53.3448 54.1462 53.0397 53.9863C52.8029 53.8623 52.5228 53.5455 52.2629 53.4931C51.9273 53.4254 51.6299 53.8735 51.3936 54.1035C51.1005 54.3889 50.8104 54.6539 50.482 54.8972C50.3508 54.9945 50.1472 54.8312 50.2026 54.6819L50.3137 54.385C50.7159 53.3283 51.4086 51.7858 52.7048 52.2242C53.34 52.4391 53.818 53.1635 54.4869 52.5899C55.0224 52.1305 55.0723 51.3817 55.6529 50.9394ZM61.3715 45.5308C62.5799 44.1402 65.4206 44.8747 65.9593 46.5665C66.0783 46.9402 65.9541 47.4258 65.663 47.6903C65.2795 48.0387 64.7324 48.1442 64.2668 47.8709C63.8661 47.6359 63.7016 47.2513 63.4071 46.9213C62.9752 46.4378 62.3877 46.1694 61.7823 45.9771C61.6309 46.0569 61.4901 46.1617 61.3638 46.2881C61.2991 46.3528 61.177 46.2641 61.2343 46.1879C61.3122 46.0843 61.4075 45.9868 61.5158 45.8969L61.4637 45.8815C61.3044 45.8371 61.2699 45.648 61.3715 45.5308ZM69.2251 30.1771C69.4959 30.1775 69.8113 30.4324 69.7767 30.7301L69.7663 30.8128C69.6883 31.3795 69.5067 31.7004 68.9408 31.9637C68.4607 32.1868 67.9564 32.31 67.4302 32.3589C67.2311 32.3773 67.0203 32.3784 66.8067 32.3625L66.7617 32.6227C66.6723 33.143 66.5897 33.6636 66.5742 34.1939C66.5452 35.177 66.9111 35.9871 67.3036 36.8649C68.0569 38.5508 68.1416 40.2338 67.3214 41.9174C67.2014 42.1635 66.8618 42.3642 66.5877 42.3393C66.2323 42.307 66.0606 42.2039 65.8539 41.9174C65.6803 41.6768 65.72 41.3366 65.8403 41.085L65.8539 41.0574C66.2672 40.2547 66.3975 39.3479 66.1865 38.4655C65.9881 37.6362 65.5389 36.8909 65.3383 36.0642C65.0114 34.7175 65.3595 33.3817 66.0397 32.2264C65.5263 32.0781 65.0515 31.814 64.7347 31.411L64.736 31.4105C64.6151 31.281 64.6811 31.0104 64.8933 31.0267L65.1334 31.0461C65.82 31.1037 66.452 31.1635 67.1464 30.9716C67.5023 30.8732 67.8096 30.709 68.1151 30.5103L68.1806 30.4672C68.5629 30.2125 68.7748 30.1765 69.2251 30.1771ZM70.8681 20.224C72.5894 20.1259 74.0589 21.2647 74.7733 22.7806C75.5493 24.4264 75.2237 26.3147 74.5388 27.934L74.3442 28.3872C74.0036 29.1724 73.5565 30.1061 72.8589 30.5274C72.0754 31.0007 71.398 30.4519 71.6291 29.5794C71.7668 29.0599 72.1395 28.6592 72.441 28.2303C72.7224 27.8299 72.985 27.4154 73.2152 26.9831C73.6662 26.1352 74.0029 25.1905 73.9993 24.2191C73.9929 22.446 72.8244 20.4141 70.8681 20.4401C70.7284 20.4418 70.7307 20.2317 70.8681 20.224ZM79.5735 17.3633C79.4662 17.2817 79.5621 17.1001 79.6821 17.1767C81.6781 18.4493 83.1685 20.8398 83.4685 23.1883C83.6351 24.4913 83.5079 25.8838 82.9543 27.0863C82.6368 27.7763 82.0919 28.435 81.3301 28.6242C80.6296 28.7979 79.9076 28.3969 79.6902 27.7115C79.606 27.4456 79.751 27.1674 79.97 27.0222C80.6802 26.5515 81.252 25.9575 81.5866 25.1584C81.9346 24.3276 82.0734 23.446 82.0776 22.5498C82.0879 20.4512 81.2524 18.6424 79.5735 17.3633ZM103.956 18.2726C103.864 18.1699 103.98 18.0186 104.102 18.0829C105.545 18.8437 106.462 20.301 106.725 21.8971C106.982 23.4597 106.636 25.5869 105.429 26.717C104.749 27.355 103.529 26.5066 104.095 25.6849C104.494 25.1054 104.925 24.6281 105.154 23.9434C105.358 23.3325 105.43 22.7164 105.419 22.0743C105.394 20.6737 104.895 19.3169 103.956 18.2726ZM86.315 16.3159C88.7804 16.1981 90.2746 19.0196 90.6168 21.1227C90.8281 22.422 90.6693 23.7603 89.9537 24.8872L89.9114 24.9528C89.3209 25.8531 88.2474 26.8897 87.0907 26.4634C86.6011 26.2831 86.4708 25.7573 86.7997 25.3585C87.3029 24.748 88.0808 24.4991 88.554 23.8472C89.0848 23.1161 89.2588 22.2001 89.2281 21.311L89.2239 21.2128C89.1416 19.5774 88.3635 16.4384 86.315 16.4939C86.2001 16.4969 86.2015 16.3212 86.315 16.3159ZM94.0249 15.8471C96.4096 15.5416 97.8618 18.354 98.3097 20.2914C98.5895 21.5026 98.6506 22.8537 98.2928 24.0558L98.2661 24.1415C97.9749 25.0386 97.1156 26.5758 95.9938 26.1173C95.6864 25.9918 95.3727 25.6496 95.5199 25.2807C95.7078 24.8092 95.979 24.6869 96.3405 24.3851C96.6189 24.1528 96.8133 23.8193 96.9564 23.4909C97.3376 22.6155 97.4226 21.5928 97.3705 20.6494L97.3633 20.5378C97.2286 18.6952 96.232 15.9492 94.0249 15.9997C93.9242 16.002 93.9311 15.859 94.0249 15.8471ZM98.3908 13.2031C99.718 12.6964 100.805 13.9686 101.568 14.8766C102.524 16.0143 103.391 17.2398 103.881 18.6561C104.318 19.918 104.395 21.3211 104.001 22.6056C103.807 23.2417 103.503 23.8315 103.089 24.3506L103.037 24.4161C102.606 24.9427 102.19 25.2663 101.484 25.0778C101.197 25.0009 101.075 24.7162 101.125 24.4442C101.231 23.8629 101.53 23.712 101.917 23.3062C102.259 22.9483 102.512 22.5076 102.682 22.0442C103.033 21.0882 103.052 20.0525 102.816 19.0677C102.552 17.9651 102.033 16.947 101.432 15.993L101.303 15.7886C100.666 14.78 99.7586 13.2267 98.4161 13.3903C98.3011 13.4045 98.2996 13.2378 98.3908 13.2031Z" fill="black"/>
<path fill-rule="evenodd" clip-rule="evenodd" d="M88.3086 58.3485C88.3086 58.3485 90.2293 59.832 93.8112 59.832C97.3931 59.832 99.4737 58.5049 99.4737 58.5049C99.4737 58.5049 96.334 56.5969 93.8112 56.4424C91.2884 56.2879 88.3086 58.3485 88.3086 58.3485Z" fill="#FF6C6C"/>
<path fill-rule="evenodd" clip-rule="evenodd" d="M84.0388 54.5771C84.053 53.0829 85.3474 52.8253 86.5769 53.0245C88.6585 53.3613 90.7478 53.5984 92.8576 53.6411L93.2212 53.6475C93.2797 53.5621 93.3776 53.4972 93.5104 53.483C94.68 53.3566 95.8747 53.3771 97.0505 53.3424C98.0764 53.3123 99.1305 53.2096 100.156 53.2901L100.238 53.2973C101.491 53.4188 102.814 54.0588 102.663 55.5305C102.524 56.8933 101.221 58.0998 100.182 58.8571C99.9713 59.0088 99.7563 59.1511 99.535 59.2807C99.4656 59.3693 99.3643 59.431 99.2474 59.4436C98.2233 59.9969 97.0934 60.3243 95.9237 60.4333C93.444 60.6642 90.5613 60.4144 88.1796 59.3393C87.4052 58.9898 86.6829 58.5534 86.0444 58.0175C85.0598 57.1906 84.0278 55.9368 84.0388 54.5771ZM93.944 57.269C92.9499 57.239 91.9575 57.3782 91.0107 57.685C90.3691 57.892 89.7842 58.2903 89.1695 58.5671C91.2414 59.3576 93.6485 59.53 95.7741 59.3861C96.7066 59.3229 97.6107 59.1078 98.4531 58.7379C98.3219 58.6431 98.189 58.5467 98.0499 58.4627C97.6297 58.2082 97.1902 57.9916 96.7319 57.8192C95.839 57.4841 94.897 57.2991 93.944 57.269ZM94.1421 44.4733C93.8739 44.2807 94.0867 43.6428 94.6598 43.7414C99.8651 44.6361 97.168 53.6058 90.5222 48.6836C89.731 48.0451 90.6892 46.6387 91.542 47.1855L91.8448 47.419C92.8292 48.1739 94.4576 49.3151 95.6243 48.0905C96.7256 46.5473 95.1658 45.0958 94.1421 44.4733ZM97.6646 37.6849C98.7711 36.7404 100.159 37.4365 100.974 38.393L101.117 38.5641C101.28 38.7592 101.461 38.9865 101.569 39.2295C102.472 38.4606 103.696 37.9195 104.867 38.2707C106.003 38.6126 106.651 39.6976 106.456 40.8624C106.235 42.187 105.233 43.0773 104.156 43.7657L103.851 43.9596C102.558 44.7846 101.347 45.6156 100.282 46.7496C100.109 46.9339 99.7334 46.9095 99.6196 46.6642L99.5279 46.4667L99.4352 46.2694C98.68 44.6584 97.8708 43.058 97.2064 41.409C96.7143 40.187 96.5545 38.6315 97.6646 37.6849ZM85.2216 38.3454C86.0323 37.4015 87.4055 36.7695 88.4888 37.6849C89.6423 38.66 89.4159 40.2725 88.9021 41.5161C88.2834 43.016 87.5608 44.4829 86.8665 45.9541L86.7182 46.2695C86.6559 46.401 86.5949 46.5326 86.534 46.6641C86.42 46.9096 86.0433 46.934 85.871 46.7495C84.8394 45.651 83.6724 44.8382 82.4258 44.0394L82.0496 43.7999C80.9554 43.1055 79.9211 42.2091 79.696 40.8624C79.5035 39.7002 80.1475 38.6085 81.2848 38.2707C82.4588 37.9223 83.6802 38.4593 84.5845 39.2296C84.6922 38.9804 84.8778 38.7457 85.053 38.5404L85.2216 38.3454ZM86.5351 31.7685C86.9311 32.2828 86.5083 33.1232 85.9301 33.2561C85.2141 33.4209 84.4907 33.3207 83.7877 33.525C83.1435 33.7123 82.5264 34.0876 81.9742 34.4616C81.3445 34.888 80.7646 35.364 80.2317 35.9063C79.9148 36.229 79.5154 36.9933 79.0265 37.0075C78.5406 37.0218 79.1929 35.5014 79.2468 35.3698C79.6301 34.4334 80.1684 33.5717 80.8417 32.8169C82.1704 31.3274 84.9843 29.7557 86.5351 31.7685ZM101.372 31.3567L101.703 31.4488C102.524 31.6771 103.4 31.9575 104.104 32.4497L104.16 32.4889L104.245 32.5512C105.129 33.2105 106.379 34.526 105.753 35.6736C105.71 35.7526 105.618 35.7605 105.544 35.7282C104.712 35.3633 104.094 34.6345 103.208 34.3296L103.045 34.2739C102.187 33.9848 101.125 33.6808 100.202 33.7085C99.5524 33.9196 98.6755 33.7447 98.5064 32.954L98.4988 32.9153L98.4842 32.8333C98.3868 32.293 98.5316 31.6043 99.09 31.3439C99.8551 30.9872 100.601 31.1459 101.372 31.3567Z" fill="black"/>
</g>
<defs>
<clipPath id="clip0_188_2915">
<rect width="153" height="153" fill="white"/>
</clipPath>
</defs>
</svg>
