<svg width="282" height="571" viewBox="0 0 282 571" fill="none" xmlns="http://www.w3.org/2000/svg">
<g clip-path="url(#clip0_140_1969)">
<path fill-rule="evenodd" clip-rule="evenodd" d="M121.954 369.351C121.154 377.417 119.644 385.56 118.432 393.477C118.383 394.86 116.475 395.533 115.553 394.504C115.577 376.506 120.398 358.037 118.69 339.662C120.067 338.895 121.468 338.047 122.805 337.2C124.608 339.573 124.807 342.314 124.511 344.8C124.285 353.008 122.955 361.189 121.954 369.351ZM44.9423 260.089L42.9217 259.888C41.9274 243.376 44.7225 227.152 47.9867 211.195L50.0177 211.314C50.7343 220.511 55.4437 229.221 53.2871 238.685C51.225 246.16 46.8559 252.603 44.9423 260.089ZM275.431 176.924L274.249 177.177C276.452 173.009 274.397 171.638 271.904 168.192L271.632 168.818L270.673 166.725C270.482 166.193 270.288 165.742 269.762 165.543C269.248 162.939 267.718 160.554 265.68 159.258L265.29 159.696C264.483 158.991 263.509 158.723 262.583 158.397C264.572 155.399 265.851 151.51 267.193 148.295C268.285 144.92 269.992 141.644 270.313 138.221C270.055 134.931 266.941 137.068 265.421 138.709C260.781 142.771 256.785 149.204 253.79 157.017C248.647 155.682 245.697 157.091 244.268 164.105C242.953 168.87 241.609 173.758 241.432 178.698C240.741 178.462 239.516 177.572 238.855 178.27C227.425 190.754 213.929 200.371 200.877 210.897C191.014 203.654 185.881 189.325 180.457 178.568C170.993 160.106 161.53 133.076 137.189 133.171C133.963 132.836 130.812 132.451 127.767 131.516C126.588 131.196 125.13 130.811 124.73 130.096C124.009 127.793 123.872 125.301 122.604 123.189C119.124 117.543 111.585 117.099 105.677 118.325C95.6467 120.181 95.8992 119.098 95.1751 129.628C94.9579 132.128 93.0168 132.486 90.9445 133.004C88.5918 133.744 86.195 134.349 83.7768 134.837C84.0279 134.766 84.2787 134.697 84.5297 134.626C45.2732 135.247 19.2082 180.702 14.0373 212.859C8.03143 245.759 15.7995 282.374 28.0803 310.006C27.553 320.069 29.5306 330.178 30.7827 340.096C31.5687 342.578 34.2896 342.819 35.0675 339.945L36.0265 336.162L37.053 339.927C37.7038 342.258 38.7498 342.535 39.691 342.55C40.8585 342.55 41.4985 341.976 41.5368 338.946L43.4706 338.482C44.2157 339.899 44.9556 341.153 46.1264 342.024C48.4807 359.108 49.9586 376.872 55.6732 393.403C57.952 399.538 61.4515 405.108 64.0215 411.127C51.9038 438.428 49.8726 468.682 46.9631 497.913C47.1971 497.932 48.3997 498.037 48.6565 498.059L73.953 503.856C73.7753 503.931 72.0119 507.477 70.2583 507.333C63.0656 506.741 46.5002 501.183 46.2796 501.901C45.6683 501.85 43.1182 501.869 43.2602 502.452C43.5552 505.887 44.5199 508.337 46.3479 510.125C46.3729 510.676 46.4068 511.238 46.4495 511.759C42.823 524.39 40.1655 537.856 38.5507 551.741C36.498 553.712 35.9842 560.197 39.0458 561.927C47.498 567.737 58.8516 570.495 69.5415 569.447C81.1105 568.355 94.9082 563.754 89.3718 550.583C89.3001 550.174 88.7383 550.155 88.2954 550.244C87.3147 549.294 86.2514 548.576 85.1014 548.173C82.8162 542.476 80.761 536.503 78.9682 530.539C78.0949 527.8 77.1917 524.968 77.266 521.964C77.6983 514.588 78.459 511.54 83.5939 505.73C86.7728 507.256 92.8308 496.208 94.2192 493.889C97.1396 487.029 100.862 480.792 103.98 474.062C104.462 472.925 106.146 472.901 106.804 473.886C107.101 474.3 107.175 474.814 107.008 475.294C104.292 483.116 100.594 490.585 97.0267 497.881C98.2422 502.12 98.7221 509.198 101.762 512.352C103.416 523.333 92.1007 528.364 99.3917 540.542C96.9241 540.711 96.694 541.696 96.7371 544.687C96.7289 546.835 96.6728 549.088 97.0786 551.096C97.5706 553.562 99.8513 554.224 103.275 554.951C106.049 555.563 108.72 556.263 111.473 556.924C114.258 557.848 117.191 557.772 118.336 554.962C132.124 559.626 171.872 559.092 185.018 552.911C188.648 551.461 191.209 550.641 187.875 546.558C186.04 534.903 156.075 543.236 151.842 530.453C151.238 528.793 150.366 527.92 148.668 527.618C148.927 526.299 148.581 524.833 147.111 524.454C146.668 524.322 146.196 524.288 145.741 523.872C144.609 521.546 142.754 520.135 140.592 518.898C141.475 517.63 140.762 517.04 140.364 515.621C139.961 512.907 140.888 510.306 140.84 507.669C141.337 506.837 141.721 505.672 142.516 505.095C143.252 504.576 141.77 505.247 141.483 504.674C141.631 504.544 131.69 507.95 126.294 508.56C123.688 508.854 124.374 505.754 124.447 505.697C125.308 504.752 143.404 500.646 142.3 500.54C142.165 500.084 142.003 499.555 141.9 499.103C144.953 489.944 148.555 478.051 149.752 465.449C150.909 445.294 149.823 428.302 155.977 407.818C164.578 375.385 181.287 344.949 181.513 310.628C181.226 304.939 182.806 298.881 181.373 293.298L183.153 292.374C183.409 292.669 183.872 292.661 183.964 292.26C185.132 290.369 183.823 288.102 183.555 286.032C184.165 285.38 183.86 284.784 183.123 284.428C175.219 256.583 161.999 252.515 165.638 217.708C171.576 230.264 184.73 242.975 199.229 241.106C213.836 243.285 247.908 207.775 254.489 196.296C255.695 196.39 255.71 195.527 255.893 194.714C261.903 195.419 267.529 190.711 267.641 184.952C272.915 188.215 278.552 183.554 275.757 177.863C275.647 177.555 275.536 177.242 275.431 176.924Z" fill="#D08B5B"/>
<path fill-rule="evenodd" clip-rule="evenodd" d="M87.285 549.323L88.7068 553.934C89.9826 558.072 88.4577 561.555 84.5562 563.74C72.4331 570.155 56.4375 569.699 43.3805 563.099C42.2748 562.53 41.2054 561.924 40.1754 561.282L39.8676 561.088L39.61 560.924L39.4804 560.84C38.9475 560.489 38.6053 560.171 38.3713 559.722L38.3386 559.657L38.3223 559.624L38.3102 559.588C38.2527 559.42 38.2004 559.251 38.1528 559.079L38.1162 558.944L38.081 558.807C37.8427 557.857 37.7656 556.996 37.7112 555.315L37.6865 554.517L37.6211 552.551L38.7966 554.131C39.2771 554.777 39.9314 555.329 41.0046 556.051L41.4762 556.362L42.395 556.963L42.4213 556.981C44.7396 558.528 47.3289 559.826 50.1854 560.906C60.5257 564.735 72.3024 564.258 81.4655 559.37L81.7359 559.224L82.4578 558.792L82.6823 558.656C84.074 557.805 84.9026 557.169 85.5459 556.378L85.5951 556.317L85.6436 556.255L85.8374 556.005L86.1546 556.017C87.0081 556.049 87.534 555.284 87.5052 554.202L87.5031 554.142L87.285 549.323ZM99.0774 539.794L99.9663 540.358C109.855 546.636 118.876 550.593 128.074 552.205C133.326 553.074 138.877 553.313 145.23 553.046L145.97 553.013L146.581 552.983C150.392 552.789 153.907 552.471 160.376 551.787L162.8 551.529L165.827 551.136L167.115 550.965C172.83 550.201 176.466 549.613 180.248 548.795L180.656 548.706L180.667 548.698C180.77 548.624 180.882 548.555 181.045 548.463L181.186 548.385C181.568 548.173 181.711 548.066 181.784 547.933L181.794 547.914L181.976 547.544L182.538 547.583L182.547 547.578C182.663 547.514 182.781 547.452 182.901 547.39L183.082 547.299L183.266 547.209L183.342 547.172L183.56 547.133L183.795 547.088C184.234 547 184.655 546.898 185.278 546.732L185.775 546.597L185.957 546.548L186.136 546.608C187.588 547.1 187.972 548.47 187.129 549.524L187.092 549.569L187.065 549.6L187.062 549.629C187.011 549.974 186.772 550.23 186.41 550.459L186.357 550.492L186.279 550.538L186.215 550.575L186.192 550.606C186.138 550.674 186.077 550.737 186.009 550.796L185.957 550.838L185.902 550.879L185.877 550.895L185.382 551.214L185.219 551.316C184.852 551.544 184.576 551.686 184.279 551.789L184.212 551.811L184.208 551.815C182.995 552.99 181.126 553.629 178.321 554.161L178.027 554.216L177.881 554.243L177.436 554.322C162.937 556.908 148.056 557.619 133.275 556.442C130.977 556.258 128.692 556.03 126.423 555.758L125.668 555.665L124.77 555.552L123.79 555.434L123.534 555.402L123.281 555.368C121.036 555.06 119.718 554.621 118.538 553.578L118.474 553.52L118.386 553.439C117.905 552.983 116.982 553.298 116.97 553.891L116.97 553.925L116.972 553.963C117.035 554.851 116.488 555.411 115.607 555.571C115.012 555.679 114.253 555.621 113.334 555.438C112.978 555.367 112.606 555.278 112.214 555.174L111.935 555.098L111.553 554.988C111.498 554.971 111.442 554.955 111.386 554.938L110.549 554.687L109.518 554.405C109.125 554.296 108.692 554.175 108.143 554.02L105.206 553.194L104.496 552.998C103.874 552.827 103.348 552.686 102.794 552.543L102.528 552.474L101.884 552.35L101.655 552.303L101.447 552.258C99.268 551.774 98.8981 551.179 98.8527 548.452L98.8495 548.209L98.7334 547.166L98.6629 546.563C98.5825 545.892 98.507 545.326 98.4243 544.784L98.3755 544.473L98.3588 544.37L98.2938 543.985C98.2889 543.956 98.1917 543.513 98.1542 543.323C98.102 543.059 98.0614 542.813 98.0337 542.578C97.9697 542.034 97.9774 541.592 98.0955 541.236C98.2406 540.799 98.5603 540.519 98.975 540.469L99.0232 540.464L99.041 540.463L99.0774 539.794Z" fill="white"/>
<path fill-rule="evenodd" clip-rule="evenodd" d="M132.891 131.598L140.893 132.469L141.37 132.523C144.627 132.895 146.901 133.305 149.091 134.004C151.852 134.886 154.195 136.184 156.209 138.056C166.251 147.316 177.143 165.529 188.973 192.746L189.305 193.513L189.395 193.678L189.524 193.91C190.889 196.341 193.241 199.758 195.867 203.2L196.123 203.536L196.501 204.026L196.741 204.335C197.817 205.715 198.843 206.974 199.688 207.953L199.873 208.166L200.121 208.448L200.281 208.627C200.437 208.8 200.581 208.957 200.713 209.097L200.777 209.165L200.904 209.296L200.923 209.288L201.134 209.456L201.166 209.182L201.932 208.817C208.374 205.744 214.657 201.7 221.117 196.602L221.43 196.354C226.79 192.099 232.04 187.339 238.574 180.954L240.413 179.155L241.303 181.209C244.669 188.977 249.219 193.985 255.056 194.887L255.233 194.913L258.709 195.399L255.882 197.711L255.56 197.976C252.321 200.647 249.631 203.126 244.671 207.928L243.66 208.908L241.436 211.07C239.535 212.914 238.271 214.129 237.039 215.285L236.737 215.567L235.783 216.454L235.193 216.978C229.617 221.926 225.557 225.316 221.378 228.385L220.919 228.72L220.612 228.943C215.103 232.923 209.801 235.986 204.358 238.198L204.049 238.322L203.888 238.38L203.732 238.434C202.956 238.698 202.243 238.862 201.023 239.083L200.899 239.106L199.87 239.287C199.629 239.331 199.43 239.368 199.242 239.405L199.119 239.43L198.847 239.487L198.503 239.49C192.724 239.508 187.421 237.717 182.227 234.302L181.96 234.125C178.277 231.668 174.986 228.71 170.474 224.043L169.98 223.53L169.487 223.015L166.964 220.356L166.925 220.561C165.648 227.235 164.866 234.992 165.252 238.748L165.264 238.861L165.281 239.001L165.305 239.274C165.677 243.309 166.728 247.365 168.432 251.664C169.774 255.05 171.44 258.429 173.794 262.688L173.924 262.921L174.312 263.619L174.33 263.652C178.2 270.981 181.07 278.756 182.832 286.731L182.912 287.099L182.986 287.437L182.906 287.774C182.327 290.23 180.592 292.159 177.899 293.915L177.776 293.994L177.529 294.151C174.082 296.274 170.349 297.594 164.588 299.031C145.466 303.926 127.214 305.568 109.931 303.485C101.303 302.368 92.3979 300.681 82.5927 298.375L82.0847 298.255L80.639 297.911C73.8711 296.284 67.4784 294.59 57.9972 291.944L56.1019 291.414L52.7903 290.484L52.2976 290.335L50.9511 289.938L50.4639 289.792L50.2836 289.737L49.9683 289.639L49.6388 289.534C48.5069 289.168 47.5933 288.816 46.7408 288.4L46.3622 288.213L46.1688 288.001C46.1574 287.988 46.1387 287.972 46.1132 287.956L46.0928 287.943L45.4021 287.533L45.2872 285.927C45.2408 285.294 45.1927 284.664 45.1355 283.941L45.0799 283.243L44.5585 276.868C44.5153 276.327 44.476 275.824 44.4393 275.344L44.3555 274.225L44.286 273.253L44.3047 272.884C44.7529 264.548 47.005 256.151 50.8362 247.965L50.9787 247.662L51.0942 247.442C54.14 241.605 55.3211 236.758 55.0972 231.669L55.0855 231.422C54.8846 227.474 54.0417 223.938 51.6827 216.375L51.5333 215.897L51.2944 215.137L51.282 215.095C50.4811 212.281 49.9668 209.702 49.7701 207.253L49.7514 207.005L49.6661 207.304C45.3321 222.624 43.0684 238.109 43.0864 253.208L43.0877 253.665L43.0915 254.275L43.1068 255.092C43.1982 259.497 43.4295 263.777 43.889 270.226L43.9234 270.708L44.0914 273.012L44.0412 273.718L44.0213 274.012L44.0024 274.31L43.9858 274.599C43.8573 276.973 43.9796 278.55 44.4974 280.004L44.6108 280.313L44.6356 280.842C44.6683 281.484 44.7109 282.093 44.7821 282.941L44.8044 283.203L45.034 285.778L45.0778 286.294C45.2685 288.593 45.3339 290.212 45.2661 291.86L45.261 291.981L45.2456 292.29L45.1973 292.633C44.6349 296.478 43.3373 299.141 40.6558 301.64L40.5767 301.713L40.4418 301.849C37.7336 304.557 34.7427 306.701 31.4707 308.221L31.2658 308.315L31.0643 308.406L29.5245 309.092L28.979 307.502C20.7131 283.408 15.9982 263.267 14.8175 243.983C13.428 221.286 17.1286 200.509 26.7708 181.026L27.0648 180.436L27.3765 179.789C37.9328 158.102 54.764 141.945 74.9857 136.251L75.5995 136.081L76.228 135.915L81.2078 134.627L77.7564 138.429C75.7616 140.626 76.5936 144.279 79.3692 148.381L79.4539 148.505L79.6008 148.718C84.4882 155.936 92.4537 160.97 102.407 163.593C111.311 165.939 121.385 166.202 130.437 164.485L130.711 164.433L131.014 164.379C139.744 162.799 146.15 157.354 146.945 149.862L146.968 149.634L147.004 149.182C147.4 143.743 144.33 138.201 139.444 135.338L139.295 135.252L132.891 131.598Z" fill="#002535"/>
<path fill-rule="evenodd" clip-rule="evenodd" d="M233.723 215.64L233.157 216.143C223.898 224.358 214.077 232.558 202.485 237.201C200.915 237.772 199.278 237.926 197.665 238.266C184.183 238.399 175.028 227.983 166.491 219.002C167.206 203.633 166.614 187.763 160.527 173.401L160.382 173.031C158.893 169.275 157.072 165.55 154.161 162.679C154.089 162.61 153.99 162.714 154.052 162.788C156.536 165.824 157.983 169.533 159.022 173.274L159.075 173.464C162.617 186.134 163.233 199.429 162.767 212.515L162.753 212.912C162.435 221.754 161.669 230.644 162.736 239.468C163.515 248.575 167.555 256.81 171.955 264.676C175.79 271.941 178.657 279.707 180.395 287.733C179.836 290.102 177.811 291.838 175.707 293.157C171.903 295.5 167.496 296.782 163.192 297.856C145.58 302.365 127.236 304.458 109.117 302.275C89.7849 299.772 70.918 294.592 52.1963 289.318C50.271 288.729 48.1342 288.196 46.2951 287.279C46.172 287.144 46.0262 287.03 45.8682 286.936C45.5502 282.456 45.129 278.016 44.8152 273.547C45.2391 264.891 47.6502 256.473 51.3445 248.656C58.0957 235.84 55.8657 228.046 51.7503 214.988C50.8047 211.665 50.1294 208.188 50.2135 204.763C50.6446 202.605 51.0612 200.446 51.4451 198.28C51.6052 197.865 51.7796 197.454 51.9746 197.045C52.0116 196.967 51.9069 196.906 51.8576 196.977C51.7714 197.1 51.6893 197.225 51.6072 197.352C51.8925 195.699 52.1573 194.045 52.3893 192.386C52.42 192.168 52.1368 192.082 52.0547 192.294C44.6572 212.137 40.3627 233.407 40.5395 254.611C40.6444 260.854 41.0754 267.095 41.5352 273.324L41.4924 273.925C41.3294 276.282 41.2437 278.684 42.0709 280.93C42.247 284.782 42.9026 288.589 42.699 292.453C42.2216 295.981 41.1542 298.477 38.4971 300.917C35.8657 303.582 32.854 305.787 29.4229 307.316C15.1584 265.737 6.80108 222.546 27.429 181.432C37.0029 161.414 53.4837 143.43 75.602 137.71C72.4497 141.182 74.907 146.375 77.1733 149.686L77.3118 149.886C88.1661 165.916 112.068 169.735 129.993 166.248C138.677 164.763 146.819 159.16 147.512 149.79C148.05 143.514 144.466 137.323 139.047 134.232L139.707 134.303C144.981 134.888 150.102 135.731 154.15 139.491C169.07 153.25 175.991 172.844 184.804 190.583L185.154 191.229C188.929 198.205 192.576 205.74 198.848 210.799L197.675 211.795C197.528 211.922 197.686 212.209 197.873 212.133C198.476 211.889 199.075 211.634 199.673 211.374C200.515 212.047 201.483 211.366 201.584 210.511C215.765 203.745 227.751 193.013 238.877 182.127C241.686 188.611 246.423 195.683 254.007 196.742C246.847 202.597 240.511 209.366 233.723 215.64ZM119.733 339.959C120.654 339.437 121.562 338.895 122.459 338.333C123.939 340.693 123.563 342.768 123.403 345.374C123.065 349.724 123.14 354.148 122.256 358.429C120.723 369.351 119.815 380.765 117.538 391.41C117.488 392.005 117.435 392.599 117.388 393.195C117.327 393.978 116.095 393.982 116.157 393.195C117.656 375.525 120.839 357.751 119.733 339.959ZM128.08 552.818C139.634 554.73 151.428 553.375 162.987 552.146L164.683 551.926C170.154 551.218 175.657 550.473 181.031 549.284C181.484 548.91 182.181 548.745 182.453 548.193L182.785 548.216C183.065 548.057 183.351 547.909 183.641 547.769C184.485 547.619 185.173 547.436 186.045 547.197C187.228 547.598 187.351 548.635 186.548 549.369C186.628 549.744 186.179 549.958 185.885 550.124C185.838 550.218 185.765 550.308 185.655 550.384C185.128 550.716 184.596 551.113 183.993 551.277C182.518 552.805 179.351 553.386 177.607 553.696L177.435 553.726C162.939 556.312 148.11 557.007 133.431 555.839C130.901 555.636 128.372 555.379 125.852 555.065L125.166 554.978C122.99 554.698 120.59 554.589 118.917 553.003C118.085 552.213 116.415 552.711 116.462 553.966L116.465 554.015C116.611 556.076 111.776 554.371 110.819 554.104L110.791 554.097C108.115 553.373 105.455 552.573 102.77 551.884L102.111 551.756C99.7791 551.295 99.5977 551.061 99.5719 548.18L99.4851 547.397C99.368 546.353 99.2422 545.313 99.073 544.276L99.0074 543.888C98.9315 543.452 98.1884 540.757 99.4261 541.115C99.5821 541.16 99.734 541.035 99.7422 540.884C108.439 546.405 117.85 551.025 128.08 552.818ZM82.1451 559.768L82.8832 559.327C84.1195 558.582 85.3612 557.772 86.238 556.639C87.6844 556.694 88.2797 555.335 88.2249 554.124C89.4392 558.062 87.9332 561.214 84.374 563.208C71.9753 569.769 56.1123 568.802 43.7699 562.564C42.5856 561.954 41.4279 561.293 40.3051 560.58L40.0525 560.419C39.6317 560.15 39.2238 559.862 38.9997 559.4C38.4597 557.821 38.467 556.265 38.4085 554.506C39.3437 555.763 40.8957 556.634 42.1853 557.5C44.6464 559.142 47.3127 560.445 50.0775 561.49C60.3156 565.282 72.4762 565.05 82.1451 559.768ZM44.6487 236.382C45.6375 227.825 47.3319 219.387 48.9736 210.939C49.6408 220.018 54.3682 228.86 52.2659 238.045C50.2111 245.438 45.8076 251.997 43.9262 259.456C43.5605 251.753 43.7854 244.046 44.6487 236.382ZM56.8318 310.627C55.7193 310.829 54.576 310.825 53.451 310.746C48.892 310.195 48.1709 312.948 48.1865 316.797C48.0478 319.285 47.895 321.773 47.7648 324.262L47.6896 325.756C47.5952 327.745 47.3446 329.97 47.5952 332.05C46.7692 333.939 46.3226 335.908 46.1912 337.972C45.8115 337.87 45.4051 337.919 45.1136 338.117C43.4408 335.144 43.0405 331.514 42.6957 328.167C42.5274 326.52 40.1012 326.445 40.0642 328.167C40.017 330.508 39.9821 332.852 39.9411 335.193L39.8775 338.807L39.8776 338.86C39.8879 339.375 40.1211 340.675 39.4867 340.625L39.4505 340.62C38.2699 340.532 38.2155 336.343 37.9601 335.298L36.9751 328.289C36.7537 326.721 34.4931 327.233 34.3377 328.601L34.3334 328.645C34.0569 331.848 33.7766 335.051 33.5391 338.257C33.4641 338.811 33.4541 339.814 32.8473 340.056C32.3114 339.576 32.2098 338.768 32.0959 338.097C31.0868 328.849 29.1921 319.72 28.0238 310.494C28.7812 310.386 29.4749 309.915 29.6966 309.192C35.7752 307.953 42.1542 304.54 45.208 298.995C45.8177 299.531 46.2939 300.232 46.885 300.782C47.8189 301.656 48.8452 302.443 49.8264 303.259C52.5764 305.581 55.3367 307.773 58.0306 310.167C57.6365 310.296 57.2773 310.547 56.8318 310.627ZM122.966 121.318C122.997 121.197 123.165 121.232 123.173 121.346C123.342 123.678 123.902 126.138 124.756 128.424C125.062 128.473 125.355 128.645 125.569 128.978C125.856 129.426 127.231 129.739 127.948 129.949L128.05 129.98C131.028 130.897 134.135 131.267 137.223 131.594C151.747 132.395 157.033 136.935 165.227 148.406C174.953 161.328 180.41 176.664 187.742 190.926C189.546 194.395 191.494 197.781 193.635 201.055L193.839 201.366C195.751 204.268 197.867 207.209 200.788 209.168C207.857 203.256 215.416 197.979 222.409 191.976L223.063 191.411C228.309 186.888 233.319 182.094 238.088 177.072C238.65 176.479 239.705 176.323 240.485 176.671C240.79 172.15 242.07 167.716 243.25 163.348C244.489 157.722 246.642 153.919 253.135 155.311C255.749 148.747 259.249 142.341 264.548 137.548L264.888 137.243C266.016 136.221 267.497 134.756 269.082 134.888C270.52 135.007 271.259 136.305 271.317 137.626C271.383 139.193 270.698 140.789 270.207 142.257L270.165 142.383C269.533 144.311 268.852 146.224 268.131 148.121C267.437 149.947 266.694 151.755 265.916 153.546C265.124 155.045 264.54 157.526 263.096 158.432C262.351 158.874 261.583 158.279 261.503 157.52C261.391 156.524 261.965 155.649 262.388 154.782C262.778 153.984 263.16 153.182 263.531 152.377C265.024 149.133 266.364 145.822 267.515 142.444C267.857 141.307 269.257 138.352 268.772 137.33C268.285 137.334 267.284 138.358 266.93 138.663C261.364 143.262 257.746 149.616 253.607 155.413C256.204 156.154 259.024 156.501 261.181 158.24C265.618 162.101 262.055 169.747 256.107 168.323C257.767 171.842 259.195 177.525 256.253 180.704C255.368 181.53 253.65 181.266 253.381 179.949C253.094 178.55 253.439 177.352 253.755 175.996C254.328 173.236 254.675 170.409 254.284 167.599L254.162 167.527C253.153 166.916 252.519 166.231 252.55 164.97C252.419 164.058 253.394 162.829 254.373 163.575C254.691 163.816 255.079 163.835 255.413 164.078C255.981 164.616 256.686 165.04 257.49 165.033L257.569 165.031C258.603 165.023 259.367 164.401 259.683 163.436C260.549 160.788 257.55 159.898 255.6 159.389L255.096 159.234C249.774 157.612 247.845 157.585 246.507 163.822C245.059 168.476 243.782 173.267 241.333 177.52L241.637 178.246C244.1 184.095 247.191 190.828 253.812 192.622C254.047 190.668 256.166 190.597 257.7 190.646C259.68 190.54 261.667 189.538 263.065 188.098C264.287 186.871 264.902 185.162 266.253 184.068C265.641 182.681 267.023 181.151 268.466 181.949C269.439 182.485 270.026 183.25 271.2 183.405C272.24 183.544 273.199 183.182 273.989 182.517C276.052 180.779 275.071 178.225 275.576 175.949C274.911 177.096 273.807 177.976 272.624 178.583C264.73 183.086 264.809 174.257 269.172 175.708C273.911 174.632 273.831 172.925 272.06 168.914L272.028 168.82C271.74 167.978 271.097 166.49 271.695 165.583C271.727 165.538 271.787 165.524 271.83 165.565C272.372 166.096 272.585 166.988 273.043 167.614L273.588 168.263C275.245 170.254 276.979 172.619 275.902 175.276C276.017 175.252 276.142 175.301 276.181 175.44C276.691 177.286 277.702 179.1 277.493 181.076C277.055 185.405 272.349 187.782 268.451 185.978C267.702 191.543 262.198 195.549 256.682 195.301C256.507 196.063 255.941 196.734 255.064 196.804C246.946 209.771 215.035 243.132 199.386 241.738C197.89 242.415 195.985 242.075 194.4 241.871C182.246 240.29 172.089 231.427 166.423 220.922C164.341 255.333 176.11 254.915 183.985 283.422C184.774 283.915 185.233 284.991 184.622 285.901C184.96 287.626 185.652 289.393 185.385 291.163C185.254 291.668 184.989 292.128 184.749 292.59C184.255 293.533 182.952 293.42 182.341 292.686C183.376 296.419 182.935 300.338 182.67 304.144C182.508 306.38 182.52 308.584 182.518 310.821C182.209 344.878 165.524 375.586 156.947 407.896C154.521 416.953 152.657 426.182 151.924 435.538C151.146 445.491 151.688 455.499 150.752 465.439C149.667 476.952 146.583 488.142 142.945 499.086C143.163 499.973 143.615 500.981 143.336 501.745C138.139 502.619 133.124 504.207 128.077 505.681C127.879 505.738 127.756 505.86 127.694 506.006L126.54 506.388C125.792 506.636 126.113 507.822 126.867 507.571L128.128 507.154C132.441 505.731 136.804 504.371 141.29 503.733L141.428 503.677C142.325 503.32 143.38 503.057 143.852 504.042C144.092 504.541 143.902 505.044 143.56 505.439C143.27 505.773 142.902 505.979 142.649 506.357C142.366 506.855 142.126 507.379 141.845 507.884C141.848 510.384 141.023 512.859 141.343 515.353C141.584 516.388 142.425 517.38 141.891 518.488L142.134 518.642C143.549 519.549 144.902 520.543 145.832 521.944C146.035 522.251 146.189 522.882 146.421 523.099C146.663 523.324 147.115 523.351 147.412 523.457C148.92 523.914 149.868 525.271 149.738 526.846C153.267 527.858 152.052 531.432 155.695 533.919C159.434 536.621 164.498 536.917 168.915 537.619L176.442 538.815L176.88 538.868C181.644 539.454 187.858 540.557 188.816 546.106L188.893 546.195C190.044 547.565 191.151 550.167 189.73 551.655C188.575 552.677 186.997 553.157 185.598 553.753C183.658 555.15 180.862 555.801 178.733 556.195C160.33 559.592 141.372 559.986 122.845 557.35L122.535 557.305C121.24 557.112 119.903 556.85 118.721 556.297C117.068 559.071 113.885 558.722 111.205 557.935C109.101 557.416 106.997 556.905 104.893 556.394L104.696 556.342C101.446 555.51 96.8376 555.258 96.0505 551.306C95.6441 549.271 95.6708 547.007 95.6913 544.94L95.6867 544.261C95.684 542.519 95.8215 540.158 97.7993 539.79C95.0517 534.715 95.6505 528.476 98.2096 523.445L98.3453 523.198C100.229 519.755 101.405 516.88 100.78 512.813C99.5256 511.635 98.9406 509.944 98.4767 508.281C97.5021 504.782 96.6509 501.245 95.9305 497.684L97.0482 495.395C100.326 488.679 103.568 481.934 106.016 474.868C106.242 474.22 105.184 473.761 104.891 474.395C101.794 481.096 98.0075 487.462 95.1244 494.263C93.2128 497.82 90.9178 501.164 88.3449 504.277L88.2311 504.436C87.2322 505.801 86.3956 506.255 84.7551 506.817C84.4924 506.928 84.2256 506.93 83.9752 506.858C82.4096 508.974 80.5096 510.649 79.6873 513.175C78.7903 515.968 78.4475 519.04 78.2708 521.96C78.1766 525.765 79.7663 529.357 80.7649 532.971C82.2916 537.838 83.9922 542.652 85.8732 547.396C86.8777 547.801 87.7895 548.424 88.6304 549.192C89.3314 549.124 90.0699 549.442 90.332 550.293L90.4408 550.649C91.3671 553.713 92.153 557.251 90.9501 560.32C87.6253 567.755 76.9405 569.609 69.6317 570.5C58.8084 571.524 47.4549 568.946 38.4447 562.796C37.1721 561.907 36.3038 560.895 36.0924 559.318L36.0702 559.121C35.7793 556.484 35.7118 553.355 37.5477 551.312C39.1171 537.937 41.688 524.568 45.3906 511.613C45.3619 511.247 45.3393 510.881 45.3208 510.512C43.2541 508.367 42.4452 505.346 42.2132 502.445C42.1863 501.226 43.4232 500.972 44.3824 500.823L44.7358 500.82C47.8613 500.798 51.0869 500.951 53.8758 502.114L53.7385 502.119C53.5974 502.126 53.45 502.143 53.343 502.216C54.7404 502.663 56.2644 502.861 57.6002 503.448C58.5896 503.496 59.4523 503.965 60.4544 504.049L60.6138 504.06C60.792 504.075 60.9275 504.023 61.025 503.934C63.7169 504.413 66.3933 505.057 69.081 505.451C69.8562 505.565 70.1908 504.383 69.4084 504.268C65.8128 503.741 62.2337 502.774 58.6132 502.326C57.8127 502.016 57.0391 501.619 56.2365 501.299C56.1897 501.193 56.1018 501.098 55.9592 501.032C55.0788 500.619 54.1644 500.281 53.2292 499.997C50.8316 499.256 48.3131 498.944 45.8163 498.797L45.9933 497.017C48.866 467.919 50.9622 438.042 62.8807 410.945C60.3484 405.111 56.9044 399.554 54.6888 393.552C53.7693 391.154 53.211 388.708 52.4823 386.26C52.0086 385.087 51.6171 383.9 51.4273 382.642C48.5093 369.329 46.8597 355.786 45.1379 342.281C43.9791 341.326 43.2134 339.949 42.5416 338.682L42.5386 338.874C42.4989 340.959 42.2037 343.361 39.5715 343.299C37.4471 343.248 36.5171 341.667 36.0411 339.919C35.1158 343.575 31.0042 343.775 29.7992 340.175C29.2614 338.723 29.284 337.066 29.1239 335.543C28.2649 327.181 26.4721 318.826 26.9871 310.406C26.4452 310.222 25.9731 309.809 25.7431 309.12C15.4799 278.111 6.34631 244.927 13.0088 212.206C19.6707 180.148 37.7125 144.261 71.8074 135.17C78.7099 133.431 85.7217 132.84 92.7972 132.391C93.8181 130.421 94.478 128.18 94.6117 125.95C94.6527 125.305 94.6219 124.668 94.6199 124.023C94.6178 123.428 94.8723 122.718 94.7533 122.162C94.7246 122.027 94.9093 121.982 94.9585 122.107C95.1084 122.498 95.4142 122.694 95.6215 123.023C96.1371 123.954 96.2736 125.059 96.4097 126.099C96.9213 130.159 95.7577 134.336 93.2952 137.596L93.2097 137.708C92.4462 138.727 90.993 140.571 89.4905 139.688C88.1812 138.916 89.0197 137.344 89.8007 136.503L89.8599 136.44C90.917 135.344 91.8037 134.172 92.5242 132.894C89.323 133.745 86.1468 134.682 82.955 135.569L82.8036 135.652C80.3042 137.01 76.5901 138.463 76.9182 141.829C83.5644 161.834 112.969 166.975 131.142 162.199L131.431 162.12C134.908 161.164 138.39 159.627 140.756 156.825L140.854 156.708C145.055 151.747 144.733 143.552 139.473 139.479C136.349 136.927 132.032 135.571 128.135 134.688C129.268 136.565 131.775 137.891 132.231 140.115C132.348 140.878 131.926 141.604 131.082 141.62C128.939 141.661 127.359 139.379 126.234 137.845C123.886 134.637 122.555 130.758 122.27 126.806C122.129 124.884 122.484 123.152 122.966 121.318ZM264.754 157.409C264.64 157.331 264.703 157.101 264.857 157.164C270.682 159.572 273.06 168.196 268.674 172.945C267.219 174.476 265.037 175.362 263.05 174.558C260.608 174.146 259.182 171.687 258.869 169.421C258.848 169.315 258.967 169.267 259.034 169.334L259.046 169.348C259.968 170.482 261.423 171.241 262.749 171.822C263.12 171.621 263.527 171.462 263.935 171.368C264.516 171.237 265.111 171.691 265.056 172.282C267.798 171.782 268.897 168.527 268.98 166.058L268.982 165.983C269.093 162.567 267.543 159.407 264.754 157.409Z" fill="black"/>
<path fill-rule="evenodd" clip-rule="evenodd" d="M146.344 78.6569C145.857 72.3698 146.611 65.7801 144.183 59.8043C139.95 49.8892 128.079 46.5833 118.876 42.8085C115.189 41.7209 102.783 41.5689 98.4664 40.1293C88.6961 36.8713 86.3618 32.9894 78.5984 39.1928C77.288 40.2525 76.468 41.4043 75.87 42.9779L75.8945 42.9846C75.7237 43.6406 75.9068 44.2952 76.2917 44.7952C72.9256 48.2304 71.517 53.3804 73.2441 57.9532C78.8803 69.8527 78.6152 76.2868 76.7993 89.0793C74.4278 101.022 79.8469 105.384 88.8215 111.883C88.4561 112.59 88.3803 113.53 88.8567 114.154C99.2346 128.714 118.802 135.666 135.568 128.276C142.373 125.252 145.411 118.016 147.145 111.487C149.165 104.176 149.786 96.4729 148.141 89.0259C147.478 85.5818 146.614 82.1626 146.344 78.6569Z" fill="#D08B5B"/>
<path fill-rule="evenodd" clip-rule="evenodd" d="M72.0117 60.8219L78.1825 64.9261L100.271 41.6774L92.9202 35.9014C92.9202 35.9014 79.5847 45.7414 76.9626 48.3384C74.3406 50.9355 72.0117 60.8219 72.0117 60.8219Z" fill="#9FD8E5"/>
<path fill-rule="evenodd" clip-rule="evenodd" d="M86.4807 9.00187C87.7404 8.81301 88.6917 9.59332 89.1442 10.6931L89.168 10.7524C89.3134 11.1266 89.4752 11.4906 89.6493 11.8485C92.8016 10.3045 97.2996 10.7012 99.2946 13.828C100.718 16.0611 99.8497 18.7114 99.313 21.0795L98.9607 22.6398C99.6417 23.0724 100.155 23.8473 100.131 24.6496L100.128 24.7113L99.9848 26.8872C100.44 26.4271 100.855 25.926 101.226 25.3923C101.482 24.924 101.759 24.4639 102.056 24.0181C103.803 21.3944 107.725 23.6745 106.283 26.4843C106.007 27.0262 105.695 27.5395 105.362 28.0344C104.985 28.7645 104.675 29.515 104.438 30.2859C105.12 30.5824 105.644 31.2409 105.699 32.2348C105.829 34.5558 104.608 36.4924 102.666 37.7092C102.095 38.067 101.505 38.1366 100.97 38.0036C100.876 38.1304 100.782 38.2572 100.691 38.3861C101.466 39.0139 102.164 39.7296 102.764 40.5231C104.571 40.2531 106.388 40.1263 108.204 40.1222C110.425 39.0364 113.083 39.0589 115.47 39.4658C117.006 39.7276 118.481 40.2368 119.992 40.6028C121.586 40.9873 123.204 41.0016 124.816 41.2633C126.848 41.5926 128.63 42.5292 129.75 44.024C130.981 44.0609 132.276 44.5639 133.349 45.2469C135.848 46.8379 138.332 48.4514 140.825 50.0526C141.782 50.6673 142.139 51.6487 141.964 52.7433L141.952 52.8133L141.868 53.2673L142.065 53.5467C142.828 54.6223 143.658 55.7488 144.151 56.936C145.065 58.2509 145.89 59.6292 146.622 61.0505C147.607 62.9605 148.42 64.985 148.971 67.0627C149.108 67.5882 149.245 68.1179 149.336 68.6537C149.465 69.4103 149.266 69.9972 149.157 70.7232C149.022 71.6434 148.973 72.5759 148.83 73.4982C148.733 74.1097 148.213 74.4103 147.668 74.4266C147.873 75.9828 148.021 77.5493 148.162 79.1035C148.361 81.3243 148.496 83.5513 148.613 85.7783C149.215 86.6515 150.446 87.3427 151.335 87.5819C152.566 87.9112 153.856 87.5533 155.019 87.1341C155.751 86.8703 156.351 87.7885 155.994 88.402C154.874 90.3283 152.478 90.3201 150.663 89.4674C149.895 89.1075 149.221 88.586 148.721 87.9071C148.752 88.5533 148.785 89.1995 148.817 89.8478L148.848 90.4349C149.217 97.2921 150.014 104.385 148.723 111.175C146.488 122.935 136.74 131.89 124.832 132.586C118.583 132.951 113.38 131.108 110.792 130.08C108.205 129.052 109.21 126.956 111.007 127.555C114.101 128.587 119.786 130.125 124.873 129.461C136.864 127.896 147.031 121.913 145.987 96.1422C145.839 92.4877 145.382 88.8314 145.284 85.177C145.19 81.6045 145.225 78.0299 145.067 74.4593L145.014 73.2411C144.953 71.8177 144.887 70.3876 144.78 68.9625C144.651 68.4103 144.545 67.85 144.387 67.3081C143.959 65.8337 143.4 64.4001 142.705 63.032C142.552 63.1486 142.38 63.2325 142.193 63.2652C140.778 63.5188 139.451 63.4472 138.125 62.8582C137.507 62.5862 136.962 62.2243 136.454 61.7764C136.212 61.5658 136.051 61.3613 135.924 61.1486C135.282 61.1589 134.641 60.9666 134.24 60.5065C133.782 59.9821 133.706 59.4404 133.885 58.9389L133.904 58.8889L133.859 58.8726C133.318 60.2693 132.241 61.4983 131.059 62.3286C129.191 63.6455 126.854 64.0259 124.613 64.0607C122.139 64.0975 119.529 63.7171 117.088 63.3286C116.443 63.2263 115.801 63.1098 115.173 62.9523C115.148 62.9768 115.124 63.0055 115.097 63.03C113.002 65.032 110.054 65.5474 107.395 64.4042C105.859 63.7437 104.571 62.6803 103.432 61.4615C103.416 62.0995 103.383 62.7376 103.328 63.3695L103.305 63.6204C103.191 64.7973 102.973 66.0457 102.082 66.895C100.642 68.2713 98.5531 67.7191 96.892 66.8234C96.894 66.8664 96.894 66.9114 96.894 66.9563C97.3426 68.4778 97.7932 70.0013 98.2438 71.5248L98.3409 71.8493C98.6686 72.9311 99.0279 74.0143 99.1266 75.1465C99.3151 77.31 97.8731 79.447 95.4643 78.7211C94.2009 78.3416 93.1887 77.281 92.2174 76.4315L91.6054 75.9031C93.1887 81.0707 94.2866 86.4224 94.389 91.815C94.3951 92.1074 94.1432 92.3283 93.8647 92.3385C93.2133 92.3651 92.5128 92.2363 91.8574 91.9766C91.8205 91.9745 91.7836 91.9725 91.7447 91.9663C90.6264 91.8048 89.5879 91.4019 88.6723 90.8068C88.8833 91.4756 88.9775 92.1933 88.9222 92.9438C88.9079 93.1258 88.6232 93.1892 88.5822 92.9888C88.0537 90.3938 85.0121 88.4326 82.3903 88.9296C79.576 89.4633 77.5032 91.8805 76.9952 94.6309C76.4504 97.5859 77.4929 101.003 79.4244 103.283C80.3134 104.334 81.4829 105.212 82.8717 105.432C83.5066 105.533 84.1662 105.498 84.7827 105.318C85.0449 105.24 85.2906 105.132 85.5405 105.03C85.9051 104.882 86.3312 104.86 86.6753 104.704C87.4557 104.355 88.2401 105.073 87.8448 105.872C87.5007 106.569 87.1914 107.04 86.62 107.4C87.0829 107.964 87.5028 108.749 87.6584 108.96C88.4532 110.032 89.2602 111.044 90.1655 112.023C91.0872 113.017 92.0929 113.925 93.156 114.766L93.6028 115.118C94.6267 115.929 95.5184 116.68 96.2406 117.843C96.81 118.762 96.0727 120.007 95.0055 119.993C91.6669 119.946 89.2397 117.017 87.511 114.459C87.2652 114.093 87.0337 113.706 86.8186 113.31C86.7408 113.434 86.6548 113.551 86.5585 113.657L86.749 114.169C87.3143 115.674 84.8789 116.657 84.1723 115.252C83.6582 114.234 83.0621 113.265 82.3985 112.349C82.0073 112.293 81.6243 112.056 81.4112 111.749C80.8726 110.97 80.2683 110.183 79.7583 109.353C79.4756 109.085 79.1848 108.827 78.8878 108.576C78.8018 108.651 78.7137 108.727 78.6297 108.807C78.2569 109.655 77.7961 110.43 77.2246 111.16L77.1021 111.316C76.0073 112.694 74.5813 114.104 72.8168 114.441C72.2781 114.543 71.7599 113.874 72.2371 113.447C73.4722 112.338 74.9326 111.584 76.0714 110.347C76.6325 109.737 77.1477 109.066 77.5907 108.362L77.6916 108.199C77.7654 108.079 77.8411 107.958 77.919 107.835C77.4049 107.486 76.8907 107.134 76.3766 106.782C74.9614 107.989 73.1183 108.542 71.5529 109.542L71.3973 109.643C69.982 110.588 68.4908 108.498 69.6256 107.351C70.8764 106.091 71.9207 104.588 73.0288 103.188C72.5077 102.23 72.2611 101.097 72.1687 99.9513C72.1322 99.6272 72.1038 99.3029 72.0753 98.9785C71.2806 98.9908 70.4817 98.7188 69.8058 98.2505L69.5498 98.0685C68.7284 98.3303 67.8661 98.4571 67.0407 98.4346C65.0989 98.3773 64.3042 96.1626 65.5188 94.7618C66.758 93.3303 68.9271 93.0175 70.6456 93.7127C70.7009 93.6841 70.7583 93.6534 70.8136 93.6228C70.7316 93.2465 70.7499 92.9052 70.8431 92.6054L70.816 92.4226C70.4381 91.8436 70.1897 91.1827 70.0954 90.4844C70.0209 89.9312 70.036 89.3829 70.1643 88.8367C70.2069 88.6549 70.2956 88.4666 70.3634 88.277C70.2237 87.9249 70.1415 87.5609 70.1161 87.1948C70.077 87.1484 70.0381 87.1007 70.0012 87.0492C69.1485 85.8539 69.3208 84.4137 70.1323 83.4464C70.136 83.3848 70.1417 83.3233 70.1501 83.2621C70.1026 83.1554 70.059 83.0476 70.0193 82.9386C69.2264 82.1401 68.6443 81.1791 68.7528 79.9883C68.8165 79.2877 69.1049 78.6571 69.5414 78.1857C69.464 77.9571 69.4566 77.6922 69.5504 77.4712C68.8538 75.6213 68.9419 73.3933 69.4433 71.3244C69.3327 71.0095 69.2753 70.668 69.2876 70.306C69.345 68.7702 70.6763 67.3592 72.2535 67.3776C72.4434 67.3792 72.6212 67.404 72.792 67.4402L72.7942 67.4036C72.8547 66.9426 72.9816 66.5167 73.167 66.1345C73.0759 66.1016 72.9915 66.0543 72.9175 65.9915C71.9069 66.5298 70.8375 66.9412 69.7163 67.2216C68.8919 67.4277 68.0474 66.4921 68.5599 65.7195C68.7977 65.3611 69.0601 65.0392 69.3427 64.7451C68.9408 64.7474 68.5328 64.7746 68.1201 64.8275C67.3786 64.9236 66.5511 64.4185 66.0698 63.7355C65.4717 64.3163 64.8716 64.895 64.2714 65.4737C62.7516 66.9441 60.4555 65.8623 60.2159 63.9237C59.7632 63.803 59.3413 63.5985 58.9705 63.3061C56.5741 64.3449 53.9953 64.9155 51.3592 65.0239C49.4666 65.1016 48.3606 62.9012 49.2454 61.347C49.8394 60.3041 50.5768 59.3675 51.4268 58.5536C50.1077 58.9564 48.7456 59.2468 47.3549 59.4329C46.6032 59.5331 45.5401 58.9114 45.239 58.2223C44.0879 55.572 44.1862 52.8092 45.5114 50.2305C45.5627 50.1283 45.62 50.0301 45.6753 49.932C45.8125 49.5905 45.9621 49.253 46.1239 48.9217C44.4935 47.2244 44.3521 44.7009 45.2308 42.5885C44.8785 42.0179 44.7433 41.3308 44.983 40.7091C45.6651 38.9198 46.6482 37.2675 47.8895 35.8482C47.7707 35.6192 47.6662 35.3759 47.5781 35.1141C46.8797 32.9976 47.6887 30.4434 49.3212 28.969C50.3474 28.0405 51.5272 27.4843 52.7869 27.1285C53.3174 26.1919 53.9994 25.3473 54.7941 24.6357C54.8249 24.5682 54.8556 24.5007 54.8904 24.4332C56.1276 22.106 58.3806 20.8586 60.7955 20.5703C60.8898 19.6603 61.5042 18.7911 62.3973 18.5089C62.6431 17.7216 63.0097 16.9691 63.5136 16.2861C64.3063 15.2104 65.6233 14.7032 66.8645 15.4088C67.5445 15.7953 68.1959 16.239 68.8063 16.7298C69.0804 16.6015 69.3912 16.5184 69.7419 16.4919L69.8304 16.4865L71.85 16.3842C72.6959 16.01 73.5398 15.6173 74.3857 15.2349C74.8937 14.8157 75.4611 14.466 76.0796 14.2063C76.7801 13.9139 77.497 13.7482 78.216 13.693C78.7997 13.5028 79.3876 13.3352 79.9857 13.2043C81.3908 12.8975 82.8614 12.7258 84.3198 12.7401C84.3496 12.3632 84.3644 11.9818 84.3616 11.596L84.3587 11.4027C84.3259 10.1655 85.3152 9.17773 86.4807 9.00187ZM85.0657 107.989C84.865 108.032 84.6622 108.067 84.4594 108.091C84.5209 108.243 84.5823 108.394 84.6417 108.545C84.8056 108.637 84.9715 108.725 85.1374 108.807C85.0882 108.529 85.0595 108.249 85.0657 107.989ZM74.5424 104.867L74.4062 105.117C74.3842 105.158 74.3624 105.198 74.3411 105.238C74.6299 105.216 74.9207 105.222 75.2075 105.255L75.2067 105.224C75.1698 105.212 75.1329 105.2 75.0977 105.183C74.8998 105.088 74.7159 104.982 74.5424 104.867ZM80.2295 93.445C82.0417 93.5504 83.577 93.8278 85.225 94.6192L85.3666 94.6883C86.8229 95.4102 89.2316 96.7435 89.0288 98.6556C88.9715 99.1995 88.5762 99.7721 87.9535 99.7292C86.2473 99.6126 85.2723 97.8948 84.1171 96.8233C82.9517 95.7435 81.5199 94.6331 80.1087 93.8908C79.9092 93.7863 79.9878 93.4555 80.2049 93.4448L80.2295 93.445ZM72.0108 68.2527C71.5765 68.267 71.722 68.6883 71.9452 68.3366C71.9637 68.3079 71.9862 68.2793 72.0108 68.2527ZM95.4509 40.1297C91.3384 40.2376 87.1995 42.6619 84.1187 45.1124C81.4386 47.2443 79.1243 49.7801 77.075 52.5132C76.5478 53.8743 76.0951 55.2639 75.7127 56.6637C75.4607 57.588 75.303 58.5225 75.0921 59.455L75.0265 59.7409C74.8608 60.0501 74.7377 60.3828 74.648 60.7266C75.0214 61.1004 75.5058 61.3681 76.0392 61.4951C76.211 61.536 76.3538 61.6246 76.4666 61.7419C76.896 61.0266 77.2712 60.2716 77.4895 59.4712L77.4975 59.4342C78.3228 58.0847 79.2191 56.7772 80.1799 55.5144C82.8304 52.0277 85.7491 48.8498 89.2578 46.2057C91.9185 44.2016 94.8926 42.6311 98.0551 41.6106C97.281 40.9871 96.4019 40.4939 95.4509 40.1297Z" fill="black"/>
<path fill-rule="evenodd" clip-rule="evenodd" d="M132.667 115.958C131.155 116.394 129.532 116.433 127.991 115.983C126.593 115.574 125.157 114.674 124.128 113.484C123.214 112.427 122.622 111.142 122.646 109.77C122.648 109.614 122.704 109.483 122.791 109.381C122.884 109.272 123.014 109.197 123.153 109.164C123.297 109.131 123.448 109.143 123.577 109.201C123.694 109.254 123.794 109.344 123.856 109.475C124.014 109.682 124.172 109.886 124.33 110.084C125.601 111.648 126.833 112.817 128.744 113.236C129.782 113.464 130.818 113.363 131.768 113.016C132.786 112.644 133.706 111.991 134.426 111.155C134.752 110.777 135.137 110.623 135.513 110.62C135.939 110.617 136.36 110.814 136.677 111.13C136.989 111.44 137.198 111.861 137.217 112.301C137.233 112.688 137.107 113.092 136.77 113.452C135.661 114.639 134.223 115.509 132.667 115.958ZM132.623 96.3684C134.173 97.3071 136.535 99.4958 134.867 101.823C132.905 103.875 130.079 101.522 128.686 100.458C127.395 99.6336 125.944 101.754 127.142 102.717C137.205 110.139 141.288 96.6139 133.407 95.2648C132.539 95.1161 132.217 96.078 132.623 96.3684ZM118.122 92.2388C117.624 91.9214 117.038 91.8125 116.389 92.1069C115.881 92.3368 114.991 93.1034 114.371 94.1111C113.948 94.8005 113.647 95.6092 113.71 96.4517C113.724 96.6473 113.652 96.7916 113.537 96.8982C113.447 96.9824 113.316 97.0444 113.163 97.0637C113.033 97.0801 112.887 97.0653 112.768 97.0285C112.543 96.9584 112.424 96.8127 112.379 96.6938C111.945 95.5461 112.132 94.2654 112.618 93.11C113.274 91.5506 114.465 90.2445 115.246 89.8234C116.582 89.1025 118.158 89.0694 119.495 89.8037C120.634 90.4288 121.346 91.4379 122.054 92.4665C122.205 92.6852 122.354 92.9022 122.508 93.1155C122.818 93.5427 122.849 93.9665 122.729 94.3299C122.596 94.7325 122.258 95.0722 121.834 95.25C121.443 95.4144 120.989 95.4375 120.587 95.2686C120.248 95.126 119.936 94.848 119.739 94.3762C119.407 93.5816 118.854 92.705 118.122 92.2388V92.2388ZM143.424 94.0065C143.083 94.1836 142.816 94.237 142.437 94.124C142.228 94.0614 142.021 93.9413 141.859 93.78C141.699 93.6201 141.583 93.4212 141.538 93.2006C141.427 92.6562 141.128 92.1466 140.702 91.8143C140.338 91.5304 139.878 91.3799 139.368 91.4648C138.818 91.5563 138.294 91.9078 137.933 92.3223C137.812 92.461 137.718 92.6185 137.623 92.7749C137.445 93.0675 137.272 93.3395 137.026 93.5543C136.933 93.6361 136.793 93.6927 136.658 93.6927C136.602 93.6927 136.546 93.6838 136.493 93.6672C135.946 93.1196 135.84 92.7042 135.858 92.2922C135.876 91.8601 136.047 91.4227 136.324 91.0145C136.972 90.0571 138.202 89.2721 139.033 89.0942C140.17 88.8508 141.299 89.143 142.205 89.7759C143.137 90.427 143.827 91.4379 144.042 92.5772C144.094 92.8516 144.072 93.1477 143.967 93.4045C143.865 93.6555 143.686 93.8704 143.424 94.0065ZM120.63 82.0303C119.948 82.6928 119.14 82.7954 118.323 82.8867C117.869 82.9379 117.506 82.9791 117.15 83.0593C116.169 83.2798 115.2 83.6119 114.316 84.0901C113.392 84.5901 112.385 85.193 111.66 85.9654C111.488 86.1492 111.326 86.3421 111.163 86.5354C111.015 86.7116 110.872 86.8813 110.721 87.0449C110.548 87.2328 110.384 87.4298 110.221 87.6262C110.12 87.792 110.1 87.8328 110.079 87.8752C110.049 87.939 110.013 88.0103 109.973 88.0869C109.917 88.1918 109.852 88.3065 109.783 88.4106C109.67 88.6008 109.609 88.6532 109.556 88.6766C109.468 88.7154 109.386 88.7346 109.305 88.7242C109.23 88.7145 109.159 88.6784 109.088 88.6193C108.738 88.3244 108.635 87.8403 108.645 87.3265C108.661 86.5468 108.95 85.6836 109.216 85.1529C109.835 83.9198 110.693 82.638 111.725 81.7177C112.902 80.6672 114.19 79.8719 115.67 79.3239C116.589 78.9833 117.654 78.6705 118.655 78.71C119.376 78.7385 120.065 78.952 120.633 79.4852C120.982 79.8126 121.15 80.2782 121.15 80.7435C121.15 81.218 120.976 81.6954 120.63 82.0303ZM144.813 88.0969C144.769 88.1677 144.709 88.2166 144.642 88.2459C144.572 88.2766 144.494 88.2855 144.419 88.2729C144.344 88.2604 144.273 88.2266 144.217 88.175C144.163 88.1256 144.122 88.06 144.103 87.9797C143.65 85.997 142.77 84.5218 140.892 83.5705C139.969 83.1026 138.906 82.8052 137.901 82.5682C137.609 82.4993 137.3 82.4547 136.989 82.4094C136.014 82.2677 135.033 82.1053 134.398 81.3205C134.015 80.8477 133.854 80.2432 133.945 79.6902C134.03 79.1696 134.336 78.6923 134.891 78.4062C136.273 77.6944 137.99 78.3929 139.386 78.9879C139.489 79.032 139.591 79.0754 139.69 79.1172C141.055 79.6911 142.299 80.4486 143.323 81.532C144.134 82.3915 144.887 83.6621 145.189 84.9691C145.442 86.0566 145.382 87.1667 144.813 88.0969Z" fill="black"/>
</g>
<defs>
<clipPath id="clip0_140_1969">
<rect width="282" height="571" fill="white"/>
</clipPath>
</defs>
</svg>
