<svg width="25" height="24" viewBox="0 0 25 24" fill="none" xmlns="http://www.w3.org/2000/svg">
<g clip-path="url(#clip0_210_456)">
<path fill-rule="evenodd" clip-rule="evenodd" d="M11.7992 22.5118C11.6756 22.512 11.5538 22.481 11.4452 22.4218H11.4092C10.6773 21.9478 0.645345 15.7498 0.0333509 9.27583C-0.164647 7.13383 0.633345 5.20783 2.50533 3.55783C3.3955 2.76069 4.47635 2.20683 5.6433 1.94983C7.80328 1.48783 9.75326 2.18383 11.4572 4.01983C11.501 4.0667 11.554 4.10408 11.6128 4.12963C11.6716 4.15518 11.7351 4.16836 11.7992 4.16836C11.8634 4.16836 11.9268 4.15518 11.9857 4.12963C12.0445 4.10408 12.0975 4.0667 12.1412 4.01983C13.8452 2.15983 15.7952 1.46383 17.9552 1.94983C19.1245 2.21376 20.2056 2.77601 21.0932 3.58183C22.9351 5.23183 23.7631 7.18183 23.5651 9.29983C22.9651 15.7858 12.8432 22.0198 12.1652 22.4218H12.1352C12.0749 22.4546 12.0103 22.4788 11.9432 22.4938L11.7992 22.5118ZM5.9373 3.29983C6.25242 3.22907 6.57432 3.19286 6.89729 3.19183C8.48727 3.19183 9.91526 4.09783 11.2292 5.94583C11.2943 6.03627 11.3799 6.10994 11.479 6.16075C11.5781 6.21157 11.6879 6.23807 11.7992 6.23807C11.9106 6.23807 12.0204 6.21157 12.1195 6.16075C12.2186 6.10994 12.3042 6.03627 12.3692 5.94583C13.9412 3.74383 15.6752 2.87983 17.6612 3.30583C18.5914 3.51637 19.45 3.9674 20.1512 4.61383C21.6632 5.96983 22.3231 7.45183 22.1611 9.14983C21.6932 14.1598 14.2592 19.3498 12.0512 20.8258C11.9755 20.8726 11.8882 20.8973 11.7992 20.8973C11.7102 20.8973 11.623 20.8726 11.5472 20.8258C9.33927 19.3498 1.90533 14.1658 1.43734 9.14983C1.27534 7.44583 1.93533 5.96383 3.44732 4.60783C4.14852 3.9614 5.00713 3.51037 5.9373 3.29983Z" fill="white"/>
<path d="M4.00391 9C4.50391 7.5 5.50391 6 8.00391 6" stroke="#FFD948" stroke-width="2" stroke-linecap="round"/>
</g>
<defs>
<clipPath id="clip0_210_456">
<rect width="23.9998" height="24" fill="white" transform="translate(0.00390625)"/>
</clipPath>
</defs>
</svg>
