<svg width="25" height="24" viewBox="0 0 25 24" fill="none" xmlns="http://www.w3.org/2000/svg">
<path d="M6.59937 19.0963L6.61876 19.0491C6.63526 19.0143 6.64988 18.9786 6.66258 18.9424L6.72589 18.7883L6.70771 18.7701C6.72893 18.6502 6.73026 18.5266 6.71067 18.4043C6.66811 18.1388 6.52976 17.8981 6.32179 17.7277L6.32024 17.7264C4.73379 16.4368 3.63415 14.6452 3.20263 12.6468C2.77111 10.6484 3.03346 8.56256 3.94644 6.73328C4.85942 4.90399 6.36851 3.44044 8.22489 2.58394C10.0813 1.72743 12.1741 1.52911 14.1583 2.02168L14.1627 2.02272C15.7599 2.4041 17.2201 3.22071 18.3813 4.38186C19.5424 5.54302 20.359 7.00329 20.7404 8.60052L20.741 8.60301C21.0641 9.92597 21.083 11.3049 20.7965 12.6363C20.5099 13.9676 19.9253 15.2167 19.0866 16.2896C18.2479 17.3625 17.1769 18.2313 15.9541 18.8307C14.7319 19.4299 13.3898 19.7443 12.0287 19.7504C11.4436 19.7476 10.8601 19.6887 10.2863 19.5744C10.0313 19.522 9.76652 19.565 9.54184 19.6942L5.71211 21.2568L6.59937 19.0963ZM4.43873 22.0143C4.4415 22.0282 4.44472 22.0419 4.44836 22.0555L4.15032 22.3536L4.50388 22.7071V23H4.58779L3.69781 23.3635L3.69779 23.3635L3.69083 23.3664C3.68005 23.371 3.66857 23.3737 3.6569 23.3743C3.64506 23.3738 3.63339 23.3711 3.62245 23.3665C3.61027 23.3614 3.59922 23.3538 3.58996 23.3444L3.58879 23.3432C3.57491 23.3291 3.56551 23.3113 3.56178 23.2919C3.55806 23.2726 3.56011 23.2526 3.56768 23.2345C3.56772 23.2344 3.56775 23.2343 3.56779 23.2342L5.26536 19.2212L5.26541 19.2212L5.26811 19.2145C5.33978 19.0381 5.35604 18.844 5.31472 18.6581C5.27354 18.4728 5.17709 18.3043 5.03814 18.175C3.63356 16.8577 2.6296 15.1706 2.14189 13.3077C1.6541 11.4446 1.70258 9.48155 2.28175 7.64475L2.28226 7.64312C2.81416 5.93586 3.79228 4.40161 5.11556 3.19889C6.43884 1.99618 8.05927 1.16863 9.8094 0.801755L9.80941 0.801772L9.81346 0.800888C11.2105 0.495927 12.656 0.48835 14.0562 0.77865C15.4563 1.06895 16.7797 1.65063 17.9403 2.48588C19.101 3.32114 20.0729 4.39127 20.7928 5.62673C21.5128 6.86219 21.9647 8.23532 22.1193 9.65688C22.2738 11.0784 22.1275 12.5166 21.6898 13.8779C21.2522 15.2392 20.5329 16.4932 19.5789 17.5584C18.6249 18.6235 17.4574 19.476 16.1524 20.0604C14.8476 20.6447 13.4345 20.9479 12.0048 20.9504C11.5004 20.949 10.9968 20.9109 10.498 20.8364C10.2188 20.7914 9.93261 20.8218 9.66912 20.9246L9.66909 20.9245L9.66175 20.9275L5.74025 22.5293L5.59545 22.3845L9.95572 20.6053L9.99857 20.5879L10.0375 20.5628C10.0516 20.5537 10.0687 20.5505 10.0851 20.554L10.0891 20.5547C10.7271 20.682 11.3759 20.7475 12.0266 20.7504L12.0309 20.7504C13.5439 20.7439 15.0357 20.3946 16.3942 19.7287C17.7527 19.0627 18.9426 18.0975 19.8744 16.9055C20.8063 15.7135 21.4558 14.3258 21.7741 12.8467C22.0924 11.368 22.0714 9.83643 21.7127 8.36702C21.2883 6.5905 20.3799 4.96632 19.0884 3.67476C17.797 2.38342 16.1732 1.47511 14.3971 1.05058C12.1928 0.50393 9.86809 0.724479 7.80594 1.67593C5.74311 2.62769 4.0662 4.254 3.05169 6.28671C2.03718 8.31943 1.74565 10.6372 2.22516 12.8578C2.7046 15.0781 3.92624 17.0688 5.6887 18.5017C5.70717 18.5172 5.71946 18.5388 5.72327 18.5626C5.72714 18.5868 5.72204 18.6115 5.70892 18.6321L5.49377 18.9705L5.54782 19.0245L4.47435 21.6385L4.4743 21.6384L4.47174 21.6449C4.42544 21.7623 4.41398 21.8906 4.43873 22.0143Z" fill="#256370" stroke="white"/>
<path d="M16.6436 15.0348C15.5039 15.9996 14.5039 16.4996 12.0035 16.8973" stroke="#FFD948" stroke-width="2" stroke-linecap="round"/>
</svg>
