<svg width="25" height="24" viewBox="0 0 25 24" fill="none" xmlns="http://www.w3.org/2000/svg">
<g clip-path="url(#clip0_210_463)">
<path d="M8.42229 17.83L15.5818 14.6691" stroke="#FFD948" stroke-width="2" stroke-linecap="round"/>
<path d="M7.41866 3.54976V3.54975H7.41569H7.40969H6.20971H5.02337L5.85181 4.39891L6.33173 4.89084L6.33181 4.89091L10.1713 8.82818L5.988 10.8287L5.98792 10.8285L5.97572 10.8348C5.96148 10.8421 5.94571 10.8458 5.92972 10.8458V10.8457L5.92037 10.8458C5.91173 10.8459 5.90317 10.8443 5.89518 10.841L5.8867 10.8376L5.8781 10.8344L2.75813 9.68841L2.75815 9.68836L2.75083 9.68579C2.63075 9.64379 2.50449 9.62215 2.37728 9.62176V9.62171L2.37029 9.62178C2.22566 9.62336 2.08259 9.65197 1.94848 9.70615L1.94187 9.70882L1.93533 9.71168L1.45702 9.92094C1.36065 9.96247 1.27508 10.0256 1.20691 10.1054C1.13798 10.186 1.08871 10.2816 1.06297 10.3846C1.03724 10.4875 1.03573 10.595 1.05858 10.6987C1.08143 10.8023 1.12801 10.8992 1.19465 10.9818L1.19465 10.9818L1.1965 10.984L2.73961 12.8733L2.45402 13.1239L1.78671 13.7092L2.63317 13.9765C2.77287 14.0207 2.92593 14.0549 3.07176 14.0852L3.08336 14.0877L3.09506 14.0895C3.43989 14.1445 3.7887 14.1706 4.13787 14.1677L4.13989 14.1677C5.5974 14.1497 7.03783 13.8514 8.3826 13.289L8.39183 13.2852L8.40091 13.2809L21.63 7.11531C22.181 6.94165 22.6818 6.63638 23.0887 6.22568L23.1079 6.20628L23.1249 6.1849C23.2626 6.01169 23.3319 5.79391 23.3195 5.573C23.307 5.35207 23.2139 5.14342 23.0576 4.98673L23.0314 4.96037L23.0015 4.9382C22.4641 4.53954 21.8017 4.34724 21.1348 4.39589C20.8869 4.39797 20.6394 4.41542 20.3936 4.4481L20.3892 4.44874C19.7456 4.54029 19.1195 4.7284 18.532 5.00671L14.4907 6.8655L14.4907 6.86548L14.4871 6.86716C14.4738 6.8734 14.4593 6.87664 14.4446 6.87664C14.4313 6.87664 14.4181 6.87396 14.4058 6.86877L8.1565 3.72314L8.15652 3.72309L8.14965 3.71976C7.9217 3.60935 7.67195 3.55126 7.41866 3.54976ZM11.0556 8.30267L7.39589 4.54975H7.40969H7.41402C7.51677 4.55055 7.61808 4.57396 7.71075 4.61831L13.9648 7.76637L13.9647 7.76653L13.9771 7.77235C14.1234 7.84103 14.283 7.87664 14.4446 7.87664C14.6055 7.87664 14.7644 7.84136 14.9101 7.77331C14.9108 7.77299 14.9114 7.77267 14.9121 7.77235L18.9525 5.91401L18.9525 5.91404L18.9579 5.91151C19.4544 5.67598 19.9837 5.51671 20.5278 5.43909C20.7368 5.41136 20.9474 5.39689 21.1583 5.39575L21.1768 5.39565L21.1953 5.39417C21.5664 5.36455 21.9358 5.45128 22.2533 5.63989C21.9789 5.88182 21.6554 6.06263 21.3042 6.16935L21.2704 6.17963L21.2383 6.19456L7.98765 12.3703C6.7642 12.8806 5.45415 13.1513 4.1286 13.1678C3.99531 13.1689 3.86208 13.1649 3.7292 13.1559C3.75127 13.0851 3.76476 13.0117 3.76922 12.9373C3.77657 12.8148 3.75935 12.6921 3.71858 12.5764C3.67955 12.4657 3.61968 12.3634 3.54227 12.2752L2.23343 10.6728L2.3274 10.6317C2.3435 10.6257 2.36046 10.6224 2.37762 10.6218C2.39145 10.6222 2.40516 10.6246 2.4183 10.6289L5.52607 11.7704C5.65461 11.8216 5.79191 11.8472 5.93028 11.8458C6.10199 11.8457 6.27131 11.8055 6.42466 11.7283L10.8234 9.62483L10.8234 9.62494L10.8334 9.61989C10.9489 9.56143 11.0492 9.47677 11.1261 9.37267C11.2031 9.26856 11.2546 9.1479 11.2766 9.02033C11.2986 8.89276 11.2904 8.7618 11.2528 8.63794C11.2151 8.51408 11.1491 8.40074 11.0598 8.30698L11.0598 8.30695L11.0556 8.30267ZM7.40969 3.34975L7.41111 3.34377C7.69474 3.34525 7.97418 3.41292 8.22714 3.54149L8.22864 3.54224L14.1806 6.54224L14.2867 6.59575H14.4056H14.5076H14.6175L14.7172 6.54971L18.3952 4.85171L18.3952 4.85178L18.4029 4.84807C19.0786 4.52203 19.8045 4.31264 20.5501 4.22878C20.7516 4.20724 20.9541 4.19622 21.1567 4.19575L21.1567 4.1959L21.1689 4.19558C21.6818 4.18192 22.1916 4.27886 22.6637 4.47981L22.6651 4.4804C22.8752 4.56907 23.0583 4.71145 23.1959 4.89323C23.3317 5.07255 23.4186 5.284 23.4483 5.50689C23.4667 5.73506 23.4246 5.96413 23.3261 6.1709C23.2263 6.38046 23.0722 6.55947 22.8798 6.68933L22.8798 6.68924L22.8714 6.69515C22.5237 6.94035 22.1461 7.14013 21.7478 7.28965L21.73 7.29635L21.7127 7.3044L8.47286 13.4627C7.09715 14.0436 5.62143 14.351 4.12812 14.3678L4.12414 14.3678C3.59658 14.378 3.07041 14.3103 2.56258 14.1671L1.45177 13.8088L2.14597 13.1641L2.49131 12.8435L2.19162 12.4798L1.04492 11.0882C0.964104 10.9823 0.908196 10.8595 0.881389 10.7289C0.854136 10.5962 0.857686 10.459 0.891767 10.3279C0.925847 10.1967 0.989549 10.0752 1.07797 9.97251C1.16633 9.86993 1.27702 9.78896 1.40154 9.73583C1.40164 9.73579 1.40173 9.73575 1.40183 9.7357L1.88132 9.53192L1.88135 9.53198L1.88887 9.52864C2.04981 9.45709 2.22413 9.42064 2.40024 9.42173C2.54881 9.42408 2.69601 9.45055 2.83609 9.5001L5.66564 10.5372L5.74896 10.5678H5.83771H5.95771H6.07072L6.17275 10.5192L9.22072 9.06715L9.85318 8.76585L9.36267 8.26567L5.70957 4.54056L5.7087 4.53967L4.54759 3.34975H7.40969ZM7.27784 2.84975H4.13373L7.18608 3.29696L7.17408 3.29096L7.27784 2.84975Z" fill="#256370" stroke="white"/>
</g>
<defs>
<clipPath id="clip0_210_463">
<rect width="23.9998" height="24" fill="white" transform="translate(0.00390625)"/>
</clipPath>
</defs>
</svg>
