<svg width="347" height="500" viewBox="0 0 347 500" fill="none" xmlns="http://www.w3.org/2000/svg">
<path fill-rule="evenodd" clip-rule="evenodd" d="M181.501 293.264C181.053 297.936 181.97 302.398 184.155 306.17L184.866 307.397L183.513 307.869C181.05 308.729 178.312 309.147 175.141 309.147C171.878 309.147 168.484 308.693 165.757 308.328L164.011 308.095L164.869 306.581C165.559 305.365 165.686 303.891 165.822 302.33C165.858 301.911 165.895 301.477 165.945 301.048C168.528 277.996 171.794 254.643 174.953 232.059C175.784 226.117 176.643 219.971 177.477 213.926L179.869 214.018C180.512 225.207 181.136 236.585 181.74 247.588C182.006 252.427 182.271 257.266 182.539 262.103C183.493 274.335 183.164 284.239 181.501 293.264ZM180.524 431.499C184.036 431.499 187.555 431.133 190.983 430.413C201.709 428.166 211.454 422.864 219.746 418.07C220.169 417.83 220.599 417.591 221.04 417.344C224.286 415.531 228.326 413.276 230.858 410.524C233.635 407.505 234.113 404.497 232.362 401.057L232.085 400.513L232.374 399.975C234.188 396.606 234.053 392.437 232.046 389.838L230.36 387.654L233.133 387.948C235.928 388.244 238.746 388.645 241.47 389.033C244.494 389.464 247.62 389.909 250.7 390.207L251.555 390.29L251.752 391.113C251.862 391.571 251.997 391.849 252.947 391.849C253.771 391.849 254.878 391.608 256.049 391.353C257.503 391.037 259.151 390.679 260.741 390.679C261.44 390.679 262.069 390.745 262.663 390.883L263.009 390.962L263.255 391.214C263.413 391.375 263.681 391.475 263.955 391.475C264.162 391.475 264.354 391.417 264.483 391.317L264.871 391.014L265.364 391.068C273.948 392.008 281.35 393.66 287.992 396.115L288.022 396.126L288.166 396.188C290.568 397.223 293.051 398.293 295.313 398.293C296.966 398.293 298.308 397.732 299.538 396.526L299.885 396.186L300.375 396.181C305.348 396.135 307.62 390.347 307.934 386.468L307.974 385.98L308.353 385.662C317.019 378.403 322.135 368.433 323.994 355.182C325.687 343.112 324.387 330.387 322.892 319.53C319.434 291.395 315.827 266.173 306.659 242.251L306.231 241.133L307.372 240.724C311.332 239.303 314.358 237.609 316.624 235.543L316.781 235.399L316.979 235.319C320.226 233.987 321.817 229.071 322.227 227.596L322.26 227.477L322.317 227.367C322.979 226.098 323.132 224.334 322.736 222.525L322.694 222.33L322.718 222.132C322.932 220.415 322.222 218.62 321.47 216.719C321.126 215.85 320.771 214.953 320.512 214.059C319.62 211.504 318.729 208.904 317.867 206.389C315.933 200.747 313.933 194.913 311.803 189.238L311.512 188.462L312.154 187.927C313.249 187.013 312.884 185.938 311.304 183.367C310.93 182.76 310.577 182.185 310.309 181.619C308.284 178.126 306.113 174.773 303.857 171.652L303.81 171.588L303.773 171.519C292.194 149.933 271.656 138.045 245.941 138.045L245.417 138.046L245.127 137.872C240.307 134.979 236.867 130.016 234.609 122.697L234.537 122.464L234.565 122.222C234.642 121.547 234.727 120.663 234.698 119.805C234.624 117.632 233.771 115.693 232.357 114.484C229.674 112.192 225.6 112 221.658 112L221.092 112.001C216.052 112.015 212.494 112.889 209.894 114.75C206.873 116.913 205.204 120.404 204.79 125.423C204.666 126.925 204.671 128.481 204.674 129.985L204.675 130.405L204.625 130.572C204.262 131.765 203.838 132.911 203.364 133.979L202.876 135.078L201.765 134.582C201.048 134.262 200.138 134.097 198.983 134.079C198.65 134.071 198.325 134.068 197.997 134.068C195.316 134.068 192.447 134.312 189.673 134.548C187.583 134.726 185.421 134.911 183.329 134.992L183.301 134.994C183.301 134.994 183.012 134.992 182.882 134.992C177.797 134.992 174.111 135.79 171.281 137.504C168.235 139.349 166.044 142.311 164.388 146.825C155.503 172.697 151.851 200.564 148.629 225.15C146.801 238.007 146.245 251.188 145.708 263.935C145.14 277.389 144.553 291.301 142.476 304.901L142.312 305.976L141.209 305.905C136.354 305.592 131.107 304.919 125.553 304.205C117.113 303.122 108.386 302.001 99.9504 302.001C88.1549 302.001 79.2115 304.318 72.6133 309.083C68.0133 313.41 65.6336 319.268 65.7314 326.029C65.8696 335.581 70.9314 346.142 78.6268 352.934L78.6559 352.961C88.3829 362.133 106.138 370.089 131.429 376.607C154.685 382.6 178.741 385.857 191.011 387.265L194.047 387.614L191.583 389.393C190.585 390.113 189.675 390.747 188.8 391.331L188.235 391.708L187.617 391.425C185.854 390.618 184.734 390.448 184.105 390.448C183.546 390.448 182.873 390.569 182.835 391.146C182.811 391.524 183.081 392.085 183.649 392.155L186.667 392.531L184.203 394.286C182.557 395.458 180.1 396.87 177.256 398.506C167.952 403.857 153.89 411.945 156.308 419.047L156.467 419.513L156.242 419.953C155.593 421.225 155.537 422.405 156.073 423.561C157.221 426.04 160.813 427.921 163.863 428.686L163.915 428.699L163.966 428.717C169.274 430.563 174.845 431.499 180.524 431.499Z" fill="#D08B5B"/>
<path fill-rule="evenodd" clip-rule="evenodd" d="M204.483 378.164C204.388 378.018 204.304 377.813 204.258 377.632C203.615 378.546 193.318 387.554 183.135 395.2C173.677 402.301 162.829 407.666 158.617 413.586C157.017 415.836 156.204 422.43 156.511 423.538C157.199 424.409 164.771 428.319 164.771 428.319C166.481 428.781 180.212 432.498 186.312 431.233C188.556 430.892 204.734 425.724 206.778 424.8L224.163 414.729C224.543 414.563 224.921 414.397 225.297 414.233L225.805 414.031C229.682 412.482 234.629 409.2 233.616 404.468C232.425 399.6 234.562 398.535 234.072 395.328C233.649 392.552 232.724 389.726 231.247 387.031C225.541 393.438 218.298 392.878 214.649 384.915L214.565 384.753L214.483 384.59C213.29 382.214 212.162 379.196 209.337 378.262C207.779 377.21 205.785 376.992 204.483 378.164ZM256.628 360.295L256.275 361.105C254.558 365.025 250.914 373.17 249.466 376.384C249.789 375.789 250.157 375.218 250.572 374.678C251.784 373.101 250.362 377.866 250.351 382.84C250.341 387.454 251.768 392.247 252.097 392.326C252.501 392.425 258.147 389.654 263.44 390.495C267.713 391.174 274.193 391.939 280.629 393.693C285.861 395.119 291.065 397.538 295.034 398.359C298.258 399.027 298.888 395.54 300.995 395.755C302.893 395.95 303.199 395.903 303.668 395.511C306.303 393.336 308.794 384.742 308.545 381.513C306.358 364.399 272.603 358.883 256.628 360.295Z" fill="white"/>
<path fill-rule="evenodd" clip-rule="evenodd" d="M289.81 246.453L288.713 246.754L240.109 260.33C239.798 260.533 239.567 260.68 239.345 260.815L239.187 260.909L238.267 261.454L238.481 262.5C238.962 264.852 239.033 267.272 238.815 270.651L238.803 270.84L238.776 271.224L238.737 271.746L238.724 271.924L238.459 275.145L238.409 275.792C238.37 276.314 238.342 276.751 238.316 277.207L238.311 277.313L238.273 278.052L238.259 278.369C238.127 281.591 238.355 284.737 238.945 289.289L238.974 289.514L239.058 290.145L239.116 290.697L239.36 292.956L239.444 293.763C239.996 299.085 240.269 303.263 240.198 307.157L240.195 307.352C240.087 312.461 239.301 315.923 237.995 317.114L237.955 317.15L237.921 317.179L237.913 317.18C237.784 317.187 237.574 317.106 237.165 316.86L236.994 316.754C236.889 316.687 236.688 316.561 236.595 316.504L236.493 316.442C236.303 316.329 236.138 316.241 235.965 316.167C235.697 316.052 235.424 315.977 235.153 315.955L235.072 315.95L235.06 315.949L234.986 315.884C234.741 315.664 234.507 315.421 234.293 315.163L234.203 315.052L234.125 314.951L233.599 314.26L233.242 313.643C232.968 313.169 232.72 312.666 232.497 312.134L232.415 311.933L232.343 311.75L229.225 303.692L229.439 312.328C229.511 315.26 228.412 316.78 227.059 316.795C225.636 316.812 224.178 315.25 223.757 312.476L223.743 312.38L220.762 312.757C220.957 314.496 220.335 317.244 219.338 318.793C218.905 319.465 218.498 319.782 218.206 319.806C217.854 319.836 217.298 319.507 216.553 318.55L216.554 318.551L216.569 318.57L216.537 318.525C215.889 317.599 215.529 316.356 215.339 314.585L215.326 314.458L215.314 314.332L214.27 303.373L212.338 314.211C212.149 315.274 211.936 316.341 211.699 317.414L211.655 317.614L211.622 317.602C211.551 317.574 211.46 317.531 211.355 317.472L211.308 317.445L211.265 317.419C210.621 317.028 209.859 316.236 209.555 315.722L209.527 315.672L209.181 315.045L208.475 314.918C208.352 314.896 208.221 314.839 208.126 314.773L208.093 314.747L207.585 314.334L206.937 314.424C197.477 315.736 190.509 314.63 186.075 309.995L185.942 309.853L185.251 309.111L184.303 309.474C180.088 311.088 123.492 303.967 118.769 303.525L117.722 303.429L116.846 303.351C109.434 302.703 102.766 302.801 96.3581 302.871L95.9464 302.876L95.3731 302.91L94.845 302.944C89.4655 303.3 85.2138 303.958 81.3661 305.217C76.5417 306.795 72.7307 309.25 70.0348 312.818L69.9145 312.979L69.7838 313.178C66.2447 318.632 65.1782 325.212 66.4076 332.099C67.5212 338.337 70.4944 344.548 74.6554 349.545L74.7886 349.704L75.0289 350.005C83.8315 360.842 101.957 369.555 127.134 376.484L127.899 376.694L128.684 376.906C147.34 381.93 168.302 385.618 188.824 388.09L189.465 388.167L190.733 388.316L194.969 388.812L192.273 386.073L192.285 386.068C192.565 385.977 196.9 386.876 196.9 386.876L197.825 386.107C198.357 385.662 198.756 385.32 199.135 384.98L199.313 384.819L200.026 384.165L199.897 383.364C199.896 383.351 199.902 383.329 199.929 383.281L199.941 383.258C199.941 383.258 203.076 379.599 203.318 379.387L203.359 379.351L203.418 379.302L203.442 379.283C204.008 378.862 209.915 379.065 209.915 379.065C209.915 379.065 213.988 372.16 214.524 371.431L214.653 371.255L215.987 371.245L215.482 370.398C214.746 369.163 214.293 367.779 214.103 366.253L214.085 366.095L214.074 365.992L214.157 366.048C214.723 366.431 215.054 366.812 215.163 367.172L215.175 367.215L215.184 367.251L215.192 367.289L215.236 367.446C215.85 369.604 217.156 371.299 219.071 372.644C220.423 373.595 239.872 380.364 244.686 381.588L245.021 381.673L246.221 381.976L247.081 380.151C248.404 377.327 250.119 373.555 252.225 368.833L253.262 366.502L254.326 364.1L259.395 361.13L262.877 361.188C263.614 361.201 264.291 361.214 264.908 361.226L265.211 361.232L267.13 361.273L267.476 361.31C275.505 362.168 283.328 363.907 290.74 366.505L291.117 366.638L291.509 366.778L291.719 366.846L292.091 366.968C297.328 368.705 300.826 370.475 303.335 372.827C306.25 375.558 307.803 379.129 308.01 384.088L308.016 384.246L308.138 387.661L310.574 385.26C317.826 378.108 322.574 368.402 324.599 357.346C326.459 347.191 325.92 336.298 323.163 326.483L323.122 326.337L323.114 326.238C322.908 323.494 322.41 320.688 321.625 317.619L321.551 317.331L321.474 317.041C320.911 314.911 320.351 313.083 319.345 310.04L319.233 309.703L317.898 305.705C310.98 285.823 301.853 266.469 290.735 247.985L290.397 247.426L289.81 246.453Z" fill="#B6E3E0"/>
<path fill-rule="evenodd" clip-rule="evenodd" d="M190.733 385.875C190.367 385.503 190.212 385.014 190.555 384.441C191.88 382.752 194.627 383.907 196.336 384.297C196.981 383.761 197.622 383.223 198.239 382.656C198.025 381.328 199.624 380.445 200.281 379.421C200.926 378.667 201.533 377.81 202.307 377.177C204.192 375.709 206.805 376.702 208.993 376.636C210.678 374.496 212.413 372.424 214.016 370.213C212.168 367.114 212.038 363.483 212.651 360.03C184.314 349.297 159.785 328.976 129.137 324.279C128.084 324.104 127.492 322.825 127.755 321.887C129.893 316.795 160.615 329.935 165.207 332.315C178.752 338.788 191.439 346.858 204.603 353.978C207.348 355.433 210.367 356.216 213.369 356.972C217.981 341.862 225.783 328.01 231.766 313.442C231.378 312.77 231.047 312.064 230.766 311.339C230.965 319.352 223.158 319.239 222.08 311.639C222.525 315.601 219.524 324.086 215.192 318.518C214.176 317.12 213.815 315.329 213.643 313.522C213.421 314.771 213.168 316.014 212.888 317.254C211.776 319.708 208.74 316.724 208.035 315.443C207.628 315.37 207.247 315.185 206.969 314.958C199.309 316.02 190.287 315.959 184.666 309.923C175.133 313.574 164.582 310.303 154.94 308.845C135.321 306.594 115.623 303.161 95.8269 303.424C86.9888 303.936 76.562 305.36 70.9717 312.888C63.8006 323.739 67.854 338.394 75.7644 347.788C94.793 371.836 160.11 382.293 190.733 385.875ZM190.201 394.537C189.854 394.445 189.505 394.36 189.159 394.279C183.605 398.895 157.447 410.881 159.437 418.04C160.14 418.931 161.823 419.134 162.887 419.421C164.741 419.922 166.612 420.355 168.501 420.698C174.609 421.807 180.934 422 187.033 420.735C189.277 420.395 191.303 419.439 193.346 418.515C199.95 415.615 207.224 412.412 213.796 409.536C222.145 406.232 236.79 399.72 230.766 388.734C225.06 395.14 217.817 394.581 214.168 386.618C212.91 384.2 211.812 380.942 208.857 379.965C207.298 378.913 205.304 378.694 204.002 379.866C203.908 379.72 203.823 379.516 203.778 379.334C202.309 381.421 201.042 383.617 199.321 385.524C199.912 385.556 206.064 390.101 204.248 390.103C202.064 388.98 199.894 388.044 197.536 387.439C195.827 389.155 193.947 390.751 192 392.226C193.891 393.473 195.59 395 196.957 396.657C197.075 396.803 196.931 396.992 196.755 396.913C194.633 395.969 192.451 395.14 190.201 394.537ZM162.042 425.495C183.287 435.021 205.778 424.414 223.895 413.106C228.076 410.775 233.576 407.471 232.731 401.985C229.651 406.482 224.574 409.043 219.701 411.264C211.514 414.958 203.274 418.533 195.066 422.182C194.291 424.749 190.585 424.847 188.344 425.417C178.372 427.347 167.653 426.388 158.268 422.538C158.811 424.144 160.588 424.881 162.042 425.495ZM246.807 388.405C247.332 388.472 247.857 388.533 248.382 388.592C248.328 387.899 248.746 387.205 249.42 386.99C249.117 385.521 249.005 384.002 249.167 382.51C248.29 384.774 245.456 384.086 243.657 383.434C241.086 382.737 238.532 381.986 235.991 381.186C234.989 383.044 233.927 384.875 232.623 386.557C237.372 386.979 242.076 387.816 246.807 388.405ZM248.896 381.284C249.022 381.551 249.202 381.832 249.206 382.152C249.335 381.05 249.585 379.963 249.966 378.92C249.609 379.708 249.253 380.496 248.896 381.284ZM251.895 375.38C254.231 372.341 258.549 369.856 262.54 370.703C262.797 370.759 262.803 371.17 262.54 371.222C257.178 371.948 252.47 376.194 252.284 381.683C251.861 384.167 253.592 386.606 253.009 388.99C253.125 388.997 253.241 389.003 253.355 389.011C253.397 389.171 253.436 389.313 253.486 389.437C252.907 389.533 252.736 390.463 253.42 390.629C253.824 390.727 254.247 390.778 254.678 390.8C256.864 390.211 259.17 390.075 261.26 389.204C263.327 388.292 262.811 385.729 263.54 383.954C264.075 381.907 264.69 379.868 265.465 377.904C265.521 377.746 265.736 377.782 265.754 377.941C266.301 381.86 266.283 385.845 266.151 389.795C266.868 389.868 267.581 389.949 268.297 390.038C268.25 388.934 271.566 375.493 273.314 378.942C272.434 382.735 272.328 386.696 272.234 390.599C277.421 391.452 282.532 392.723 287.505 394.453C291.01 395.513 295.178 398.649 298.58 395.814C301.214 393.639 302.102 389.844 301.854 386.616C298.427 367.512 271.366 365.28 255.391 366.692C253.882 370.168 252.346 373.631 250.789 377.086C251.111 376.491 251.48 375.92 251.895 375.38ZM306.379 386.244C306.672 381.906 305.94 376.506 302.72 373.273C295.351 367.054 285.032 365.097 275.824 362.845C271.534 362 267.186 361.439 262.82 361.159C261.271 361.037 259.303 361.387 258.21 360.123C257.646 361.455 257.076 362.784 256.504 364.114C274.838 361.717 313.087 370.046 302.376 395.115C304.644 392.662 306.147 389.676 306.379 386.244ZM215.295 371.904C214.452 374.008 213.42 376.011 212.072 377.843C213.604 378.844 214.855 380.324 215.736 381.914C221.387 396.67 227.43 388.766 234.937 380.848C228.584 378.454 220.168 376.661 215.295 371.904ZM309.342 383.241C324.035 368.753 326.886 344.618 321.458 325.646C320.976 318.611 318.511 311.907 316.303 305.246C309.272 285.041 300.025 265.602 288.935 247.249C275.176 251.021 261.441 254.894 247.65 258.543C245.751 258.955 243.85 259.769 241.9 259.887C241.203 260.33 240.503 260.819 239.778 261.248C240.834 266.412 239.86 271.684 239.614 276.879C239.389 280.968 239.832 284.974 240.375 289.02C240.982 294.907 243.481 314.054 238.474 317.559C236.777 318.376 235.26 315.955 234.528 316.621C233.869 316.162 233.254 315.565 232.753 314.907C230.82 321.148 227.66 326.938 225.708 333.185C223.112 342.366 214.584 357.226 216.478 365.983C217.942 371.391 224.35 372.557 228.974 374.324C234.318 376.18 239.722 377.884 245.214 379.267C247.895 373.588 250.457 367.855 252.972 362.1C264.465 335.549 274.643 308.445 283.74 281.018C283.91 280.409 286.002 273.813 286.385 275.653C286.417 275.464 286.655 274.976 286.745 275.393C285.203 281.833 283.638 288.272 281.945 294.676C286.104 294.095 290.576 293.869 294.383 295.904C294.58 296.008 294.435 296.266 294.241 296.235C289.733 295.454 285.385 296.928 281.055 297.986C274.974 318.648 267.128 338.786 258.823 358.672C261.391 357.855 264.373 358.759 267.054 358.824C275.497 359.695 283.844 361.539 291.821 364.407C301.847 367.652 308.936 371.883 309.342 383.241ZM317.434 232.461C319.902 229.808 321.842 226.419 321.467 222.824C319.984 220.85 319.493 218.275 318.63 215.993C315.254 206.446 312.12 196.827 308.445 187.382C300.629 189.782 292.939 192.66 285.686 196.44C284.351 197.12 283.031 197.826 281.727 198.556C280.36 199.321 278.87 200.649 277.231 200.268C279.022 202.8 282.71 205.434 283.334 208.359C283.468 209.285 282.811 210.144 281.801 209.938C265.994 221.145 249.67 232.117 234.729 244.601C223.541 253.443 214.951 260.614 211.114 274.96C208.528 284.253 208.52 293.965 208.9 303.52C208.974 305.378 208.976 307.279 209.127 309.149C208.902 310.547 209.329 313.394 210.904 313.445C210.868 313.784 210.756 314.097 210.577 314.373C210.627 314.44 210.68 314.503 210.734 314.568C210.812 314.186 210.888 313.806 210.96 313.424C212.186 308.002 212.351 301.712 212.146 295.939C212.06 294.284 214.603 294.324 214.745 295.939C215.128 300.303 215.51 304.667 215.893 309.028C216.352 311.855 215.629 315.553 217.893 317.703C220.195 315.579 219.433 311.391 219.321 308.65C219.141 304.18 218.947 299.712 218.78 295.242C218.728 293.825 221.078 293.461 221.345 294.901C222.1 299.007 222.918 303.1 223.798 307.182C224.328 308.76 224.693 315.841 227.346 314.612C228.927 313.534 227.787 307.216 227.995 305.124C227.897 300.983 227.839 296.847 227.534 292.716C227.41 291.049 230.129 290.695 230.502 292.322C231.107 294.956 231.686 297.59 232.211 300.242C233.363 304.712 232.944 310.772 237.104 313.743C238.733 302.131 236.388 290.6 236.06 279.03C236.256 275.281 236.901 271.569 237.47 267.866C238.099 263.77 238.466 259.312 236.993 255.362C237.396 253.592 238.979 258.378 239.127 258.776C240.319 256.431 243.223 256.25 245.519 255.519C250.622 253.87 255.85 252.627 261.013 251.161C274.706 247.365 288.415 243.628 302.128 239.898C307.606 238.385 313.372 236.595 317.434 232.461ZM180.315 294.226C182.204 284.003 182.152 273.644 181.344 263.309C180.457 247.281 179.595 231.248 178.674 215.222C174.672 244.229 170.407 273.203 167.145 302.303C166.912 304.328 166.948 306.472 165.924 308.278C171.583 309.035 177.614 309.797 183.116 307.876C180.701 303.71 179.85 298.966 180.315 294.226ZM151.722 222.221C147.445 249.714 149.885 277.689 145.735 305.15C151.492 305.794 157.204 306.747 162.901 307.795C162.277 304.403 163.46 300.9 163.664 297.484C166.758 273.118 170.174 248.768 174.7 224.615C175.81 218.835 176.932 213.078 178.218 207.329C178.024 203.848 177.854 200.367 177.742 196.884C171.46 192.942 164.377 190.391 157.052 189.104C155.073 200.113 153.095 211.114 151.722 222.221ZM201.244 135.829C201.495 135.402 201.733 134.965 201.962 134.521C201.188 134.551 200.435 134.578 199.673 134.704C199.707 135.928 199.639 137.161 199.625 138.394C200.006 137.492 200.751 136.669 201.244 135.829ZM72.0444 308.114C90.3156 294.852 120.326 303.302 141.493 304.665C145.528 278.252 143.881 251.408 147.642 224.952C151.106 198.521 154.759 171.722 163.459 146.399C167.049 136.607 173.26 133.7 183.487 133.779C188.676 133.576 194.164 132.746 199.208 132.864C200.314 132.882 201.47 133.028 202.467 133.473C203.87 130.317 204.631 126.929 205.016 123.515C205.04 123.298 205.317 123.258 205.399 123.465C206.585 126.438 206.711 129.683 206.066 132.796C205.599 135.026 202.82 143.802 199.592 140.369C199.336 147.569 200.921 156.169 207.987 159.906C220.336 165.28 237.405 160.386 244.558 148.98C245.94 146.7 247.133 144.275 248.663 142.086C237.998 139.072 232.011 126.316 234.524 116.602C236.077 124.157 238.908 132.599 245.959 136.83C271.633 136.773 292.98 148.446 305.042 170.928C307.402 174.193 309.584 177.585 311.584 181.037C312.66 183.346 315.812 186.557 313.137 188.787C316.226 197.018 318.967 205.363 321.865 213.659C322.66 216.423 324.479 219.323 324.117 222.229C324.509 224.02 324.491 226.138 323.592 227.86C322.738 230.929 320.823 235.058 317.647 236.36C314.952 238.817 311.544 240.509 307.989 241.784C317.469 266.512 321.077 293.181 324.289 319.308C327.437 342.165 329.062 369.969 309.338 386.488C308.955 391.214 306.146 397.237 300.592 397.288C296.745 401.058 292.056 398.99 287.775 397.146C280.547 394.474 272.968 392.993 265.436 392.168C264.628 392.798 263.314 392.694 262.595 391.959C258.032 390.909 251.709 395.16 250.787 391.309C244.905 390.739 239.086 389.672 233.209 389.049C235.686 392.256 235.508 396.986 233.642 400.452C238.393 409.78 227.327 415.182 220.56 419.01C211.426 424.29 201.886 429.3 191.44 431.488C182.255 433.417 172.633 432.832 163.771 429.751C159.115 428.582 152.611 424.747 155.374 419.343C151.871 409.059 176.468 398.403 183.703 393.253C180.746 392.885 180.638 386.758 188.33 390.278C189.259 389.658 190.173 389.017 191.077 388.365C159.964 384.796 100.546 374.975 78.0292 353.745C65.6589 342.829 58.5218 320.749 72.0444 308.114Z" fill="black"/>
<path fill-rule="evenodd" clip-rule="evenodd" d="M221.805 52.5362C191.5 51.0454 177.824 72.389 176.94 81.9222C176.326 88.5397 180.235 96.1671 180.235 102.08C180.235 105.099 176.54 111.579 178.26 115.978C182.088 125.77 190.194 136.637 200.523 136.637C210.852 136.637 224.294 139.494 235.708 123.148C236.779 121.614 250.323 112.897 251.639 104.614C254.917 83.9808 243.429 53.5999 221.805 52.5362Z" fill="#D08B5B"/>
<path fill-rule="evenodd" clip-rule="evenodd" d="M223.232 39.2522C222.148 38.0122 220.319 37.5162 218.693 37.6122C216.332 37.7522 214.278 39.2102 211.929 39.3182C209.466 39.4322 207.088 38.5782 204.619 38.9742C203.106 39.2182 201.606 39.9202 200.636 41.1042C197.277 40.1422 193.63 41.4162 191.491 44.1982C188.852 43.7882 185.981 45.5364 185.173 48.0802C181.82 48.1882 178.655 50.8822 178.281 54.2582C176.941 54.6122 175.778 55.5364 175.064 56.7582C174.234 58.1742 174.096 59.7982 174.246 61.3942C172.668 62.2002 171.867 63.9322 171.657 65.7642C170.215 66.8402 169.589 68.7742 169.883 70.6002C168.78 71.2222 168.21 72.6702 168.216 73.9622C168.222 75.1682 168.541 76.2364 168.092 77.4002C167.691 78.4367 167.547 79.3006 167.767 80.3864L167.79 80.4922C167.829 80.6692 167.862 80.839 167.891 81.0064C167.593 81.2684 167.34 81.5968 167.15 81.9788C166.459 83.3748 166.562 84.967 167.089 86.3828C166.858 87.2844 166.888 88.2368 167.229 89.1034C166.59 90.0244 166.254 91.154 166.352 92.326C166.463 93.6382 167.062 94.8132 167.971 95.682C167.729 97.4744 168.457 99.411 169.775 100.673C169.588 101.746 169.749 102.871 170.336 103.888C170.754 104.613 171.317 105.153 171.967 105.529C171.945 106.128 172.026 106.74 172.226 107.353C172.502 108.205 172.97 108.989 173.587 109.62C173.219 111.972 174.626 114.581 177.104 115.241C177.312 115.297 177.511 115.322 177.701 115.326C177.947 117.588 178.484 119.818 179.316 121.936C181.432 127.33 185.279 132.046 190.295 134.988C192.777 136.442 195.564 137.438 198.409 137.854C200.456 138.154 202.426 138.08 204.481 137.876C207.06 137.618 209.652 137.232 212.159 136.568L212.562 136.461C213.602 136.182 214.697 135.861 215.598 135.3C216.606 134.672 217.129 133.704 217.361 132.564C217.491 131.93 217.089 131.247 216.394 131.234L216.35 131.234C216.198 131.237 216.047 131.232 215.894 131.222L215.78 131.214H215.774C215.766 131.212 215.762 131.212 215.754 131.212C215.686 131.202 215.62 131.182 215.554 131.172C214.79 131.044 214.122 131.171 213.405 131.41L213.315 131.44C212.107 131.856 210.909 132.242 209.662 132.528C208.372 132.822 207.066 133.056 205.757 133.24L205.627 133.256L205.587 133.262L205.567 133.264C205.563 133.264 205.559 133.264 205.555 133.266L205.169 133.314C204.865 133.35 204.561 133.382 204.257 133.414C203.697 133.47 203.138 133.514 202.578 133.546C192.915 134.09 184.799 126.48 182.35 117.356C181.462 114.054 181.404 110.76 181.666 107.464C181.75 107.224 181.8 106.958 181.798 106.666C181.798 106.514 181.79 106.364 181.78 106.212C182.105 103.024 182.671 99.8342 183.025 96.6342C183.439 92.8962 183.669 89.1364 183.585 85.3742C183.543 83.5162 183.345 81.6762 183.085 79.8364L182.991 79.1754C184.166 78.946 185.258 78.3888 186.128 77.5822C188.015 78.6722 190.457 78.7688 192.32 77.6178C194.407 78.9272 197.323 79.046 199.425 77.7658C200.696 78.673 202.297 79.0644 203.868 78.72C204.575 78.5652 205.278 78.2302 205.879 77.7664C206.309 77.8422 206.744 77.8716 207.177 77.849L207.267 77.899C208.264 78.425 209.37 78.7712 210.507 78.7326C211.349 78.7042 212.217 78.538 213.02 78.2236C213.878 78.7416 214.817 79.0952 215.821 79.222C217.288 79.407 218.871 79.0824 220.091 78.25C222.321 79.5204 225.063 79.716 227.47 78.8624C227.963 79.6974 228.645 80.4174 229.443 80.9724C229.3 81.4848 229.255 82.0312 229.304 82.5566C229.385 83.4214 229.601 84.1968 229.956 84.8932C229.582 85.6708 229.47 86.6256 229.679 87.584C229.977 88.9508 230.772 90.1398 231.801 91.0658C231.892 93.247 233.088 95.2922 235.034 96.4284C235.133 96.4858 235.231 96.5326 235.329 96.5748C235.415 96.6924 235.517 96.7958 235.635 96.883C236.872 98.0268 238.831 97.9358 240.382 97.2896C240.412 97.291 240.442 97.2936 240.472 97.2942C241.026 97.3082 241.404 97.0922 241.628 96.7742C241.854 96.7864 242.078 96.8102 242.304 96.8522C243.128 97.0062 244.032 97.3022 244.777 97.6864C246.713 98.6822 247.609 100.442 247.876 102.558C248.168 104.866 247.505 107.218 245.719 108.78C244.851 109.54 243.742 110.016 242.614 110.216C241.368 110.438 240.037 109.892 239.117 110.962C238.933 111.174 238.807 111.47 238.907 111.756C239.219 112.648 239.733 112.99 240.537 113.114C239.375 114.492 238.183 115.824 236.864 117.062C235.436 118.404 233.961 119.704 232.673 121.184C231.311 122.75 230.082 124.41 229.228 126.31C228.74 127.402 228.348 128.528 227.926 129.646L227.851 129.841C227.38 131.029 226.754 132.174 227.478 133.414C227.766 133.902 228.418 134.374 229.018 134.296C230.707 134.08 231.273 132.938 231.793 131.45C232.185 130.326 232.485 129.17 232.907 128.056C232.986 127.85 233.072 127.646 233.162 127.443C234.136 127.714 235.207 127.499 236.076 126.943C237.005 127.355 238.034 127.56 239.028 127.543C240.359 127.52 241.575 127.15 242.62 126.483C242.703 126.461 242.787 126.44 242.87 126.416C244.46 127.025 246.322 126.916 247.762 125.929C248.694 125.289 249.332 124.436 249.694 123.486C250.899 123.463 252.09 123.036 252.954 122.181C253.746 121.396 254.209 120.383 254.347 119.331C255.384 119.126 256.356 118.624 257.118 117.78C257.755 117.074 258.142 116.176 258.273 115.243C259.535 114.883 260.674 114.058 261.296 112.908C261.875 111.837 261.959 110.676 261.676 109.62L261.749 109.514C263.05 108.833 264.043 107.718 264.145 106.126C264.173 105.672 264.125 105.219 264.002 104.79C264.046 104.31 264.018 103.83 263.892 103.366C265.641 101.664 266.275 98.9302 265.325 96.6702C267.035 94.8302 267.487 91.9202 266.233 89.7364C267.093 88.6962 267.535 87.3702 267.461 85.9542C267.369 84.1864 266.559 82.6422 265.589 81.2122C266.309 80.4162 266.693 79.3062 266.665 78.2342C266.625 76.6802 265.799 75.3422 264.765 74.2342C265.667 71.4982 264.66 68.5302 262.446 66.7982C262.894 66.0602 263.06 65.1462 262.914 64.2202C262.658 62.6022 261.445 61.5002 260.135 60.6282C260.409 59.7364 260.337 58.7742 259.901 57.8522C259.319 56.6222 258.221 55.8422 257.076 55.1822C256.78 52.4542 253.733 50.1242 251.178 51.5322C251.811 49.5022 249.986 47.3102 247.886 47.0782C246.859 43.9622 243.314 41.9982 240.127 42.7722C238.497 40.5442 235.464 39.6864 232.889 40.6422C230.057 38.4722 226.545 38.1502 223.232 39.2522ZM243.399 100.434C241.41 100.326 239.918 101.95 238.87 103.436C237.887 104.83 240.41 106.302 241.146 104.766C241.41 104.218 241.71 103.638 242.111 103.158C242.179 103.253 242.238 103.351 242.298 103.451L242.357 103.552C242.401 103.626 242.447 103.702 242.485 103.78C242.481 103.794 242.541 103.978 242.543 103.986C242.707 104.484 243.065 104.804 243.553 104.976C244.183 105.196 244.779 104.722 244.981 104.166C245.302 103.278 244.555 102.504 243.777 102.152C244.541 102.028 245.292 102.288 245.844 102.876C245.92 102.958 246.048 102.892 246.052 102.79C246.116 101.396 244.659 100.502 243.399 100.434Z" fill="black"/>
<path fill-rule="evenodd" clip-rule="evenodd" d="M194.741 121.233C196.217 121.659 197.801 121.698 199.305 121.257C200.67 120.857 202.071 119.977 203.076 118.813C203.968 117.779 204.546 116.523 204.523 115.181C204.52 115.028 204.465 114.9 204.381 114.801C204.29 114.694 204.163 114.621 204.027 114.589C203.887 114.556 203.74 114.568 203.614 114.625C203.5 114.676 203.402 114.764 203.341 114.892C203.187 115.095 203.033 115.294 202.879 115.488C201.638 117.018 200.436 118.161 198.569 118.571C197.557 118.793 196.546 118.695 195.618 118.355C194.625 117.992 193.727 117.353 193.023 116.535C192.705 116.166 192.33 116.015 191.963 116.012C191.547 116.009 191.136 116.202 190.826 116.511C190.521 116.814 190.318 117.226 190.299 117.657C190.283 118.035 190.406 118.43 190.735 118.782C191.818 119.943 193.222 120.794 194.741 121.233ZM194.786 102.075C193.273 102.993 190.968 105.133 192.595 107.409C194.511 109.416 197.27 107.115 198.629 106.074C199.889 105.268 201.306 107.342 200.136 108.284C190.314 115.543 186.327 102.315 194.021 100.995C194.868 100.85 195.182 101.791 194.786 102.075ZM208.939 98.0352C209.425 97.7247 209.997 97.6182 210.631 97.9061C211.127 98.131 211.996 98.8807 212.6 99.8662C213.014 100.54 213.307 101.331 213.246 102.155C213.232 102.347 213.303 102.488 213.415 102.592C213.503 102.674 213.63 102.735 213.78 102.754C213.907 102.77 214.049 102.756 214.165 102.719C214.385 102.651 214.502 102.508 214.545 102.392C214.969 101.27 214.786 100.017 214.312 98.8871C213.672 97.3621 212.509 96.0847 211.747 95.6729C210.443 94.9678 208.904 94.9354 207.599 95.6536C206.487 96.2649 205.792 97.2518 205.101 98.2578C204.954 98.4717 204.808 98.684 204.657 98.8925C204.355 99.3104 204.325 99.7249 204.442 100.08C204.572 100.474 204.902 100.806 205.315 100.98C205.697 101.141 206.141 101.163 206.533 100.998C206.864 100.859 207.168 100.587 207.361 100.125C207.685 99.3484 208.225 98.4911 208.939 98.0352ZM184.243 99.7643C184.576 99.9375 184.836 99.9897 185.206 99.8792C185.41 99.818 185.612 99.7006 185.77 99.5428C185.927 99.3864 186.04 99.1919 186.084 98.9762C186.192 98.4437 186.484 97.9453 186.899 97.6204C187.255 97.3426 187.704 97.1954 188.201 97.2785C188.738 97.368 189.25 97.7118 189.603 98.1171C189.72 98.2528 189.813 98.4068 189.906 98.5598C190.079 98.846 190.248 99.1119 190.487 99.3221C190.578 99.402 190.715 99.4574 190.847 99.4574C190.901 99.4574 190.956 99.4487 191.008 99.4325C191.543 98.8969 191.645 98.4907 191.628 98.0877C191.61 97.6651 191.443 97.2373 191.173 96.8381C190.541 95.9017 189.34 95.134 188.529 94.9601C187.419 94.722 186.316 95.0078 185.432 95.6267C184.523 96.2635 183.849 97.2522 183.639 98.3664C183.588 98.6348 183.61 98.9244 183.712 99.1756C183.812 99.421 183.987 99.6312 184.243 99.7643ZM206.491 88.0518C207.157 88.6997 207.946 88.8001 208.744 88.8893C209.187 88.9394 209.541 88.9798 209.889 89.0582C210.846 89.2738 211.792 89.5986 212.655 90.0663C213.557 90.5553 214.54 91.1449 215.248 91.9004C215.416 92.0801 215.574 92.2687 215.733 92.4578C215.878 92.6302 216.017 92.7961 216.164 92.9561C216.333 93.1399 216.493 93.3325 216.653 93.5247C216.751 93.6868 216.771 93.7266 216.791 93.7681C216.821 93.8305 216.855 93.9003 216.895 93.9752C216.949 94.0777 217.013 94.19 217.08 94.2918C217.191 94.4778 217.25 94.5291 217.302 94.552C217.387 94.5899 217.468 94.6086 217.547 94.5985C217.62 94.589 217.69 94.5537 217.758 94.4959C218.1 94.2074 218.201 93.734 218.191 93.2315C218.175 92.469 217.893 91.6247 217.633 91.1057C217.03 89.8998 216.192 88.6461 215.185 87.7461C214.035 86.7187 212.778 85.9409 211.334 85.4049C210.436 85.0717 209.397 84.7659 208.419 84.8045C207.716 84.8324 207.044 85.0412 206.489 85.5627C206.148 85.8828 205.985 86.3382 205.985 86.7933C205.985 87.2574 206.154 87.7242 206.491 88.0518ZM182.885 93.9846C182.928 94.0539 182.986 94.1016 183.052 94.1303C183.12 94.1604 183.196 94.1691 183.27 94.1567C183.343 94.1445 183.412 94.1114 183.467 94.061C183.52 94.0126 183.56 93.9485 183.578 93.87C184.02 91.9308 184.879 90.4881 186.712 89.5578C187.614 89.1001 188.651 88.8093 189.632 88.5775C189.918 88.5101 190.219 88.4664 190.523 88.4222C191.474 88.2835 192.432 88.1248 193.052 87.3572C193.426 86.8949 193.583 86.3036 193.494 85.7628C193.411 85.2537 193.112 84.7868 192.571 84.507C191.222 83.8108 189.545 84.494 188.183 85.0759C188.082 85.1191 187.983 85.1615 187.886 85.2024C186.554 85.7636 185.339 86.5045 184.34 87.5641C183.547 88.4046 182.813 89.6473 182.518 90.9256C182.272 91.9891 182.329 93.0749 182.885 93.9846Z" fill="black"/>
</svg>
